SplineFontDB: 3.2
FontName: Beta4CynwydBook
FullName: Beta4CynwydBook
FamilyName: Beta4CynwydBook
Weight: Book
Copyright: Martha Connell 2021 (marthaconnell.com) open font license
Version: 1.007
ItalicAngle: 0
UnderlinePosition: -220
UnderlineWidth: 70
Ascent: 800
Descent: 200
InvalidEm: 0
sfntRevision: 0x000101cb
LayerCount: 2
Layer: 0 0 "Back" 1
Layer: 1 0 "Fore" 0
XUID: [1021 931 -1168301316 17437]
StyleMap: 0x0040
FSType: 0
OS2Version: 4
OS2_WeightWidthSlopeOnly: 0
OS2_UseTypoMetrics: 1
CreationTime: 1565276124
ModificationTime: 1635538656
PfmFamily: 81
TTFWeight: 300
TTFWidth: 5
LineGap: 0
VLineGap: 0
Panose: 0 0 0 0 0 0 0 0 0 0
OS2TypoAscent: 950
OS2TypoAOffset: 0
OS2TypoDescent: -225
OS2TypoDOffset: 0
OS2TypoLinegap: 0
OS2WinAscent: 1158
OS2WinAOffset: 0
OS2WinDescent: 248
OS2WinDOffset: 0
HheadAscent: 950
HheadAOffset: 0
HheadDescent: -225
HheadDOffset: 0
OS2SubXSize: 650
OS2SubYSize: 600
OS2SubXOff: 0
OS2SubYOff: 75
OS2SupXSize: 650
OS2SupYSize: 600
OS2SupXOff: 0
OS2SupYOff: 350
OS2StrikeYSize: 70
OS2StrikeYPos: 310
OS2CapHeight: 723
OS2XHeight: 517
OS2Vendor: 'NONE'
OS2CodePages: 20000193.00000000
OS2UnicodeRanges: a00000ff.4000205b.00000000.00000000
Lookup: 1 0 0 "'rtla' Right to Left Alternates lookup 0" { "'rtla' Right to Left Alternates lookup 0 subtable"  } ['rtla' ('DFLT' <'dflt' > ) ]
Lookup: 1 0 0 "<10,2> Inferiors lookup 1" { "<10,2> Inferiors lookup 1 subtable" ("inferior") } [<10,2> ('DFLT' <'dflt' > ) 'subs' ('DFLT' <'dflt' > ) ]
Lookup: 1 0 0 "<10,1> Superiors lookup 2" { "<10,1> Superiors lookup 2 subtable" ("superior") } [<10,1> ('DFLT' <'dflt' > ) 'sups' ('DFLT' <'dflt' > ) ]
Lookup: 1 0 0 "<11,2> Diagonal Fractions lookup 3" { "<11,2> Diagonal Fractions lookup 3 subtable"  } [<11,2> ('DFLT' <'dflt' > ) 'frac' ('DFLT' <'dflt' > ) ]
Lookup: 1 0 0 "<11,2> Diagonal Fractions lookup 4" { "<11,2> Diagonal Fractions lookup 4 subtable"  } [<11,2> ('DFLT' <'dflt' > ) 'frac' ('DFLT' <'dflt' > ) ]

StartChar: .notdef
Encoding: 65536 -1 0
Width: 694
Flags: W
HStem: -161 49<150 506.53> 777 49<185.101 544>
VStem: 100 50<-112 716.303> 544 50<-54.8325 777>
LayerCount: 2
Fore
SplineSet
150 -92 m 2
 150 -105.805402079 156.878555052 -112 172 -112 c 2
 506.530434783 -112 l 1
 150 716.303030303 l 1
 150 -92 l 2
126 -161 m 2
 107.12277377 -161 100 -154.995617823 100 -137 c 2
 100 803 l 2
 100 818 105 826 118 826 c 2
 578 826 l 2
 589 826 594 819 594 805 c 2
 594 -133 l 2
 594 -152 583 -161 562 -161 c 2
 126 -161 l 2
185.100956429 777 m 1
 544 -54.8325123153 l 1
 544 760 l 2
 544 771 540 777 530 777 c 2
 185.100956429 777 l 1
EndSplineSet
EndChar

StartChar: exclam
Encoding: 33 33 4
Width: 242
Flags: W
HStem: -5 122<75.7609 164.838> 703 20G<72 167>
VStem: 59 121<10.3834 99.7913> 72 95<541.333 723> 93 54<178 359.667>
LayerCount: 2
Fore
SplineSet
167 723 m 1xd0
 147 178 l 1
 93 178 l 1xc8
 72 723 l 1
 167 723 l 1xd0
119 -5 m 0
 86.2857001741 -5 59 23.8197621126 59 56 c 0
 59 85.8000361299 88.9212346886 117 120 117 c 0
 154.350638846 117 180 89.5098206533 180 56 c 0xe0
 180 21.6983063531 151.129274988 -5 119 -5 c 0
EndSplineSet
EndChar

StartChar: quotedbl
Encoding: 34 34 5
Width: 410
Flags: W
HStem: 502 221<98 146 264 312>
VStem: 98 48<502 557.25> 264 48<502 557.25>
LayerCount: 2
Fore
SplineSet
174 723 m 1
 146 502 l 1
 98 502 l 1
 72 723 l 1
 174 723 l 1
340 723 m 1
 312 502 l 1
 264 502 l 1
 238 723 l 1
 340 723 l 1
EndSplineSet
EndChar

StartChar: numbersign
Encoding: 35 35 6
Width: 599
Flags: W
HStem: -2 21G<122 175.056 324 379.028> 237 51<39 157.068 216.306 359.39 419.903 526> 442 52<71 188.189 247.778 390.797 451.089 558> 704 20G<227.964 282 430.936 485>
LayerCount: 2
Fore
SplineSet
558 494 m 1
 558 442 l 1
 443.216666667 442 l 1
 419.902777778 288 l 1
 526 288 l 1
 526 237 l 1
 412.181944444 237 l 1
 376 -2 l 1
 324 6 l 1
 359.389972145 237 l 1
 208.513888889 237 l 1
 172 -2 l 1
 122 6 l 1
 157.068245125 237 l 1
 39 237 l 1
 39 288 l 1
 164.810584958 288 l 1
 188.189415042 442 l 1
 71 442 l 1
 71 494 l 1
 196.08356546 494 l 1
 231 724 l 1
 282 718 l 1
 247.777777778 494 l 1
 398.763231198 494 l 1
 434 724 l 1
 485 718 l 1
 451.088888889 494 l 1
 558 494 l 1
367.203342618 288 m 1
 390.796657382 442 l 1
 239.833333333 442 l 1
 216.305555556 288 l 1
 367.203342618 288 l 1
EndSplineSet
EndChar

StartChar: dollar
Encoding: 36 36 7
Width: 652
Flags: W
HStem: -8.41996 67.42<230.554 296 371 431.181> 664 66.3228<242.137 303 377 435.953>
VStem: 85 85<472.303 599.973> 296 75<-107 -6.12121> 303 74<727.765 832> 506 84<121.467 254.047>
LayerCount: 2
Fore
SplineSet
150.837970069 168 m 1xf4
 176.097788171 98.4683992401 243.474082159 59 335 59 c 0
 396.782609731 59 451.057203248 83.3143536536 481 117 c 0
 497 135 506 157 506 182 c 0
 506 215 497 243 477 263 c 0
 457 283 427 300 385 312 c 2
 258 346 l 2
 205 360 163 382 132 410 c 0
 101 438 85 476 85 524 c 0
 85 616.034672273 139.146080861 673.332354092 206 705 c 0
 234.528897613 718.513688343 267.003284141 726.954605224 303 730.322750643 c 1
 303 832 l 1
 377 832 l 1
 377 730.052857049 l 1xec
 409.484060495 726.475838529 448.352539062 717.922851562 474 704 c 0
 509 685 545 660 564 630 c 0
 576.48023074 610.294372515 585.50880144 589.294372515 590.802307404 567 c 1
 511.856391811 545.999985775 l 1
 500.48296669 581.77276122 477.88715813 609.638283193 456 629 c 0
 430 652 384 664 339 664 c 0
 266.540126959 664 211.350022126 635.495037615 184 589 c 0
 174 572 170 553 170 531 c 0
 170 504 179 482 198 466 c 0
 217 450 252 434 302 418 c 2
 424 383 l 2
 522.333846481 355.138743497 590 295.224728525 590 184 c 0
 590 96.879667584 533.019616812 44.0877233104 468 15 c 0
 439.3580211 2.18648312374 406.73921347 -5.51396824164 371 -8.52956554198 c 1
 371 -107 l 1
 296 -107 l 1
 296 -8.419964236 l 1
 182.515201484 1.08540334049 96.9347639956 54.7167930426 69.6382923702 149.999986527 c 1
 150.837970069 168 l 1xf4
EndSplineSet
Substitution2: "<6,0> Monospaced Numbers in Latin lookup 14 subtable" dollar.tf
EndChar

StartChar: percent
Encoding: 37 37 8
Width: 894
Flags: W
HStem: -10 47<611.539 728.215> 321 45<164.788 281.082> 358 47<612.442 725.029> 689 45<164.555 279.968>
VStem: 55 61<421.919 631.513> 330 60<423.722 630.273> 502 61<94.2373 299.127> 776 61<94.6667 298.813>
LayerCount: 2
Fore
SplineSet
711 731 m 1x9f
 225 -4 l 1
 169 -3 l 1
 657 731 l 1
 711 731 l 1x9f
669 37 m 0
 720.599554351 37 747.702186777 73.2058314054 763 114 c 0
 772 138 776 166 776 197 c 0
 776 259.200645876 757.778109455 308.319154227 725 337 c 0
 709 351 690 358 669 358 c 0xbf
 618.167439514 358 591.149549012 319.398797367 576 279 c 0
 567 255 563 228 563 197 c 0
 563 135.837787922 580.716127527 85.2483884136 613 57 c 0
 629 43 647 37 669 37 c 0
670 405 m 0
 741.582279021 405 790.985742359 361.174427634 815 308 c 0
 829 277 837 240 837 198 c 0
 837 112.947863849 808.251785496 47.8011427175 757 15 c 0
 732 -1 702 -10 670 -10 c 0
 597.376596088 -10 548.314231985 32.1613434609 524 86 c 0
 510 117 502 155 502 198 c 0
 502 282.193393018 532.828424405 345.541662111 584 379 c 0
 610 396 638 405 670 405 c 0
116 527 m 0
 116 446.165180869 146.863366436 366 222 366 c 0xdf
 297.761450549 366 330 445.58042126 330 527 c 0
 330 608.856798107 297.752679982 689 222 689 c 0
 171.759083525 689 142.605842947 651.817528842 129 611 c 0
 121 587 116 559 116 527 c 0
224 734 m 0
 296.729661061 734 343.695398279 691.817332383 368 638 c 0
 382 607 390 570 390 527 c 0
 390 442.165492791 361.106691725 378.708282704 310 346 c 0
 285 330 256 321 224 321 c 0
 150.910443519 321 102.883126393 362.508205455 77 416 c 0
 62 447 55 484 55 527 c 0
 55 612.753306694 86.4297536491 674.612232481 137 709 c 0
 162 726 192 734 224 734 c 0
EndSplineSet
EndChar

StartChar: ampersand
Encoding: 38 38 9
Width: 688
Flags: W
HStem: -5 64<189.489 364.539> 678 56<234.469 380.667>
VStem: 120 79<508.157 643.073> 418 73<516.879 643.374> 555 76<287.078 384>
LayerCount: 2
Fore
SplineSet
252 352 m 1
 215 332 185 307 161 279 c 0
 123.957421989 235.783658987 114.707961003 164.481284765 149 117 c 0
 173.230005594 83.4507614858 216.134218426 59 272 59 c 0
 341.67153681 59 401.556478208 95.2279356773 440 132 c 1
 252 352 l 1
418 580 m 0
 418 647.94896308 368.103702703 678 302 678 c 0
 241.10233699 678 199 639.057910523 199 582 c 0
 199 526.481431599 238.085986609 478.616015303 264 449 c 2
 281 430 l 1
 319 451 347 471 367 488 c 0
 397.587023419 513.998969906 418 534.958371111 418 580 c 0
480 83 m 1
 421.586543737 32.6995237737 350.838334983 -5 256 -5 c 0
 165.854855186 -5 101.825720992 28.2870477784 68 84 c 0
 51 112 42 145 42 182 c 0
 42 254.244997724 74.4813933847 300.583626179 117 338 c 0
 142 360 174 380 212 400 c 1
 178.696188472 435.056643714 147.29602666 470.439923829 131 517 c 0
 124 537 120 557 120 578 c 0
 120 643.566332197 159.486816598 688.882053051 206 713 c 0
 233 727 265 734 300 734 c 0
 372.206568507 734 430.99177422 704.177177386 464 662 c 0
 482 639 491 612 491 581 c 0
 491 545.684333532 476.978038118 519.468887334 459 494 c 0
 447 477 429 459 406 441 c 0
 383 423 354 403 317 384 c 1
 488 184 l 1
 523.855557079 230.100001959 550.216540594 302.681190103 555 384 c 1
 631 384 l 1
 619.175396565 277.578569087 577.528950239 204.102306579 528 136 c 1
 644 0 l 1
 552 0 l 1
 480 83 l 1
EndSplineSet
EndChar

StartChar: quotesingle
Encoding: 39 39 10
Width: 244
Flags: W
HStem: 502 221<98 146>
VStem: 98 48<502 557.25>
LayerCount: 2
Fore
SplineSet
174 723 m 1
 146 502 l 1
 98 502 l 1
 72 723 l 1
 174 723 l 1
EndSplineSet
EndChar

StartChar: parenleft
Encoding: 40 40 11
Width: 294
Flags: W
VStem: 72 78<138.782 496.894>
LayerCount: 2
Fore
SplineSet
72 321 m 0
 72 500.730235867 139.943785178 653.726540025 216 766 c 1
 268 766 l 1
 206.733896871 648.873626372 150 489.856528563 150 320 c 0
 150 144.303806897 197.203010122 12.6564928846 259 -118 c 1
 206 -118 l 1
 134.843130267 5.86566212748 72 132.296190405 72 321 c 0
EndSplineSet
Substitution2: "'rtla' Right to Left Alternates lookup 0 subtable" parenright
EndChar

StartChar: parenright
Encoding: 41 41 12
Width: 302
Flags: W
VStem: 139 78<138.722 496.94>
LayerCount: 2
Fore
SplineSet
217 321 m 0
 217 499.704194613 149.764284554 654.157484706 74 766 c 1
 22 766 l 1
 83.5227019515 648.383069799 139 491.144668252 139 320 c 0
 139 144.303806897 91.7969898778 12.6564928846 30 -118 c 1
 83 -118 l 1
 154.033421598 5.65077093048 217 132.14442201 217 321 c 0
EndSplineSet
Substitution2: "'rtla' Right to Left Alternates lookup 0 subtable" parenleft
EndChar

StartChar: asterisk
Encoding: 42 42 13
Width: 372
Flags: W
HStem: 398 325
VStem: 26 324
LayerCount: 2
Fore
SplineSet
266 402 m 1
 190 525 l 1
 110 398 l 1
 62 432 l 1
 154 547 l 1
 26 584 l 1
 44 634 l 1
 166 586 l 1
 158 723 l 1
 218 723 l 1
 210 586 l 1
 334 639 l 1
 350 588 l 1
 226 548 l 1
 315 437 l 1
 266 402 l 1
EndSplineSet
EndChar

StartChar: plus
Encoding: 43 43 14
Width: 545
Flags: W
HStem: 332 62<62 242 304.576 483>
VStem: 242 62.4272<154 332 394.576 574>
LayerCount: 2
Fore
SplineSet
305 154 m 1
 242 154 l 1
 242 332 l 1
 62 332 l 1
 62 394 l 1
 242 394.427553444 l 1
 242 574 l 1
 304 574 l 1
 304.427200389 394.57583658 l 1
 483 395 l 1
 483 332 l 1
 304.576190476 332 l 1
 305 154 l 1
EndSplineSet
EndChar

StartChar: comma
Encoding: 44 44 15
Width: 230
Flags: W
HStem: -114 228<97.0182 110.296>
VStem: 60 124<28.3289 96.5893>
LayerCount: 2
Fore
SplineSet
121 114 m 0
 154.930254558 114 184 82.4912589327 184 54 c 0
 184 43 181 35 176 28 c 2
 176 28 169.299038277 15.1341534922 155.619574765 -10.3199994568 c 0
 142.876745465 -34.0313040484 124.078335491 -68.6660858434 99 -114 c 1
 54 -114 l 1
 97 0 l 1
 91 0 85 3 78 10 c 0
 66 22 60 36 60 53 c 0
 60 82.2233241601 89.9212346886 114 121 114 c 0
EndSplineSet
Substitution2: "<6,0> Monospaced Numbers in Latin lookup 14 subtable" comma.tf
Substitution2: "<6,0> Monospaced Numbers lookup 9 subtable" comma.tf
EndChar

StartChar: hyphen
Encoding: 45 45 16
Width: 373
Flags: W
HStem: 226 64<62 311>
VStem: 62 249<227 290>
LayerCount: 2
Fore
SplineSet
311 290 m 1
 311 227 l 1
 62 226 l 1
 62 290 l 1
 311 290 l 1
EndSplineSet
EndChar

StartChar: period
Encoding: 46 46 17
Width: 213
Flags: W
HStem: -5 122<60.9014 149.963>
VStem: 44 121<10.2184 99.5893>
LayerCount: 2
Fore
SplineSet
104 -5 m 0
 71.7818626475 -5 44 23.3300573826 44 56 c 0
 44 85.2233241601 73.9212346886 117 105 117 c 0
 137.218137352 117 165 88.6699426174 165 56 c 0
 165 22.7865889069 137.207732675 -5 104 -5 c 0
EndSplineSet
Substitution2: "<6,0> Monospaced Numbers in Latin lookup 14 subtable" period.tf
Substitution2: "<6,0> Monospaced Numbers lookup 9 subtable" period.tf
EndChar

StartChar: slash
Encoding: 47 47 18
Width: 342
Flags: W
HStem: 703 20G<257.481 328>
VStem: 14 314
LayerCount: 2
Fore
SplineSet
14 -44 m 1
 264 723 l 1
 328 723 l 1
 78 -44 l 1
 14 -44 l 1
EndSplineSet
Substitution2: "<11,2> Diagonal Fractions lookup 3 subtable" fraction
EndChar

StartChar: zero
Encoding: 48 48 19
Width: 623
Flags: W
HStem: -11 69<240.086 392.681> 665 68<239.869 392.325>
VStem: 64 84<180.242 536.428> 482 86<181.957 539.93>
LayerCount: 2
Fore
SplineSet
316 58 m 0
 370 58 412 83 440 130 c 0
 468 177 482 254 482 360 c 0
 482 468 468 545 439 593 c 0
 410 641 370 665 316 665 c 0
 263 665 221 641 192 593 c 0
 163 545 148 467 148 360 c 0
 148 254 163 178 192 130 c 0
 221 82 262 58 316 58 c 0
316 733 m 0
 392 733 453 702 499 640 c 0
 545 578 568 484 568 360 c 0
 568 237 545 144 499 82 c 0
 453 20 392 -11 315 -11 c 0
 238 -11 177 20 132 82 c 0
 87 144 64 235 64 358 c 0
 64 510.046875 99.701171875 629.622070312 183 691 c 0
 221 719 265 733 316 733 c 0
EndSplineSet
Substitution2: "<6,0> Monospaced Numbers in Latin lookup 14 subtable" zero.tf
Substitution2: "<21,0> Lower Case Numbers lookup 10 subtable" zero.osf
Substitution2: "<6,0> Monospaced Numbers lookup 9 subtable" zero.tf
Substitution2: "<11,2> Diagonal Fractions lookup 4 subtable" zero.numr
Substitution2: "<10,1> Superiors lookup 2 subtable" uni2070
Substitution2: "<10,2> Inferiors lookup 1 subtable" zero.subs
EndChar

StartChar: one
Encoding: 49 49 20
Width: 360
Flags: W
HStem: 0 21G<195 276> 584 56<53 186.225> 703 20G<216.952 276>
VStem: 195 81<0 584> 219 57<671.122 723>
LayerCount: 2
Fore
SplineSet
53 640 m 1xf0
 143.365234375 640 214.903320312 645.155273438 219 723 c 1
 276 723 l 1xe8
 276 0 l 1
 195 0 l 1
 195 584 l 1
 53 584 l 1
 53 640 l 1xf0
EndSplineSet
Substitution2: "<6,0> Monospaced Numbers in Latin lookup 14 subtable" one.tf
Substitution2: "<21,0> Lower Case Numbers lookup 10 subtable" one.osf
Substitution2: "<6,0> Monospaced Numbers lookup 9 subtable" one.tf
Substitution2: "<11,2> Diagonal Fractions lookup 4 subtable" one.numr
Substitution2: "<10,1> Superiors lookup 2 subtable" uni00B9
Substitution2: "<10,2> Inferiors lookup 1 subtable" one.subs
EndChar

StartChar: two
Encoding: 50 50 21
Width: 571
Flags: W
HStem: 0 71<174.129 524.129> 664 70<199.978 372.528>
VStem: 47 76.0449<526.343 581.362> 432.129 80<415.08 604.503>
LayerCount: 2
Fore
SplineSet
285.12890625 664 m 0
 186.86328125 664 134.666015625 599.358398438 123.044921875 510 c 1
 47 528 l 1
 55.763671875 585.362304688 77.306640625 633.725585938 111.62890625 667.5 c 0
 153.296875 708.5 217.796875 734 285.12890625 734 c 0
 349.796875 734 412.12890625 710.833007812 452.12890625 674.5 c 0
 492.12890625 638.166992188 512.12890625 581.666992188 512.12890625 515 c 0
 512.12890625 434.333007812 478.62890625 356.166992188 411.62890625 280.5 c 0
 344.62890625 204.833007812 272.12890625 143 174.12890625 71 c 1
 524.12890625 71 l 1
 524.12890625 0 l 1
 47.12890625 0 l 1
 47.12890625 50 l 1
 169.796875 142 264.62890625 224.5 331.62890625 297.5 c 0
 398.62890625 370.5 432.12890625 442 432.12890625 512 c 0
 432.12890625 608.430664062 384.90625 664 285.12890625 664 c 0
EndSplineSet
Substitution2: "<6,0> Monospaced Numbers in Latin lookup 14 subtable" two.tf
Substitution2: "<21,0> Lower Case Numbers lookup 10 subtable" two.osf
Substitution2: "<6,0> Monospaced Numbers lookup 9 subtable" two.tf
Substitution2: "<11,2> Diagonal Fractions lookup 4 subtable" two.numr
Substitution2: "<10,1> Superiors lookup 2 subtable" uni00B2
Substitution2: "<10,2> Inferiors lookup 1 subtable" two.subs
EndChar

StartChar: three
Encoding: 51 51 22
Width: 603
Flags: W
HStem: -11 69<199.21 387.413> 342 71<215.961 367.699> 527 21G<58.2471 137.077> 666 67<202.812 377.108>
VStem: 49 77.7764<131.625 177.71> 58.2471 77.9668<544.294 600.053> 443.961 85<483.176 608.386> 463.961 85<126.831 270.861>
LayerCount: 2
Fore
SplineSet
126.776367188 195 m 1xf9
 141.529296875 110.206054688 193.057617188 58 289.9609375 58 c 0
 362.287109375 58 411.053710938 83.1298828125 440.9609375 125 c 0
 455.9609375 146 463.9609375 170 463.9609375 198 c 0xf9
 463.9609375 266.350585938 420.287109375 306.15234375 367.9609375 326 c 0
 338.9609375 337 315.9609375 342 279.9609375 342 c 2
 215.9609375 344 l 1
 215.9609375 412 l 1
 276.9609375 413 l 2
 346.770507812 413 389.591796875 441.788085938 420.9609375 481 c 0
 436.9609375 501 443.9609375 522 443.9609375 546 c 0
 443.9609375 597.64453125 408.41796875 630.916015625 368.9609375 649 c 0
 344.9609375 660 324.9609375 666 289.9609375 666 c 0
 227.96875 666 188.940429688 643.471679688 160.9609375 605 c 0
 145.912109375 584.307617188 137.940429688 558.307617188 136.213867188 527 c 1
 58.2470703125 546 l 1
 66.6865234375 626.2421875 116.819335938 678.448242188 178.9609375 707 c 0
 215.9609375 724 245.9609375 733 289.9609375 733 c 0
 386.4296875 733 455.634765625 703.1015625 496.9609375 648 c 0
 517.9609375 620 528.9609375 587 528.9609375 548 c 0
 528.9609375 512 516.9609375 480 493.9609375 451 c 0
 470.9609375 422 435.9609375 398 388.9609375 382 c 1
 451.874023438 364.841796875 501.573242188 331.5625 528.9609375 281 c 0xf6
 541.9609375 257 548.9609375 229 548.9609375 198 c 0
 548.9609375 57.890625 427.043945312 -11 285.9609375 -11 c 0
 185.440429688 -8.90625 123.461914062 25.1806640625 80.9609375 87 c 0
 63.1474609375 112.91015625 53.2021484375 142.75390625 49 176 c 1
 126.776367188 195 l 1xf9
EndSplineSet
Substitution2: "<6,0> Monospaced Numbers in Latin lookup 14 subtable" three.tf
Substitution2: "<21,0> Lower Case Numbers lookup 10 subtable" three.osf
Substitution2: "<6,0> Monospaced Numbers lookup 9 subtable" three.tf
Substitution2: "<11,2> Diagonal Fractions lookup 4 subtable" three.numr
Substitution2: "<10,1> Superiors lookup 2 subtable" uni00B3
Substitution2: "<10,2> Inferiors lookup 1 subtable" three.subs
EndChar

StartChar: four
Encoding: 52 52 23
Width: 635
Flags: W
HStem: 0 21G<397 474> 192 70<141 395 474 586> 703 20G<378.646 474>
VStem: 395 79<0 192 262 616>
LayerCount: 2
Fore
SplineSet
141 262 m 1
 395 262 l 1
 395 616 l 1
 141 262 l 1
393 723 m 1
 474 723 l 1
 474 262 l 1
 586 262 l 1
 586 192 l 1
 474 192 l 1
 474 0 l 1
 397 0 l 1
 397 192 l 1
 65 192 l 1
 65 266 l 1
 393 723 l 1
EndSplineSet
Substitution2: "<6,0> Monospaced Numbers in Latin lookup 14 subtable" four.tf
Substitution2: "<21,0> Lower Case Numbers lookup 10 subtable" four.osf
Substitution2: "<6,0> Monospaced Numbers lookup 9 subtable" four.tf
Substitution2: "<11,2> Diagonal Fractions lookup 4 subtable" four.numr
Substitution2: "<10,1> Superiors lookup 2 subtable" uni2074
Substitution2: "<10,2> Inferiors lookup 1 subtable" four.subs
EndChar

StartChar: five
Encoding: 53 53 24
Width: 603
Flags: W
HStem: -11 67<199.928 385.802> 404 68<208.391 388.008> 654 69<164 501>
VStem: 467 83<139.913 322.225>
LayerCount: 2
Fore
SplineSet
294 56 m 0
 401.782226562 56 467 125.42578125 467 234 c 0
 467 333.69921875 400.4453125 404 302 404 c 0
 212.950195312 404 195.014648438 380.014648438 141 326 c 0
 140 325 139 326 137 326 c 0
 112.071289062 334.73828125 89.1640625 345.498046875 65 355 c 1
 95 723 l 1
 503 723 l 1
 501 654 l 1
 164 654 l 1
 145 404 l 1
 186.163085938 446.953125 236.635742188 472 315 472 c 0
 409.85546875 472 477.9609375 428.107421875 517 366 c 0
 539 331 550 288 550 237 c 0
 550 130.211914062 502.03125 57.4521484375 429 20 c 0
 390 0 350 -11 298 -11 c 0
 202.119140625 -11 139.084960938 23.2158203125 91 75 c 0
 73 94 58 115 47 138 c 1
 115 174 l 1
 149.943359375 107.607421875 195.41796875 56 294 56 c 0
EndSplineSet
Substitution2: "<6,0> Monospaced Numbers in Latin lookup 14 subtable" five.tf
Substitution2: "<21,0> Lower Case Numbers lookup 10 subtable" five.osf
Substitution2: "<6,0> Monospaced Numbers lookup 9 subtable" five.tf
Substitution2: "<11,2> Diagonal Fractions lookup 4 subtable" five.numr
Substitution2: "<10,1> Superiors lookup 2 subtable" uni2075
Substitution2: "<10,2> Inferiors lookup 1 subtable" five.subs
EndChar

StartChar: six
Encoding: 54 54 25
Width: 621
Flags: W
HStem: -11 67<248.09 405.662> 401 66<244.373 414.032> 666 67<250.073 425.02>
VStem: 63 84<332 520.025> 481 85<138.839 331.586> 489 71<572.225 602.37>
LayerCount: 2
Fore
SplineSet
481 232 m 0xf8
 481 337.697265625 430.639648438 401 325 401 c 0
 261.766601562 401 215.3046875 366.918945312 187 328 c 0
 171 306 163 282 163 255 c 0
 163 175.267578125 192.685546875 114.854492188 241 82 c 0
 266 65 292 56 326 56 c 0
 394.614257812 56 436.173828125 92.1201171875 461 140 c 0
 475 167 481 197 481 232 c 0xf8
489 556 m 1xf4
 467.259765625 625.173828125 423.438476562 666 338 666 c 0
 236.364257812 666 187.14453125 602.231445312 163 516 c 0
 149 466 147 405 147 332 c 1
 171.645507812 405.936523438 237.651367188 467 334 467 c 0
 433.3203125 467 498.072265625 424.477539062 536 360 c 0
 556 326 566 284 566 236 c 0xf8
 566 132.15625 520.583007812 58.9248046875 452 20 c 0
 415 -1 377 -11 326 -11 c 0
 203.250976562 -11 133.268554688 62.0693359375 95 156 c 0
 73 210 63 275 63 351 c 0
 63 503.155273438 103.44921875 620.818359375 189 686 c 0
 231 718 277 733 337 733 c 0
 422.831054688 733 478.041992188 697.328125 521 649 c 0
 540 627 553 602 560 574 c 1
 489 556 l 1xf4
EndSplineSet
Substitution2: "<6,0> Monospaced Numbers in Latin lookup 14 subtable" six.tf
Substitution2: "<21,0> Lower Case Numbers lookup 10 subtable" six.osf
Substitution2: "<6,0> Monospaced Numbers lookup 9 subtable" six.tf
Substitution2: "<11,2> Diagonal Fractions lookup 4 subtable" six.numr
Substitution2: "<10,1> Superiors lookup 2 subtable" uni2076
Substitution2: "<10,2> Inferiors lookup 1 subtable" six.subs
EndChar

StartChar: seven
Encoding: 55 55 26
Width: 549
Flags: W
HStem: 0 21G<137 226.496> 654 69<27 417>
VStem: 137 84<0 94.5919>
LayerCount: 2
Fore
SplineSet
27 723 m 1
 505 723 l 1
 505 654 l 1
 422.45703125 536.53515625 346.575195312 385.533203125 292 240 c 0
 263.313476562 163.50390625 231.991210938 79.6884765625 221 0 c 1
 137 0 l 1
 153.958007812 96.0947265625 188.323242188 193.915039062 225 288 c 0
 274.928710938 416.078125 341.293945312 543.2109375 417 654 c 1
 27 654 l 1
 27 723 l 1
EndSplineSet
Substitution2: "<6,0> Monospaced Numbers in Latin lookup 14 subtable" seven.tf
Substitution2: "<21,0> Lower Case Numbers lookup 10 subtable" seven.osf
Substitution2: "<6,0> Monospaced Numbers lookup 9 subtable" seven.tf
Substitution2: "<11,2> Diagonal Fractions lookup 4 subtable" seven.numr
Substitution2: "<10,1> Superiors lookup 2 subtable" uni2077
Substitution2: "<10,2> Inferiors lookup 1 subtable" seven.subs
EndChar

StartChar: eight
Encoding: 56 56 27
Width: 635
Flags: W
HStem: -11 65<217.435 426.382> 339 72<234.841 407.284> 672 61<236.232 404.105>
VStem: 61 84<117.945 266.758> 92 81<468.468 609.928> 469 81<467.714 607.973> 499 84<117.015 265.52>
LayerCount: 2
Fore
SplineSet
321 54 m 0xf2
 378 54 419 66 453 92 c 0
 487 118 499 152 499 194 c 0
 499 257.038085938 457.616210938 299.592773438 410 320 c 0
 382 332 359 339 321 339 c 0
 251.948242188 339 197.44140625 309.482421875 168 269 c 0
 152 247 145 222 145 194 c 0
 145 152 157 118 191 92 c 0
 225 66 265 54 321 54 c 0xf2
173 540 m 0xec
 173 458.954101562 238.149414062 411 321 411 c 0
 368 411 396 423 425 445 c 0
 454 467 469 499 469 540 c 0
 469 581 449 614 420 638 c 0
 391 662 368 672 321 672 c 0
 275 672 249 662 220 638 c 0
 191 614 173 580 173 540 c 0xec
209 377 m 1
 146.653320312 402.671875 92 453.037109375 92 538 c 0
 92 630.59765625 144.088867188 681.704101562 212 710 c 0
 248 725 276 733 321 733 c 0
 367 733 392 725 428 710 c 0
 496.915039062 681.28515625 550 632.05078125 550 538 c 0xec
 550 453.30859375 498.125 402.25 435 377 c 1
 489.776367188 366.044921875 536.60546875 321.303710938 561 276 c 0
 575 250 583 223 583 195 c 0
 583 154 571 117 549 86 c 0
 527 55 501 31 460 14 c 0
 419 -3 376 -11 321 -11 c 0
 267 -11 225 -3 184 14 c 0
 114.689453125 42.73828125 61 104.302734375 61 195 c 0xf2
 61 259.310546875 99.1083984375 310.998046875 137 342 c 0
 159 360 184 372 209 377 c 1
EndSplineSet
Substitution2: "<6,0> Monospaced Numbers in Latin lookup 14 subtable" eight.tf
Substitution2: "<21,0> Lower Case Numbers lookup 10 subtable" eight.osf
Substitution2: "<6,0> Monospaced Numbers lookup 9 subtable" eight.tf
Substitution2: "<11,2> Diagonal Fractions lookup 4 subtable" eight.numr
Substitution2: "<10,1> Superiors lookup 2 subtable" uni2078
Substitution2: "<10,2> Inferiors lookup 1 subtable" eight.subs
EndChar

StartChar: nine
Encoding: 57 57 28
Width: 609
Flags: W
HStem: -11 68<177.297 367.877> 253 68<206.328 373.545> 667 66<210.229 369.885>
VStem: 52 86<390.713 590.162> 474 80<202.833 378>
LayerCount: 2
Fore
SplineSet
138 490 m 0
 138 386.916992188 187.631835938 321 292 321 c 0
 355.233398438 321 401.6953125 355.081054688 430 394 c 0
 446 416 454 441 454 468 c 0
 454 546.053710938 425.396484375 608.770507812 378 641 c 0
 353 658 325 667 291 667 c 0
 189.865234375 667 138 592.104492188 138 490 c 0
124 125 m 1
 152.6953125 85.8701171875 200.166992188 57 273 57 c 0
 380.03125 57 428.951171875 114.34765625 457 202 c 0
 473 252 474 301 474 378 c 1
 457.640625 320.743164062 423.82421875 294.45703125 373 271 c 0
 347 259 318 253 286 253 c 0
 186.505859375 253 119.465820312 295.43359375 82 361 c 0
 62 396 52 437 52 486 c 0
 52 589.48046875 98.58203125 662.672851562 166 702 c 0
 202 723 240 733 291 733 c 0
 414.119140625 733 482.627929688 660.185546875 521 566 c 0
 543 512 554 447 554 371 c 0
 554 219.635742188 512.538085938 96.8134765625 426 35 c 0
 384 5 339 -11 279 -11 c 0
 184.95703125 -11 124.987304688 26.0126953125 86 65 c 0
 79 72 73 80 67 87 c 1
 124 125 l 1
EndSplineSet
Substitution2: "<6,0> Monospaced Numbers in Latin lookup 14 subtable" nine.tf
Substitution2: "<21,0> Lower Case Numbers lookup 10 subtable" nine.osf
Substitution2: "<6,0> Monospaced Numbers lookup 9 subtable" nine.tf
Substitution2: "<11,2> Diagonal Fractions lookup 4 subtable" nine.numr
Substitution2: "<10,1> Superiors lookup 2 subtable" uni2079
Substitution2: "<10,2> Inferiors lookup 1 subtable" nine.subs
EndChar

StartChar: colon
Encoding: 58 58 29
Width: 213
Flags: W
HStem: -5 122<60.9014 149.963> 379 122<60.3887 149.963>
VStem: 44 121<10.2184 99.5893 394.218 485.09>
LayerCount: 2
Fore
SplineSet
104 379 m 0
 71.7818626475 379 44 407.330057383 44 440 c 0
 44 471.092746612 72.8582645571 501 105 501 c 0
 138.282432375 501 165 473.509820653 165 440 c 0
 165 406.786588907 137.207732675 379 104 379 c 0
104 -5 m 0
 71.7818626475 -5 44 23.3300573826 44 56 c 0
 44 85.2233241601 73.9212346886 117 105 117 c 0
 137.218137352 117 165 88.6699426174 165 56 c 0
 165 22.7865889069 137.207732675 -5 104 -5 c 0
EndSplineSet
EndChar

StartChar: semicolon
Encoding: 59 59 30
Width: 230
Flags: W
HStem: 379 121<72.9543 162.323>
VStem: 56 121<393.754 482.869> 60 124<8.03125 96.5893>
LayerCount: 2
Fore
SplineSet
167 491 m 1024x80
116 379 m 0
 82.7175676252 379 56 406.98752643 56 440 c 0
 56 468.727267836 86.4735176803 500 117 500 c 0
 149.75868575 500 177 473.019993106 177 440 c 0xc0
 177 405.952670634 150.27690811 379 116 379 c 0
60 53 m 0xa0
 60 82.2233241601 89.9212346886 114 121 114 c 0
 138 114 151 109 163 97 c 0
 176 83 184 68 184 54 c 0
 183 44 180 36 176 28 c 2
 99 -114 l 1
 54 -114 l 1
 97 0 l 1
 91 0 85 3 78 10 c 0
 66 22 60 36 60 53 c 0xa0
EndSplineSet
EndChar

StartChar: less
Encoding: 60 60 31
Width: 537
Flags: W
LayerCount: 2
Fore
SplineSet
474 223 m 1
 474 148 l 1
 62 310 l 1
 62 384 l 1
 474 548 l 1
 474 471 l 1
 159 346 l 1
 474 223 l 1
EndSplineSet
Substitution2: "'rtla' Right to Left Alternates lookup 0 subtable" greater
EndChar

StartChar: equal
Encoding: 61 61 32
Width: 545
Flags: W
HStem: 209 62<62 483> 429 62<62 483>
LayerCount: 2
Fore
SplineSet
483 272 m 1
 483 210 l 1
 62 209 l 1
 62 271 l 1
 483 272 l 1
483 492 m 1
 483 430 l 1
 62 429 l 1
 62 491 l 1
 483 492 l 1
EndSplineSet
EndChar

StartChar: greater
Encoding: 62 62 33
Width: 536
Flags: W
LayerCount: 2
Fore
SplineSet
64 223 m 1
 378 346 l 1
 62 471 l 1
 62 548 l 1
 474 384 l 1
 474 310 l 1
 64 148 l 1
 64 223 l 1
EndSplineSet
Substitution2: "'rtla' Right to Left Alternates lookup 0 subtable" less
EndChar

StartChar: question
Encoding: 63 63 34
Width: 512
Flags: W
HStem: -11 122<197.901 286.963> 670 63<175.742 345.254>
VStem: 181 121<4.21841 93.5893> 207 69<175 267.932> 396 81<476.019 622.921>
LayerCount: 2
Fore
SplineSet
396 556 m 0xd8
 396 630.658681525 336.206370544 670 259 670 c 0
 206.8418353 670 163.522745701 647.049481501 134 621 c 0
 117 606 105 589 98 571 c 1
 26 594 l 1
 64.4260837768 672.681981067 147.502631606 733 260 733 c 0
 348.744306122 733 413.854550768 701.210093334 450 649 c 0
 468 623 477 592 477 558 c 0
 477 524 471 494 457 469 c 0
 443 444 427 420 407 399 c 2
 347 335 l 2
 309.868237732 296.011649619 276 248.473966767 276 175 c 1
 207 175 l 1
 207 253.961463415 236.854541186 307.989468742 274 351 c 0
 293 373 311 396 330 416 c 0
 349 436 364 458 377 480 c 0
 390 502 396 528 396 556 c 0xd8
241 -11 m 0
 208.781862648 -11 181 17.3300573826 181 50 c 0
 181 79.2233241601 210.921234689 111 242 111 c 0
 275.282432375 111 302 83.5098206533 302 50 c 0xe8
 302 16.7865889069 274.207732675 -11 241 -11 c 0
EndSplineSet
EndChar

StartChar: at
Encoding: 64 64 35
Width: 830
Flags: W
HStem: -110 55<304.893 550.255> 65 60<321.915 437.466> 79 57<559.614 657.098> 404 59<350.473 471.265> 589 55<313.753 557.031>
VStem: 48 62<130.384 380.743> 223 69<155.339 335.671> 540 56<414.2 438> 720 62<213.936 439.497>
LayerCount: 2
Fore
SplineSet
292 242 m 0xdf80
 292 179.023883772 314.190193909 125 373 125 c 0
 423.661603262 125 458.949569318 159.911746306 479 195 c 0
 499.758084917 231.326648604 516.269074759 293.043678757 498 341 c 0
 484.781201333 375.699346501 457.442575267 404 415 404 c 0
 358.836586548 404 324.556263521 365.13503245 307 323 c 0
 297 299 292 272 292 242 c 0xdf80
438 -55 m 0
 523.282466434 -55 570.359342026 -27.0404644521 620 8 c 1
 654 -34 l 1
 598.222621932 -76.7626565188 519.345341802 -110 424 -110 c 0
 242.983603724 -110 123.675760557 -18.1607920292 73 113 c 0
 56 157 48 205 48 255 c 0
 48 372.372099121 94.3722913785 464.611499704 156 528 c 0
 220.541865277 594.385918571 312.850185333 644 439 644 c 0
 590.705919423 644 700.045215872 576.261829049 753 473 c 0
 773 434 782 387 782 332 c 0
 782 231.310909701 747.132840539 153.849630404 690 111 c 0
 662 90 630 79 594 79 c 0xbf80
 545.910957582 79 517.225771628 95.1872221403 507 132 c 0
 506 136 505 138 503 138 c 0
 501 138 499 137 496 133 c 0
 468.707482714 95.9601551113 423.940548933 65 360 65 c 0xdf80
 301.756013652 65 263.526011005 102.94797799 242 146 c 0
 229 172 223 203 223 238 c 0
 223 324.646287004 260.865503513 395.761073938 313 433 c 0
 341 453 374 463 411 463 c 0
 465.978866619 463 503.483720091 436.437210752 524 401 c 0
 525 400 526 399 528 399 c 0
 530 399 530 401 530 404 c 2
 540 438 l 1
 596 438 l 1
 559 214 l 2
 550.548091402 164.978930131 557.052612904 136 598 136 c 0xbf80
 651.557128384 136 685.766621542 180.13321847 703 224 c 0
 714 252 720 287 720 326 c 0
 720 464.682797805 643.473190827 543.038427022 538 575 c 0
 505 585 471 589 438 589 c 0
 329.904791857 589 248.64032965 547.28036497 196 489 c 0
 145.469076305 433.055048767 110 354.179776636 110 254 c 0
 110 106.443487631 187.97618113 11.5458805348 297 -31 c 0
 338 -47 385 -55 438 -55 c 0
EndSplineSet
EndChar

StartChar: A
Encoding: 65 65 36
Width: 706
Flags: W
HStem: 0 21G<45 132.379 572.816 661> 206 74<222 484> 703 20G<300.725 406.248>
LayerCount: 2
Fore
SplineSet
222 280 m 1
 484 280 l 1
 354 645 l 1
 222 280 l 1
45 0 m 1
 308 723 l 1
 399 723 l 1
 661 0 l 1
 580 0 l 1
 506 206 l 1
 201 206 l 1
 125 0 l 1
 45 0 l 1
EndSplineSet
EndChar

StartChar: B
Encoding: 66 66 37
Width: 666
Flags: W
HStem: 0 68<178 458.394> 332 68<178 447.295> 656 67<178 440.425>
VStem: 100 78<68 332 400 656> 512 76<454.465 594.803> 528 78<125.532 268.243>
LayerCount: 2
Fore
SplineSet
512 525 m 0xf8
 512 622.9151918 427.825454878 656 326 656 c 2
 178 656 l 1
 178 400 l 1
 340 400 l 2
 431.88058313 400 512 432.064003952 512 525 c 0xf8
328 68 m 2
 439.301404779 68 528 94.5555639694 528 196 c 0xf4
 528 296.015212561 440.299901521 332 340 332 c 2
 178 332 l 1
 178 68 l 1
 328 68 l 2
606 194 m 0
 606 47.2262141304 488.664643898 0 330 0 c 2
 100 0 l 1
 100 723 l 1
 324 723 l 2
 474.323286716 723 588 673.972348379 588 535 c 0xf8
 588 496 578 463 558 435 c 0
 538 407 502 385 452 368 c 1
 543.04339051 348.490702034 606 301.806001951 606 194 c 0
EndSplineSet
EndChar

StartChar: C
Encoding: 67 67 38
Width: 680
Flags: W
HStem: -10 70<258.45 446.086> 524 21G<526.234 618> 664 69<257.184 448.069>
VStem: 56 86<199.928 522.602> 537 81<542.272 576.006>
LayerCount: 2
Fore
SplineSet
358 733 m 0
 462.577486697 733 541.307529549 682.96680286 584 618 c 0
 600 595 611 570 618 544 c 1
 537 524 l 1
 515.468123768 602.950212849 455.439744513 664 356 664 c 0
 190.785917158 664 142 534.079492268 142 362 c 0
 142 259 160 183 196 134 c 0
 232 85 286 60 356 60 c 0
 430.977625185 60 478.346632127 95.0199481909 509 141 c 0
 521 160 530 180 536 202 c 1
 618 182 l 1
 596.1419707 100.032390123 542.395015023 39.6292248531 467 9 c 0
 435 -4 399 -10 358 -10 c 0
 219.119460093 -10 134.800071253 58.7998337419 91 161 c 0
 67 217 56 284 56 363 c 0
 56 517.31399606 101.648908899 630.484852402 194 690 c 0
 239 719 294 733 358 733 c 0
EndSplineSet
EndChar

StartChar: D
Encoding: 68 68 39
Width: 686
Flags: W
HStem: 0 69<180 383.515> 654 69<180 390.499>
VStem: 100 80<69 654> 548 82<226.728 503.567>
LayerCount: 2
Fore
SplineSet
243 69 m 2
 445.981256336 69 548 158.248959152 548 364 c 0
 548 503.076236211 505.837711805 588.664915278 410 627 c 0
 365 645 311 654 248 654 c 2
 180 654 l 1
 180 69 l 1
 243 69 l 2
630 366 m 0
 630 113.86218671 497.7903213 0 244 0 c 2
 100 0 l 1
 100 723 l 1
 206 723 l 2
 223 723 239 722 254 722 c 0
 502.761019311 719.204932367 630 613.772659491 630 366 c 0
EndSplineSet
EndChar

StartChar: E
Encoding: 69 69 40
Width: 617
Flags: W
HStem: 0 72<178 555> 330 70<178 510> 653 70<178 544>
VStem: 100 78<72 330 400 653>
LayerCount: 2
Fore
SplineSet
100 0 m 1
 100 723 l 1
 544 723 l 1
 544 653 l 1
 178 653 l 1
 178 400 l 1
 510 400 l 1
 510 330 l 1
 178 330 l 1
 178 72 l 1
 555 72 l 1
 555 0 l 1
 100 0 l 1
EndSplineSet
EndChar

StartChar: F
Encoding: 70 70 41
Width: 588
Flags: W
HStem: 0 21G<100 180> 330 69<180 505> 654 69<180 538>
VStem: 100 80<0 330 399 654>
LayerCount: 2
Fore
SplineSet
100 723 m 1
 538 723 l 1
 538 654 l 1
 180 654 l 1
 180 399 l 1
 505 399 l 1
 505 330 l 1
 180 330 l 1
 180 0 l 1
 100 0 l 1
 100 723 l 1
EndSplineSet
EndChar

StartChar: G
Encoding: 71 71 42
Width: 726
Flags: W
HStem: -10 72<263.993 453.691> 0 21G<578 638> 313 59<375 558> 526 21G<541.019 626.095> 662 71<262.736 445.801>
VStem: 56 84<207.68 516.415> 556 82<165.099 313> 578 60<0 114>
LayerCount: 2
Fore
SplineSet
578 114 m 1x7d
 537.208336211 44.9679535881 468.433221778 -10 358 -10 c 0
 220.694810548 -10 135.804404236 58.61490696 92 159 c 0
 68 214 56 281 56 360 c 0
 56 515.304833924 104.062552738 629.778565856 198 689 c 0
 244 718 297 733 360 733 c 0
 430.41926016 733 475.543755405 714.079014382 527 681 c 0
 566.617535657 654.116672233 607.067655052 604.33086237 630 547 c 1
 548 526 l 1
 534.038137555 572.539541482 479.347414986 620.944334294 446 640 c 0
 420 655 392 662 360 662 c 0
 258.844833782 662 198.649201908 608.364715775 167 531 c 0
 149 487 140 430 140 362 c 0
 140 221.950357935 177.574443533 120.966913985 272 79 c 0
 299 67 330 62 362 62 c 0
 428.15701016 62 474.676116206 88.760630732 506 124 c 0
 533.468261866 154.699822085 553.433448898 197.802080168 556 244 c 2xbe
 558 313 l 1
 375 313 l 1
 375 372 l 1
 638 372 l 1
 638 0 l 1
 578 0 l 1
 578 114 l 1x7d
EndSplineSet
EndChar

StartChar: H
Encoding: 72 72 43
Width: 765
Flags: W
HStem: 0 21G<100 178 588 666> 340 70<178 588> 703 20G<100 178 588 666>
VStem: 100 78<0 340 410 723> 588 78<0 340 410 723>
LayerCount: 2
Fore
SplineSet
588 340 m 1
 178 340 l 1
 178 0 l 1
 100 0 l 1
 100 723 l 1
 178 723 l 1
 178 410 l 1
 588 410 l 1
 588 723 l 1
 666 723 l 1
 666 0 l 1
 588 0 l 1
 588 340 l 1
EndSplineSet
EndChar

StartChar: I
Encoding: 73 73 44
Width: 276
Flags: W
HStem: 0 21G<100 178> 703 20G<100 178>
VStem: 100 78<0 723>
LayerCount: 2
Fore
SplineSet
100 723 m 1
 178 723 l 1
 178 0 l 1
 100 0 l 1
 100 723 l 1
EndSplineSet
EndChar

StartChar: J
Encoding: 74 74 45
Width: 385
Flags: W
HStem: -10 76<54.3887 204.566> 703 20G<228 306>
VStem: 228 78<90.2066 723>
LayerCount: 2
Fore
SplineSet
142 66 m 0
 213.887031427 66 228 108.506987173 228 186 c 2
 228 723 l 1
 306 723 l 1
 306 162 l 2
 306 91.093729346 291.441035956 38.2940239704 249 10 c 0
 228 -4 198 -10 160 -10 c 0
 134 -10 110 -7 88 0 c 0
 66 7 52 11 45 14 c 1
 52 90 l 1
 78.5051118594 80.3617775057 102.115284202 66 142 66 c 0
EndSplineSet
EndChar

StartChar: K
Encoding: 75 75 46
Width: 673
Flags: W
HStem: 0 21G<100 180 533.664 635> 703 20G<100 180 503.286 616>
VStem: 100 80<0 234 338 723>
LayerCount: 2
Fore
SplineSet
635 0 m 1
 546 0 l 1
 311 381 l 1
 180 234 l 1
 180 0 l 1
 100 0 l 1
 100 723 l 1
 180 723 l 1
 180 338 l 1
 521 723 l 1
 616 723 l 1
 368 438 l 1
 635 0 l 1
EndSplineSet
EndChar

StartChar: L
Encoding: 76 76 47
Width: 577
Flags: W
HStem: 0 72<180 530> 703 20G<100 180>
VStem: 100 80<72 723>
LayerCount: 2
Fore
SplineSet
100 723 m 1
 180 723 l 1
 180 72 l 1
 530 72 l 1
 530 0 l 1
 100 0 l 1
 100 723 l 1
EndSplineSet
EndChar

StartChar: M
Encoding: 77 77 48
Width: 876
Flags: W
HStem: 0 21G<100 180 390.572 483.42 696 777> 703 20G<100 211.528 665.375 777>
VStem: 100 80<0 587> 696 81<0 593>
LayerCount: 2
Fore
SplineSet
100 0 m 1
 100 723 l 1
 204 723 l 1
 437 104 l 1
 673 723 l 1
 777 723 l 1
 777 0 l 1
 696 0 l 1
 696 593 l 1
 476 0 l 1
 398 0 l 1
 180 587 l 1
 180 0 l 1
 100 0 l 1
EndSplineSet
EndChar

StartChar: N
Encoding: 78 78 49
Width: 746
Flags: W
HStem: 0 21G<100 178 564.441 647> 703 20G<100 185.573 569 647>
VStem: 100 78<0 590> 569 78<138 723>
LayerCount: 2
Fore
SplineSet
569 723 m 1
 647 723 l 1
 647 0 l 1
 578 0 l 1
 178 590 l 1
 178 0 l 1
 100 0 l 1
 100 723 l 1
 172 723 l 1
 569 138 l 1
 569 723 l 1
EndSplineSet
EndChar

StartChar: O
Encoding: 79 79 50
Width: 726
Flags: W
HStem: -10 70<264.325 465.633> 664 69<265.224 463.683>
VStem: 56 86<203.459 518.352> 585 86<202.036 519.443>
LayerCount: 2
Fore
SplineSet
585 359 m 0
 585 532.860184271 530.991970557 664 364 664 c 0
 260.833938161 664 199.633908193 609.084770483 168 530 c 0
 150 485 142 429 142 360 c 0
 142 232.592420164 171.234942432 138.941400271 245 92 c 0
 278 71 317 60 364 60 c 0
 531.385002058 60 585 184.828513916 585 359 c 0
364 -10 m 0
 225.728550129 -10 138.48289193 58.937637755 93 159 c 0
 68 214 56 281 56 360 c 0
 56 516.426720715 105.531115377 630.443529259 200 690 c 0
 246 719 301 733 364 733 c 0
 503.384841002 733 588.178425484 663.807463936 634 563 c 0
 659 508 671 440 671 360 c 0
 671 205.314480826 621.670411441 92.0530854739 528 33 c 0
 482 4 427 -10 364 -10 c 0
EndSplineSet
EndChar

StartChar: P
Encoding: 80 80 51
Width: 632
Flags: W
HStem: 0 21G<100 180> 270 68<180 442.716> 656 67<180 446.251>
VStem: 100 80<0 270 338 656> 526 78<416.933 586.468>
LayerCount: 2
Fore
SplineSet
348 338 m 2
 451.747277783 338 526 398.713039222 526 502 c 0
 526 553 510 591 476 617 c 0
 442 643 397 656 342 656 c 2
 180 656 l 1
 180 338 l 1
 348 338 l 2
100 0 m 1
 100 723 l 1
 338 723 l 2
 443.4621052 723 526.381808418 685.479065817 570 621 c 0
 593 587 604 546 604 497 c 0
 604 394.816189894 553.428050292 329.834339612 482 296 c 0
 444 278 399 270 349 270 c 2
 180 270 l 1
 180 0 l 1
 100 0 l 1
EndSplineSet
EndChar

StartChar: Q
Encoding: 81 81 52
Width: 740
Flags: W
HStem: -120 68<583.488 664> -10 70<263.613 457.105> 664 69<264.228 464.037>
VStem: 56 86<200.81 515.895> 586 85<202.098 518.205>
LayerCount: 2
Fore
SplineSet
450 0 m 1
 421.161991491 -5.40712659537 396.877875247 -10 364 -10 c 0
 226.136551621 -10 139.44037386 57.0311775073 94 157 c 0
 69 212 56 280 56 360 c 0
 56 516.426720715 105.531115377 630.443529259 200 690 c 0
 246 719 301 733 364 733 c 0
 502.977204336 733 588.709439773 664.45085491 634 563 c 0
 659 507 671 440 671 360 c 0
 671 199.742310778 625.222891162 96.2910099459 524 34 c 1
 547.002606256 -17.3135062645 596.724199539 -49.757473318 664 -52 c 1
 664 -120 l 1
 557.032569764 -120 493.239382167 -73.5069496845 450 0 c 1
364 664 m 0
 199.924292013 664 142 536.05508061 142 358 c 0
 142 256 161 180 200 132 c 0
 239 84 293 60 364 60 c 0
 435 60 489 84 528 132 c 0
 567 180 586 257 586 360 c 0
 586 462 567 538 529 588 c 0
 491 638 436 664 364 664 c 0
EndSplineSet
EndChar

StartChar: R
Encoding: 82 82 53
Width: 671
Flags: W
HStem: 0 21G<100 178 512.5 604> 320 67<178 385> 657 66<178 466.583>
VStem: 100 78<0 320 387 657> 524 80<448.33 602.747>
LayerCount: 2
Fore
SplineSet
524 525 m 0
 524 618.189017814 461.338199673 657 366 657 c 2
 178 657 l 1
 178 387 l 1
 342 387 l 2
 448.652402709 387 524 423.330604533 524 525 c 0
604 530 m 0
 604 418.798219526 540.687308303 363.065150714 460 335 c 1
 604 0 l 1
 521 0 l 1
 385 320 l 1
 178 320 l 1
 178 0 l 1
 100 0 l 1
 100 723 l 1
 372 723 l 2
 510.271674833 723 604 665.37226845 604 530 c 0
EndSplineSet
EndChar

StartChar: S
Encoding: 83 83 54
Width: 668
Flags: W
HStem: -10 66<228.184 445.066> 664 68<237.176 441.049>
VStem: 82 82<472.658 600.509> 514 79<565.139 595.425> 524 80<118.719 254.523>
LayerCount: 2
Fore
SplineSet
514 546 m 1xf0
 497.860257484 626.69871258 430.326574427 664 336 664 c 0
 264.181056803 664 206.072784654 636.023733912 179 590 c 0
 169 573 164 553 164 531 c 0
 164 504 174 481 193 464 c 0
 213 446 246 432 294 420 c 2
 436 385 l 2
 538.356927633 359.410768092 604 305.678180878 604 184 c 0
 604 96.8664336864 547.697466472 46.0138599124 481 16 c 0
 441 -2 393 -10 336 -10 c 0
 218.95003123 -10 137.190580507 32.5544745782 88 102 c 0
 79 116 71 132 65 148 c 1
 144 167 l 1
 160.165533675 120.812760928 198.636975967 88.0627015513 243 71 c 0
 269 61 300 56 335 56 c 0
 405.024575746 56 468.107583277 78.1277551409 500 116 c 0
 516 135 524 157 524 182 c 0xe8
 524 263.657806079 466.040942986 294.989764254 398 312 c 2
 252 348 l 2
 157.551391951 370.737627864 82 416.354683478 82 524 c 0
 82 616.234951728 136.38873611 673.794801282 204 705 c 0
 243 723 287 732 336 732 c 0
 470.625694098 732 566.6498707 672.4005172 593 567 c 1
 514 546 l 1xf0
EndSplineSet
EndChar

StartChar: T
Encoding: 84 84 55
Width: 587
Flags: W
HStem: 0 21G<262 340> 650 73<24 262 340 563>
VStem: 262 78<0 650>
LayerCount: 2
Fore
SplineSet
24 650 m 1
 24 723 l 1
 563 723 l 1
 563 650 l 1
 340 650 l 1
 340 0 l 1
 262 0 l 1
 262 650 l 1
 24 650 l 1
EndSplineSet
EndChar

StartChar: U
Encoding: 85 85 56
Width: 694
Flags: W
HStem: -10 70<258.135 457.54> 703 20G<100 181 536 614>
VStem: 100 81<138.286 723> 536 78<137.756 723>
LayerCount: 2
Fore
SplineSet
356 60 m 0
 475.324993903 60 536 120.533388372 536 240 c 2
 536 723 l 1
 614 723 l 1
 614 243 l 2
 614 71.597772466 528.924342781 -10 356 -10 c 0
 178.771869433 -10 100 77.2253450007 100 254 c 2
 100 723 l 1
 181 723 l 1
 181 240 l 2
 181 121.726312936 239.065196392 60 356 60 c 0
EndSplineSet
EndChar

StartChar: V
Encoding: 86 86 57
Width: 656
Flags: W
HStem: 0 21G<270.974 381.137> 703 20G<24 109.055 547.787 632>
LayerCount: 2
Fore
SplineSet
632 723 m 1
 374 0 l 1
 278 0 l 1
 24 723 l 1
 102 723 l 1
 326 88 l 1
 555 723 l 1
 632 723 l 1
EndSplineSet
EndChar

StartChar: W
Encoding: 87 87 58
Width: 949
Flags: W
HStem: 0 21G<225.274 311.719 632.349 720.809> 703 20G<24 109.539 436.328 511.605 840.328 925>
LayerCount: 2
Fore
SplineSet
925 723 m 1
 715 0 l 1
 638 0 l 1
 473 584 l 1
 306 0 l 1
 231 0 l 1
 24 723 l 1
 104 723 l 1
 271 120 l 1
 442 723 l 1
 506 723 l 1
 675 120 l 1
 846 723 l 1
 925 723 l 1
EndSplineSet
EndChar

StartChar: X
Encoding: 88 88 59
Width: 680
Flags: W
HStem: 0 21G<45 145.117 525.688 636> 703 20G<54 163.24 514.899 615>
LayerCount: 2
Fore
SplineSet
636 0 m 1
 539 0 l 1
 334 308 l 1
 132 0 l 1
 45 0 l 1
 292 370 l 1
 54 723 l 1
 150 723 l 1
 340 436 l 1
 528 723 l 1
 615 723 l 1
 382 376 l 1
 636 0 l 1
EndSplineSet
EndChar

StartChar: Y
Encoding: 89 89 60
Width: 591
Flags: W
HStem: 0 21G<258 336> 703 20G<12 109.603 481.571 578>
VStem: 258 78<0 308>
LayerCount: 2
Fore
SplineSet
578 723 m 1
 336 308 l 1
 336 0 l 1
 258 0 l 1
 258 310 l 1
 12 723 l 1
 98 723 l 1
 297 380 l 1
 493 723 l 1
 578 723 l 1
EndSplineSet
EndChar

StartChar: Z
Encoding: 90 90 61
Width: 628
Flags: W
HStem: 0 70<172 576> 654 69<81 470>
LayerCount: 2
Fore
SplineSet
66 0 m 1
 66 46 l 1
 470 654 l 1
 81 654 l 1
 81 723 l 1
 578 723 l 1
 578 680 l 1
 172 70 l 1
 576 70 l 1
 576 0 l 1
 66 0 l 1
EndSplineSet
EndChar

StartChar: bracketleft
Encoding: 91 91 62
Width: 294
Flags: W
HStem: -161 53<164 268> 670 53<165 269>
VStem: 94 174<-161 -108 670 723> 94 70<-108 670>
LayerCount: 2
Fore
SplineSet
94 723 m 1xe0
 269 723 l 1
 269 670 l 1
 165 670 l 1
 164 -108 l 1xd0
 268 -108 l 1
 268 -161 l 1
 94 -161 l 1
 94 723 l 1xe0
EndSplineSet
Substitution2: "'rtla' Right to Left Alternates lookup 0 subtable" bracketright
EndChar

StartChar: backslash
Encoding: 92 92 63
Width: 342
Flags: W
HStem: 703 20G<12 82.5189>
VStem: 12 314
LayerCount: 2
Fore
SplineSet
262 -44 m 1
 12 723 l 1
 76 723 l 1
 326 -44 l 1
 262 -44 l 1
EndSplineSet
EndChar

StartChar: bracketright
Encoding: 93 93 64
Width: 309
Flags: W
LayerCount: 2
Fore
SplineSet
197 723 m 1
 22 723 l 1
 22 670 l 1
 126 670 l 1
 127 -108 l 1
 23 -108 l 1
 23 -161 l 1
 196 -161 l 1
 197 723 l 1
EndSplineSet
Substitution2: "'rtla' Right to Left Alternates lookup 0 subtable" bracketleft
EndChar

StartChar: asciicircum
Encoding: 94 94 65
Width: 470
Flags: W
LayerCount: 2
Fore
SplineSet
352 130 m 1
 232 432 l 1
 112 132 l 1
 48 132 l 1
 194 491 l 2
 201.621026029 510.052565072 219.495587425 536.252206287 246 523 c 0
 256 518 264 508 271 492 c 2
 419 130 l 1
 352 130 l 1
EndSplineSet
EndChar

StartChar: underscore
Encoding: 95 95 66
Width: 508
Flags: W
HStem: -113 63<62 444>
LayerCount: 2
Fore
SplineSet
444 -49 m 1
 444 -112 l 1
 62 -113 l 1
 62 -50 l 1
 444 -49 l 1
EndSplineSet
EndChar

StartChar: grave
Encoding: 96 96 67
Width: 206
Flags: W
HStem: 578 145
LayerCount: 2
Fore
SplineSet
98 723 m 1
 5 723 l 1
 139 578 l 1
 201 578 l 1
 98 723 l 1
EndSplineSet
EndChar

StartChar: a
Encoding: 97 97 68
Width: 568
Flags: W
HStem: -10 58<168.045 320.158 440.5 532.18> 467 60<195.233 360.533>
VStem: 53 76<84.566 211.296> 402 74<46.123 100 115.541 271 324 425.888>
LayerCount: 2
Fore
SplineSet
129 145 m 0
 129 82.2198529542 179.649325137 48 244 48 c 0
 263 48 281 52 299 59 c 0
 334.792906075 72.9194634735 367.96069836 95.3833085607 387 125 c 0
 397 140 402 155 402 169 c 2
 402 271 l 1
 318 264 l 2
 248.729977188 258.931461745 181.678875432 247.347286208 149 210 c 0
 135 194 129 172 129 145 c 0
404 100 m 1
 368.76658591 31.2109534432 314.095284119 -10 222 -10 c 0
 123.283877647 -10 53 40.1341977629 53 138 c 0
 53 195 72 238 111 266 c 0
 148 292 213 309 302 316 c 2
 402 324 l 1
 402 356 l 2
 402 430.243946675 354.876554719 467 276 467 c 0
 214.648576877 467 169.771920112 440.219270321 153 392 c 1
 83 409 l 1
 106.562721904 489.113254472 175.413781364 527 280 527 c 0
 360.600204296 527 430.368258499 501.411823138 454 452 c 0
 469 421 476 391 476 360 c 2
 476 92 l 2
 476 59 487 43 507 43 c 0
 513 43 522 45 533 50 c 1
 533 0 l 1
 509 -7 484 -10 458 -10 c 0
 423 -9 405 15 404 63 c 2
 404 100 l 1
EndSplineSet
EndChar

StartChar: b
Encoding: 98 98 69
Width: 592
Flags: W
HStem: -10 62<228.691 390.224> 0 21G<80 143.509> 464 63<235.64 393.807>
VStem: 80 79<126.801 387.301 432 748> 80 62<0 92.75> 466 79<137.234 381.224>
LayerCount: 2
Fore
SplineSet
159 266 m 0xb4
 159 131.076994773 188.434724631 52 314 52 c 0
 359 52 396 70 424 104 c 0
 452 138 466 192 466 266 c 0
 466 380.188404592 421.629443358 464 312 464 c 0
 196.723594964 464 159 381.949860009 159 266 c 0xb4
332 527 m 0
 477.957539694 527 545 416.563842005 545 260 c 0
 545 151.031032909 512.550292739 68.3783262578 448 24 c 0
 416 2 376 -10 327 -10 c 0xb4
 229.195921876 -10 173.547131222 35.3586063326 150 106 c 1
 142 0 l 1
 80 0 l 1x6c
 80 748 l 1
 159 748 l 1
 159 432 l 1
 178.113159044 470.226318087 217.060392877 501.271137507 262 517 c 0
 282 524 306 527 332 527 c 0
EndSplineSet
EndChar

StartChar: c
Encoding: 99 99 70
Width: 517
Flags: W
HStem: -10 62<204.095 364.946> 462 65<200.669 363.919>
VStem: 48 76<140.638 374.25>
LayerCount: 2
Fore
SplineSet
284 52 m 0
 350.834033787 52 394.042757891 84.6175842003 412 134 c 1
 479 118 l 1
 463.158993929 67.8368141089 423.864864398 30.5601116269 378 10 c 0
 349 -3 317 -10 282 -10 c 0
 180.022980465 -10 113.054954072 37.8900918554 77 110 c 0
 57 150 48 198 48 257 c 0
 48 369.063454049 85.4585373249 447.958467385 154 493 c 0
 189 516 231 527 282 527 c 0
 384.701606004 527 451.736181387 473.896624607 479 396 c 1
 411 378 l 1
 393.933391342 429.199825973 350.558584011 462 283 462 c 0
 173.537476029 462 124 378.269698299 124 258 c 0
 124 141.888354009 171.276063177 52 284 52 c 0
EndSplineSet
EndChar

StartChar: d
Encoding: 100 100 71
Width: 592
Flags: W
HStem: -10 62<201.074 364.59> 0 21G<449.491 512> 464 63<200.489 357.091>
VStem: 48 79<138.049 384.536> 434 78<127.317 387.587 432 748> 451 61<0 92.75>
LayerCount: 2
Fore
SplineSet
127 266 m 0xb8
 127 147.885644588 167.199559545 52 278 52 c 0
 335 52 374 68 398 102 c 0
 422 136 434 191 434 266 c 0
 434 382.6155406 396.002161766 464 280 464 c 0
 234 464 197 448 169 416 c 0
 141 384 127 335 127 266 c 0xb8
443 106 m 1
 419.68463375 36.0539012489 362.864757495 -10 266 -10 c 0
 115.757653589 -10 48 99.7832957887 48 260 c 0
 48 413.41415008 108.851680681 527 260 527 c 0
 332.477545913 527 383.168009729 498.905765887 415 460 c 0
 424 449 430 440 434 432 c 1
 434 748 l 1
 512 748 l 1xb8
 512 0 l 1
 451 0 l 1x74
 443 106 l 1
EndSplineSet
EndChar

StartChar: e
Encoding: 101 101 72
Width: 561
Flags: W
HStem: -10 62<207.587 377.15> 240 56<132 432> 466 61<204.181 364.377>
VStem: 52 80<134.874 240 296 383.06> 432 76<296 392.877>
LayerCount: 2
Fore
SplineSet
132 296 m 1
 432 296 l 1
 432 395.148814757 384.862165491 466 285 466 c 0
 213.182603798 466 169.478293971 426.766876658 148 376 c 0
 137 350 132 324 132 296 c 1
286 527 m 0
 436.259392242 527 508 423.706883435 508 272 c 2
 508 240 l 1
 132 240 l 1
 132 132.717362005 183.194141941 52 291 52 c 0
 354.892913613 52 407.636520175 79.0799955023 425 129 c 1
 494 112 l 1
 466.82262826 38.2328481352 389.726077921 -10 292 -10 c 0
 188.193459799 -10 119.85453791 40.1336510747 83 112 c 0
 63 151 52 199 52 254 c 0
 52 364.712211375 91.4117123451 449.887362045 160 493 c 0
 195 515 237 527 286 527 c 0
EndSplineSet
EndChar

StartChar: f
Encoding: 102 102 73
Width: 407
Flags: W
HStem: 0 21G<158 236> 458 59<44 158 236 366> 671 57<244.025 370>
VStem: 158 78<0 458 517 663.223>
LayerCount: 2
Fore
SplineSet
291 671 m 2
 245.885373885 671 234 645.829118339 234 600 c 2
 234 517 l 1
 366 517 l 1
 366 458 l 1
 236 458 l 1
 236 0 l 1
 158 0 l 1
 158 458 l 1
 44 458 l 1
 44 517 l 1
 158 517 l 1
 158 604 l 2
 158 685.01894422 197.983466956 728 279 728 c 2
 370 728 l 1
 370 671 l 1
 291 671 l 2
EndSplineSet
EndChar

StartChar: g
Encoding: 103 103 74
Width: 619
Flags: W
HStem: -171 53<171.992 419.14> 200 53<204.371 383.051> 454 78<539.611 575> 473 52<206.619 381.126>
VStem: 42 78<-75.4261 29.9025> 81 78<295.26 428.146> 88 75<141.02 186.774> 428 75<295.508 429.589> 465 76<-78.3476 26.5596>
LayerCount: 2
Fore
SplineSet
159 361 m 0xd5
 159 285.646278424 215.886643436 253 295 253 c 0
 370.944648682 253 428 286.694924151 428 361 c 0
 428 436.804997728 372.10266072 473 295 473 c 0
 216.348735534 473 159 438.197442755 159 361 c 0xd5
307 -118 m 0
 387.932526655 -118 465 -96.791712781 465 -24 c 0
 465 28.7836227488 421.664507495 51.6263934851 366 55 c 2
 214 65 l 2
 182.532603313 67.6222830572 149.556547353 43.3791662946 135 23 c 0
 125 9 120 -7 120 -24 c 0xc880
 120 -53 135 -76 165 -93 c 0
 195 -110 243 -118 307 -118 c 0
484 436 m 1
 494.43748178 416.864616737 503 389.233656372 503 362 c 0
 503 290.154066214 463.925509363 245.353455841 410 221 c 0
 379 207 339 200 292 200 c 0
 283.666666667 200 275.333333333 200 267 200 c 0
 227 199 200 195 185 187 c 0
 170 179 163 171 163 162 c 0xe3
 163 152 170 145 185 141 c 0
 229.108015762 129.237862463 317.560470667 128.953294111 377 124 c 0
 469.537202632 118.661315233 541 78.2671425181 541 -14 c 0
 541 -60 521 -98 480 -127 c 0
 439 -156 376 -171 292 -171 c 0
 214 -171 152 -160 108 -136 c 0
 64 -112 42 -78 42 -33 c 0xe880
 42 24.7479763431 82.3811997652 50.6287198591 118 72 c 0
 128 78 136 81 139 84 c 1
 117.525378823 98.3164141178 88 109.559938185 88 146 c 0xe2
 88 162 95 176 110 189 c 0
 125 202 147 212 176 219 c 1
 126.300945987 244.706407248 81 291.248554678 81 361 c 0
 81 435.448760246 124.440347018 482.324985189 182 505 c 0
 215 518 254 525 301 525 c 0xd4
 368.552444733 525 409.746491727 508.440131204 449 479 c 1
 454 481 462 485 473 490 c 0
 503.226117669 503.739144395 546.738409219 517.869204609 575 532 c 1
 575 454 l 1xe4
 484 436 l 1
EndSplineSet
EndChar

StartChar: h
Encoding: 104 104 75
Width: 572
Flags: W
HStem: 0 21G<80 158 423 501> 460 64<221.525 381.847>
VStem: 80 78<0 412.37 441 748> 423 78<0 420.7>
LayerCount: 2
Fore
SplineSet
423 356 m 2
 423 424.317942533 370.736328248 460 301 460 c 0
 249.571846305 460 201.8788662 440.389373784 178 411 c 0
 165 395 158 374 158 349 c 2
 158 0 l 1
 80 0 l 1
 80 748 l 1
 156 748 l 1
 156 441 l 1
 185.39723466 489.995391101 240.288857611 524 320 524 c 0
 391.16612973 524 446.948631278 497.198842538 477 454 c 0
 493 431 501 405 501 374 c 2
 501 0 l 1
 423 0 l 1
 423 356 l 2
EndSplineSet
EndChar

StartChar: i
Encoding: 105 105 76
Width: 268
Flags: W
HStem: 0 21G<102 178> 459 58<32 102> 629 103<99.4906 179.905>
VStem: 88 102<638.521 720.677> 102 76<0 459>
LayerCount: 2
Fore
SplineSet
178 517 m 1xe8
 178 0 l 1
 102 0 l 1
 102 459 l 1
 32 459 l 1
 32 517 l 1
 178 517 l 1xe8
139 629 m 0
 111.234470993 629 88 652.235296196 88 680 c 0
 88 705.343704446 112.819340843 732 139 732 c 0
 167.292890483 732 190 708.260798505 190 680 c 0xf0
 190 652.234470993 166.764703804 629 139 629 c 0
EndSplineSet
EndChar

StartChar: j
Encoding: 106 106 77
Width: 255
Flags: W
HStem: -161 58<-14 77.6314> 497 20G<94 172> 629 103<94.4906 174.905>
VStem: 83 102<638.521 720.677> 94 78<-85.8827 517>
LayerCount: 2
Fore
SplineSet
172 -31 m 2xe8
 172 -126.692647574 138.003392308 -166 40 -166 c 0
 11 -166 -7 -165 -14 -161 c 2
 -24 -155 l 1
 -25 -103 l 1
 29 -101 l 2
 77.5783071462 -96.9518077378 94 -79.7147249095 94 -27 c 2
 94 517 l 1
 172 517 l 1
 172 -31 l 2xe8
134 629 m 0
 106.234470993 629 83 652.235296196 83 680 c 0
 83 705.343704446 107.819340843 732 134 732 c 0
 162.292890483 732 185 708.260798505 185 680 c 0xf0
 185 652.234470993 161.764703804 629 134 629 c 0
EndSplineSet
EndChar

StartChar: k
Encoding: 107 107 78
Width: 559
Flags: W
HStem: 0 21G<80 158 424.556 522> 497 20G<396.033 507>
VStem: 80 78<0 155 246 743>
LayerCount: 2
Fore
SplineSet
522 0 m 1
 437 0 l 1
 269 270 l 1
 158 155 l 1
 158 0 l 1
 80 0 l 1
 80 743 l 1
 158 743 l 1
 158 246 l 1
 415 517 l 1
 507 517 l 1
 321 322 l 1
 522 0 l 1
EndSplineSet
EndChar

StartChar: l
Encoding: 108 108 79
Width: 290
Flags: W
HStem: -6 59<174.053 243.442> 2 50<201.696 244>
VStem: 80 77<69.1546 748>
LayerCount: 2
Fore
SplineSet
244 2 m 1x60
 232.168600359 -1.38039989735 215.828822689 -6 201 -6 c 0
 112.932513579 -6 80 43.5424586693 80 130 c 2
 80 748 l 1
 157 748 l 1
 157 136 l 2
 157 89.1972229113 174.045038995 53 215 53 c 2xa0
 244 52 l 1
 244 2 l 1x60
EndSplineSet
EndChar

StartChar: m
Encoding: 109 109 80
Width: 856
Flags: W
HStem: 0 21G<80 158 393 471 707 785> 460 67<217.904 351.204 526.624 666.261> 497 20G<80 155>
VStem: 80 78<0 415.504 442 517> 393 78<0 417.019> 707 78<0 416.773>
LayerCount: 2
Fore
SplineSet
459 442 m 1xdc
 488.51829688 489.967232431 542.448737945 527 617 527 c 0
 729.55912042 527 785 454.721936706 785 338 c 2
 785 0 l 1
 707 0 l 1
 707 330 l 2
 707 390.688881128 689.54680743 431.71602047 650 448 c 0
 633 455 614 460 595 460 c 0
 550.8024197 460 514.244957948 442.565666227 491 416 c 0
 477 400 471 378 471 350 c 2
 471 0 l 1
 393 0 l 1
 393 362 l 2
 393 407.409292267 365.440837157 434.642008229 333 448 c 0
 316 455 299 460 282 460 c 0xdc
 237.758333894 460 198.875309909 439.923458349 177 413 c 0
 164 397 158 376 158 350 c 2
 158 0 l 1
 80 0 l 1
 80 517 l 1
 155 517 l 1xbc
 155 442 l 1
 184.234396632 490.027937323 229.852359938 527 309 527 c 0
 380.66876463 527 435.166682437 492.314781521 459 442 c 1xdc
EndSplineSet
EndChar

StartChar: n
Encoding: 110 110 81
Width: 572
Flags: W
HStem: 0 21G<80 158 424 502> 460 65<221.262 375.995> 497 20G<80 155>
VStem: 80 78<0 412.423 442 517> 424 78<0 412.117>
LayerCount: 2
Fore
SplineSet
424 330 m 2xd8
 424 411.896522866 380.443537939 460 302 460 c 0xd8
 248.144922093 460 202.81141332 441.537124087 178 411 c 0
 165 395 158 375 158 350 c 2
 158 0 l 1
 80 0 l 1
 80 517 l 1
 155 517 l 1xb8
 155 442 l 1
 184.564698562 491.274497603 239.974954538 525 320 525 c 0
 433.881118268 525 502 454.738879371 502 338 c 2
 502 0 l 1
 424 0 l 1
 424 330 l 2xd8
EndSplineSet
EndChar

StartChar: o
Encoding: 111 111 82
Width: 560
Flags: W
HStem: -10 63<201.606 360.552> 464 63<200.203 359.776>
VStem: 48 78<139.938 378.548> 435 77<139.133 378.388>
LayerCount: 2
Fore
SplineSet
126 259 m 0
 126 143.924583213 167.597829667 53 282 53 c 0
 392.959111498 53 435 144.65361669 435 259 c 0
 435 371.547203095 393.679651225 464 282 464 c 0
 168.640556242 464 126 375.390991886 126 259 c 0
48 256 m 0
 48 416.116343096 123.108430106 527 282 527 c 0
 383.677768231 527 449.438492611 477.761068187 484 405 c 0
 503 365 512 315 512 256 c 0
 512 148.914834654 474.900123098 66.6412561222 409 24 c 0
 375 2 332 -10 281 -10 c 0
 123.891083952 -10 48 95.5126729635 48 256 c 0
EndSplineSet
EndChar

StartChar: p
Encoding: 112 112 83
Width: 591
Flags: W
HStem: -161 21G<80 158> -10 62<236.925 390.475> 464 63<239.279 391.203> 497 20G<80 158.211>
VStem: 80 78<-161 98 146.318 375.872 422 517> 467 77<139.101 378.823>
LayerCount: 2
Fore
SplineSet
313 464 m 0xec
 204.243281506 464 158 375.126888496 158 263 c 0
 158 181.300028895 182.835424395 117.309866804 228 80 c 0
 251 61 279 52 313 52 c 0
 359 52 396 70 424 104 c 0
 452 138 467 191 467 263 c 0
 467 376.130640079 422.072300257 464 313 464 c 0xec
159 422 m 1
 188.026130351 480.052260703 242.228507701 527 331 527 c 0xec
 479.506204598 527 544 419.351433421 544 266 c 0
 544 152.890311713 509.967327588 68.3525377169 444 23 c 0
 412 1 373 -10 326 -10 c 0
 252.297181323 -10 211.005816667 21.6589111103 180 63 c 0
 171 75 163 87 158 98 c 1
 158 -161 l 1
 80 -161 l 1
 80 517 l 1
 158 517 l 1xdc
 159 422 l 1
EndSplineSet
EndChar

StartChar: q
Encoding: 113 113 84
Width: 591
Flags: W
HStem: -170 50<511.999 560.974> -10 63<199.87 354.815> 465 62<200.786 352.321> 497 20G<433.579 511.032>
VStem: 48 76<140.798 381.773> 434 77<-104 98 147.957 375.823 422 517>
LayerCount: 2
Fore
SplineSet
124 263 m 0xec
 124 146.208393016 166.873751385 53 278 53 c 0
 353.646650456 53 394.32244159 98.1931775743 416 156 c 0
 428 188 434 224 434 263 c 0
 434 374.295620112 385.906102477 465 278 465 c 0
 233 465 196 448 167 415 c 0
 138 382 124 331 124 263 c 0xec
48 266 m 0
 48 418.210168804 109.880971894 527 260 527 c 0xec
 311.045183718 527 347.65652371 512.269874228 376 490 c 0
 400.352857871 470.865611673 418.851128513 448.297742974 432 422 c 1
 434 517 l 1
 511 517 l 1xdc
 512 -104 l 1
 512 -104 511 -116 525 -120 c 0
 537 -120 549 -120 561 -120 c 1
 561 -158 l 1
 561 -158 525 -170 491 -170 c 0
 433 -170 432 -110 432 -110 c 1
 433 98 l 1
 406.309825573 39.2816162613 352.661114849 -10 266 -10 c 0
 168.505487672 -10 109.345453316 38.0440217916 76 110 c 0
 57 151 48 202 48 266 c 0
EndSplineSet
EndChar

StartChar: r
Encoding: 114 114 85
Width: 382
Flags: W
HStem: 0 21G<80 158> 450 77<220.567 347.559> 497 20G<80 154>
VStem: 80 78<0 405.511 424 517>
LayerCount: 2
Fore
SplineSet
348 444 m 1xd0
 339.721487342 448.967107595 316.750403946 450 304 450 c 0xd0
 219.263898257 454.707561208 158 416.926826946 158 332 c 2
 158 0 l 1
 80 0 l 1
 80 517 l 1
 154 517 l 1xb0
 154 424 l 1
 176.282797732 483.420793953 226.373228821 527 304 527 c 0
 318.272645086 527 338.759188038 525.544487177 348 520 c 1
 348 444 l 1xd0
EndSplineSet
EndChar

StartChar: s
Encoding: 115 115 86
Width: 508
Flags: W
HStem: -10 60<166.47 343.493> 467 60<172.974 339.143>
VStem: 66 72<333.955 435.542> 380 72<82.9867 190.731>
LayerCount: 2
Fore
SplineSet
452 142 m 0
 452 33.8478893336 367.330601436 -10 256 -10 c 0
 149.206889231 -10 78.0729016409 30.7917095974 50 111 c 1
 120 129 l 1
 139.778701925 77.5753749957 184.169189631 50 256 50 c 0
 321.476087427 50 380 74.6904784755 380 137 c 0
 380 184.071012327 351.762656688 202.559335828 310 213 c 2
 199 241 l 2
 158 251 126 267 102 288 c 0
 78 309 66 338 66 375 c 0
 66 480.906115706 149.695976385 527 259 527 c 0
 351.922014536 527 421.503545436 492.111704614 441 419 c 1
 371 402 l 1
 355.836291979 444.963839393 318.029143969 467 259 467 c 0
 193.253402971 467 138 443.128949569 138 379 c 0
 138 359 146 344 161 333 c 0
 176 322 198 312 226 305 c 2
 335 276 l 2
 391.061911452 261.375153534 430.989959781 233.535140765 446 181 c 0
 450 167 452 155 452 142 c 0
EndSplineSet
EndChar

StartChar: t
Encoding: 116 116 87
Width: 397
Flags: W
HStem: -2 62<226.17 340.136> 6 54<269.332 341> 458 60<58 142 220 338>
VStem: 142 78<68.3414 458 518 686>
LayerCount: 2
Fore
SplineSet
268 -2 m 0xb0
 177.665495477 -2 142 33.6435135093 142 122 c 2
 142 458 l 1
 58 458 l 1
 58 517 l 1
 144 517 l 1
 144 686 l 1
 220 686 l 1
 220 518 l 1
 338 518 l 1
 338 458 l 1
 220 458 l 1
 220 125 l 2
 220 92.0401608204 223.003038276 68.7993923447 247 64 c 0
 257 62 270 60 288 60 c 2xb0
 341 60 l 1
 341 6 l 1x70
 322.682889207 -0.105703597525 296.451243466 -2 268 -2 c 0xb0
EndSplineSet
EndChar

StartChar: u
Encoding: 117 117 88
Width: 568
Flags: W
HStem: -10 63<199.811 363.054> 0 21G<432.367 496> 497 20G<72 150 419 496>
VStem: 72 78<99.4355 517> 419 77<103.539 517> 434 62<0 85.75>
LayerCount: 2
Fore
SplineSet
426 98 m 1x74
 409.46927185 29.12196604 354.164626253 -10 270 -10 c 0
 179.877724236 -10 115.553295028 28.1827509383 87 91 c 0
 77 113 72 139 72 168 c 2
 72 517 l 1
 150 517 l 1
 150 175 l 2
 150 95.0302064358 199.502412148 53 284 53 c 0
 366.669388278 53 419 96.8922353345 419 181 c 2
 419 517 l 1
 496 517 l 1xb8
 496 0 l 1
 434 0 l 1
 426 98 l 1x74
EndSplineSet
EndChar

StartChar: v
Encoding: 118 118 89
Width: 498
Flags: W
HStem: 0 21G<202.882 296.118> 497 20G<26 106.841 393.064 473>
LayerCount: 2
Fore
SplineSet
473 517 m 1
 289 0 l 1
 210 0 l 1
 26 517 l 1
 100 517 l 1
 244 96 l 1
 254 96 l 1
 400 517 l 1
 473 517 l 1
EndSplineSet
EndChar

StartChar: w
Encoding: 119 119 90
Width: 783
Flags: W
HStem: 0 21G<183.888 279.85 507.85 603.957> 497 20G<32 111.933 356.115 428.139 672.293 752>
LayerCount: 2
Fore
SplineSet
752 517 m 1
 598 0 l 1
 514 0 l 1
 391 400 l 1
 274 0 l 1
 190 0 l 1
 32 517 l 1
 106 517 l 1
 230 99 l 1
 239 99 l 1
 362 517 l 1
 422 517 l 1
 550 100 l 1
 559 100 l 1
 678 517 l 1
 752 517 l 1
EndSplineSet
EndChar

StartChar: x
Encoding: 120 120 91
Width: 556
Flags: W
HStem: 0 21G<34 136.717 421.094 522> 497 20G<50 151.764 405.131 507>
LayerCount: 2
Fore
SplineSet
522 0 m 1
 436 0 l 1
 278 212 l 1
 122 0 l 1
 34 0 l 1
 234 268 l 1
 50 517 l 1
 137 517 l 1
 278 326 l 1
 420 517 l 1
 507 517 l 1
 323 268 l 1
 522 0 l 1
EndSplineSet
EndChar

StartChar: y
Encoding: 121 121 92
Width: 526
Flags: W
HStem: -165 62<48.25 181.65> -154 51<48 64> 497 20G<26 112.74 416.404 500>
LayerCount: 2
Fore
SplineSet
123 -165 m 0xa0
 94 -165 74 -163 64 -159 c 2
 48 -154 l 1
 48 -103 l 1x60
 102 -103 l 2
 146.117367492 -105.450964861 180.72114127 -92.7380027783 196 -66 c 0
 200 -59 205 -51 208 -44 c 2
 228 10 l 1
 26 517 l 1
 105 517 l 1
 266 101 l 1
 424 517 l 1
 500 517 l 1
 280 -48 l 2
 252.538408475 -116.653978812 213.028853953 -165 123 -165 c 0xa0
EndSplineSet
EndChar

StartChar: z
Encoding: 122 122 93
Width: 472
Flags: W
HStem: 0 59<132 436> 458 59<52 342>
LayerCount: 2
Fore
SplineSet
40 0 m 1
 40 52 l 1
 342 458 l 1
 52 458 l 1
 52 517 l 1
 434 517 l 1
 434 466 l 1
 132 59 l 1
 436 59 l 1
 436 0 l 1
 40 0 l 1
EndSplineSet
EndChar

StartChar: braceleft
Encoding: 123 123 94
Width: 312
Flags: W
HStem: -161 53<198.132 287> 257 51<8 82.0559> 670 53<198.181 287>
VStem: 120 71<-99.5308 221.063 344.791 660.924>
LayerCount: 2
Fore
SplineSet
8 308 m 1
 77.2639317626 309.77599825 120 344.287191559 120 410 c 2
 120 625 l 2
 120 690.73357944 175.753786793 723 243 723 c 2
 287 723 l 1
 287 670 l 1
 253 670 l 2
 212.675338741 670 191 657.543036594 191 619 c 2
 191 403 l 2
 191 334.241436391 154.605831868 294.450728983 95 287 c 0
 91 287 89 285 89 283 c 0
 89 281 91 281 95 280 c 0
 132.538196901 277.653862694 161.381511214 256.766202286 177 229 c 0
 186 213 191 191 191 164 c 2
 191 -54 l 2
 191 -94.3169040547 210.337387148 -108 254 -108 c 2
 287 -108 l 1
 287 -161 l 1
 244 -161 l 2
 174.54427547 -161 120 -127.773534195 120 -60 c 2
 120 160 l 2
 120 220.615892699 71.7259607864 257 8 257 c 1
 8 308 l 1
EndSplineSet
Substitution2: "'rtla' Right to Left Alternates lookup 0 subtable" braceright
EndChar

StartChar: bar
Encoding: 124 124 95
Width: 262
Flags: W
HStem: -161 21G<100 162>
VStem: 100 62<-161 826>
LayerCount: 2
Fore
SplineSet
162 -161 m 1
 100 -161 l 1
 100 826 l 1
 162 826 l 1
 162 -161 l 1
EndSplineSet
EndChar

StartChar: braceright
Encoding: 125 125 96
Width: 318
Flags: W
HStem: -161 53<54 109.868> 257 51<225.944 300> 670 53<55 109.819>
VStem: 117 71<-99.5308 -54 160 221.063 344.791 410 619 660.924>
LayerCount: 2
Fore
SplineSet
300 308 m 1
 230.736068237 309.77599825 188 344.287191559 188 410 c 2
 188 625 l 2
 188 690.73357944 132.246213207 723 65 723 c 2
 21 723 l 1
 21 670 l 1
 55 670 l 2
 95.3246612593 670 117 657.543036594 117 619 c 2
 117 403 l 2
 117 334.241436391 153.394168132 294.450728983 213 287 c 0
 217 287 219 285 219 283 c 0
 219 281 217 281 213 280 c 0
 175.461803099 277.653862694 146.618488786 256.766202286 131 229 c 0
 122 213 117 191 117 164 c 2
 117 -54 l 2
 117 -94.3169040547 97.6626128515 -108 54 -108 c 2
 21 -108 l 1
 21 -161 l 1
 64 -161 l 2
 133.45572453 -161 188 -127.773534195 188 -60 c 2
 188 160 l 2
 188 220.615892699 236.274039214 257 300 257 c 1
 300 308 l 1
EndSplineSet
Substitution2: "'rtla' Right to Left Alternates lookup 0 subtable" braceleft
EndChar

StartChar: asciitilde
Encoding: 126 126 97
Width: 556
Flags: W
HStem: 312 56<290.481 439.198> 362 56<118.013 273.321>
LayerCount: 2
Fore
SplineSet
59 356 m 1x40
 91.1278093961 388.127809396 125.817518763 418 188 418 c 0x40
 228.370881785 418 254.676493526 405.138645632 283 393 c 0
 309.55599042 381.618861248 336.102697513 368 372 368 c 0
 397 368 418 374 433 385 c 0
 448 396 461 407 471 420 c 1
 495 372 l 1
 472.119901616 338.719856897 430.689655551 312 373 312 c 0x80
 295.289635079 312 265.154454306 362 189 362 c 0
 136.67685278 362 108.0705757 335.0705757 82 309 c 1
 59 356 l 1x40
EndSplineSet
EndChar

StartChar: exclamdown
Encoding: 161 161 99
Width: 241
Flags: W
HStem: -161 21G<72 168> 404 120<75.8494 165.601>
VStem: 60 120<417.739 507.714> 72 96<-161 -0.318182> 93 53<183.318 344>
LayerCount: 2
Fore
SplineSet
168 -161 m 1xd0
 72 -161 l 1xd0
 93 344 l 1
 146 344 l 1xc8
 168 -161 l 1xd0
120 404 m 0
 87.2413142501 404 60 430.980006894 60 464 c 0
 60 495.141245169 90.4794265676 524 120 524 c 0
 152.75868575 524 180 496.745291291 180 464 c 0xe0
 180 430.978149541 153.827464339 404 120 404 c 0
EndSplineSet
EndChar

StartChar: cent
Encoding: 162 162 100
Width: 538
Flags: W
HStem: 0 21G<256 316> 102.594 59.4061<209.411 256 316 366.362> 574 149<256.423 313.868>
VStem: 52 77<252.701 487.696> 256 60<0 105.153 633.804 723> 422 70<213.481 264 471 520.022>
LayerCount: 2
Fore
SplineSet
289 162 m 0
 359.856016246 162 412.428476588 203.380351723 422 264 c 1
 492 264 l 1
 478.540895102 172.478086697 410.988957573 112.382079958 316 102.464872767 c 1
 316 0 l 1
 256 0 l 1
 256 102.593928655 l 1
 121.536373828 116.797757712 52 216.672842047 52 368 c 0
 52 477.368968343 91.8557484324 559.876634684 159 604 c 0
 186.63959793 622.163164354 218.644609425 632.842762598 256 636.53127749 c 1
 256 723 l 1
 316 723 l 1
 316 636.411797355 l 1
 412.054208244 625.635148757 479.658111657 564.393218399 493 471 c 1
 421 471 l 1
 411.31748804 532.322575747 359.576506515 574 288 574 c 0
 241 574 203 557 173 523 c 0
 143 489 129 438 129 368 c 0
 129 252.612604346 177.183320397 162 289 162 c 0
EndSplineSet
Substitution2: "<6,0> Monospaced Numbers in Latin lookup 14 subtable" cent.tf
EndChar

StartChar: sterling
Encoding: 163 163 101
Width: 603
Flags: W
HStem: 0 70<14 105.652 169 440.199> 346 53<31 123 219 377> 664 69<236.134 392.424>
LayerCount: 2
Fore
SplineSet
554 132 m 1
 526.056076545 50.0311578641 462.869593243 0 357 0 c 2
 14 0 l 1
 14 68 l 1
 53 68 l 2
 78 68 99 81 117 104 c 0
 135 127 144 163 144 214 c 0
 144 261.771629606 138.826313388 296.509227935 132 346 c 1
 31 346 l 1
 31 399 l 1
 123 399 l 1
 107 479 l 2
 79.7253009273 600.220884767 135.076630942 680.889984689 217 716 c 0
 245 728 274 733 306 733 c 0
 399.156196692 733 474.010334329 686.309219898 502 621 c 1
 432 595 l 1
 409.476262222 638.170497407 378.894622057 664 315 664 c 0
 240.381976673 664 187 621.047781051 187 546 c 0
 187 495.4361283 198.628810203 440.784968116 212 399 c 1
 377 399 l 1
 377 346 l 1
 219 346 l 1
 229.139232308 285.164606153 233.224092485 204.672277454 215 150 c 0
 203.831368153 116.49410446 188.442149421 89.4421494208 169 70 c 1
 353 70 l 2
 428.545173696 70 463.390303887 94.4757597171 486 151 c 1
 554 132 l 1
EndSplineSet
Substitution2: "<6,0> Monospaced Numbers in Latin lookup 14 subtable" sterling.tf
EndChar

StartChar: currency
Encoding: 164 164 102
Width: 529
Flags: W
HStem: 180 62<196.675 331.218> 486 60<196.502 330.554>
VStem: 79 63<295.818 432.76> 384 60<293.931 433.097>
LayerCount: 2
Fore
SplineSet
264 242 m 0
 312.384815611 242 350.944633143 271.500339657 369 304 c 0
 379 322 384 342 384 364 c 0
 384 413.953295822 358.115262338 446.589825108 326 468 c 0
 308 480 287 486 264 486 c 0
 214.990794164 486 177.453571161 455.833116445 158 424 c 0
 147 406 142 385 142 364 c 0
 142 314.837071498 169.830624237 279.659062966 202 260 c 0
 220 249 241 242 264 242 c 0
371 216 m 1
 342.618061312 196.487417152 307.364776821 180 263 180 c 0
 225 180 190 190 160 210 c 0
 155 214 152 214 148 210 c 2
 95 156 l 1
 55 198 l 1
 113 256 l 1
 93.2688830745 284.699806437 79 318.352469846 79 364 c 0
 79 402 89 435 109 464 c 0
 112 469 112 474 108 478 c 2
 56 530 l 1
 96 571 l 1
 154 512 l 1
 180.90541151 531.730635107 217.593293003 546 262 546 c 0
 300 546 333 537 362 516 c 0
 367 513 372 513 375 516 c 2
 428 570 l 1
 468 529 l 1
 410 470 l 1
 430.084519539 442.61201881 444 409.199939095 444 364 c 0
 444 321.890853885 432.360248032 289.704347244 414 264 c 0
 411 259 412 255 415 252 c 2
 469 200 l 1
 429 159 l 1
 371 216 l 1
EndSplineSet
EndChar

StartChar: yen
Encoding: 165 165 103
Width: 598
Flags: W
HStem: 0 21G<258 346> 139 52<104 258 346 500> 283 53<104 237.81 356.309 500> 703 20G<8 120.637 494.421 591>
VStem: 258 88<0 139.389 191.611 283.389>
LayerCount: 2
Fore
SplineSet
500 192 m 1
 500 140 l 1
 346 139.611111111 l 1
 346 0 l 1
 258 0 l 1
 258 139.388888889 l 1
 104 139 l 1
 104 191 l 1
 258 191.388888889 l 1
 258 283.388888889 l 1
 104 283 l 1
 104 336 l 1
 237.809976247 336 l 1
 8 723 l 1
 109 723 l 1
 308 381 l 1
 506 723 l 1
 591 723 l 1
 356.309405941 336 l 1
 500 336 l 1
 500 284 l 1
 346 283.611111111 l 1
 346 191.611111111 l 1
 500 192 l 1
EndSplineSet
Substitution2: "<6,0> Monospaced Numbers in Latin lookup 14 subtable" yen.tf
EndChar

StartChar: brokenbar
Encoding: 166 166 104
Width: 262
Flags: W
HStem: -161 21G<100 162>
VStem: 100 62<-161 238 427 826>
LayerCount: 2
Fore
SplineSet
162 -161 m 1
 100 -161 l 1
 100 238 l 1
 162 238 l 1
 162 -161 l 1
162 427 m 1
 100 427 l 1
 100 826 l 1
 162 826 l 1
 162 427 l 1
EndSplineSet
EndChar

StartChar: section
Encoding: 167 167 105
Width: 484
Flags: W
HStem: -70 57<162.869 336.617> 676 57<155.537 317.347>
VStem: 51 71<298.374 398.379 561.797 644.744> 367 75<15.8052 113.601 258.725 372.025>
LayerCount: 2
Fore
SplineSet
274 231 m 1
 312.463968493 228.737413618 339.902789548 247.748473792 356 271 c 0
 365 284 368 298 368 314 c 0
 368 335 362 353 351 369 c 0
 340 385 315 400 280 414 c 2
 224 436 l 1
 184.590959207 431.851679917 152.814894165 413.732624904 135 388 c 0
 126 375 122 361 122 347 c 0
 122 328 127 313 139 300 c 0
 151 287 175 273 212 258 c 2
 274 231 l 1
440 325 m 0
 440 257.417405624 393.704964632 220.852482316 348 198 c 1
 378 181 402 162 418 142 c 0
 434 122 442 98 442 70 c 0
 442 8.32927140309 399.866155163 -32.1933151051 352 -52 c 0
 323 -64 289 -70 250 -70 c 0
 183.172955454 -70 126.46988179 -45.1422852588 88 -14 c 0
 67 3 50 23 39 46 c 1
 92 74 l 1
 121.950600474 27.2021867595 175.900473011 -13 251 -13 c 0
 308.882109788 -13 367 9.07999036634 367 64 c 0
 367 82 360 97 346 113 c 0
 332 129 305 144 265 160 c 2
 177 194 l 2
 132 211 101 232 81 255 c 0
 61 278 51 307 51 338 c 0
 51 404.676892782 101.106081825 447.695410347 152 467 c 1
 125 481 105 495 91 509 c 0
 67.5381248817 532.461875118 54 556.653925627 54 597 c 0
 54 656.772576101 94.7891687409 695.195358032 141 715 c 0
 169 727 200 733 237 733 c 0
 326.995781729 733 390.645826221 687.638268568 426 633 c 1
 373 604 l 1
 344.474074629 639.657406714 303.097815403 676 242 676 c 0
 183.139095823 676 128 655.674250494 128 603 c 0
 128 588 134 573 146 559 c 0
 158 545 180 531 212 518 c 2
 296 484 l 2
 347 463 384 441 406 415 c 0
 428 389 440 359 440 325 c 0
EndSplineSet
EndChar

StartChar: dieresis
Encoding: 168 168 106
Width: 272
Flags: W
HStem: 608 92<6.96834 82.6972 190.922 266.486>
VStem: -1 91<615.38 691.597> 182 92<615.514 691.45>
LayerCount: 2
Fore
SplineSet
90 654 m 0
 90 628.594734377 69.1796877037 608 44 608 c 0
 19.8152954592 608 -1 629.132147605 -1 654 c 0
 -1 678.378582406 22.5014679434 700 45 700 c 0
 70.2433835797 700 90 679.705104362 90 654 c 0
274 654 m 0
 274 629.656353742 252.329086611 608 228 608 c 0
 204.156313995 608 182 629.670913389 182 654 c 0
 182 677.298581501 206.32617288 700 228 700 c 0
 252.915199665 700 274 679.179687704 274 654 c 0
EndSplineSet
EndChar

StartChar: copyright
Encoding: 169 169 107
Width: 813
Flags: W
HStem: -10 57<284.955 523.323> 156 52<344.914 481.212> 522 52<344.06 469.555> 678 55<286.378 519.845>
VStem: 34 60<239.861 484.228> 218 70<270.827 459.244> 717 60<239.707 482.688>
LayerCount: 2
Fore
SplineSet
412 208 m 0
 470.481132792 208 504.681098046 244.138771255 526 285 c 1
 572 267 l 1
 549.331097767 221.662195534 513.448127782 182.80522157 463 165 c 0
 446 159 428 156 408 156 c 0
 325.938415651 156 271.138741375 198.543688587 242 255 c 0
 226 286 218 323 218 364 c 0
 218 449.340996409 256.808826622 512.805674257 310 547 c 0
 338 565 371 574 408 574 c 0
 464.872928053 574 503.645726219 550.2445587 532 520 c 0
 547 504 560 487 570 468 c 1
 511 450 l 1
 499 472 484 489 468 502 c 0
 452 515 433 522 411 522 c 0
 331.337795387 522 288 450.705539531 288 366 c 0
 288 279.262351521 330.812463506 208 412 208 c 0
406 47 m 0
 500.553011508 47 572.645158616 83.4160152151 624 133 c 0
 677.744872252 184.891600795 717 260.200546448 717 362 c 0
 717 512.06556253 632.864844956 611.271008801 525 655 c 0
 488 670 448 678 406 678 c 0
 260.287226006 678 161.297098061 596.536676524 118 491 c 0
 102 452 94 409 94 362 c 0
 94 259.565863478 132.287349997 185.712650003 185 133 c 0
 235.32835174 82.6716482601 310.67478979 47 406 47 c 0
406 -10 m 0
 293.101897521 -10 202.153274724 37.8467252758 142 98 c 0
 81.6447164847 158.355283515 34 248.476156538 34 362 c 0
 34 474.569471751 82.0560505429 564.056050543 142 624 c 0
 202.628750734 684.628750734 292.041161893 733 406 733 c 0
 518.756045537 733 607.914762581 684.085237419 668 624 c 0
 728.419291945 563.580708055 777 475.625263995 777 362 c 0
 777 247.582547586 728.709503953 158.709503953 668 98 c 0
 608.262896709 38.2628967091 517.870332067 -10 406 -10 c 0
EndSplineSet
EndChar

StartChar: ordfeminine
Encoding: 170 170 108
Width: 422
Flags: W
HStem: 396 41<122.315 235.082> 557 37<144 222> 688 43<131.846 256.69>
VStem: 52 58<449.907 530.982> 272 55<465.191 561 599 672.683>
LayerCount: 2
Fore
SplineSet
110 488 m 0
 110 453.888023549 142.541915829 437 178 437 c 0
 214.704350318 437 249.469821062 456.822186859 265 484 c 0
 269 491 272 498 272 506 c 2
 272 561 l 1
 222 557 l 2
 165.929938055 554.048944108 110 537.145926609 110 488 c 0
271 446 m 1
 240.311446362 417.016366009 213.838527587 396 161 396 c 0
 98.1569802177 396 52 425.892067178 52 486 c 0
 52 517 66 542 94 560 c 0
 122 578 160 590 212 594 c 2
 272 599 l 1
 272 623 l 2
 272 669.630274912 241.321674934 688 195 688 c 0
 149.360861809 688 129.199153411 670.981992901 109 639 c 1
 60 654 l 1
 83.4359844935 702.824967695 128.286840688 731 200 731 c 0
 277.80906971 731 327 695.753288416 327 622 c 0
 327 583.333333333 327 544.666666667 327 506 c 0
 327 500 328 494 328 486 c 0
 328 478 329 471 329 463 c 0
 329 455 330 447 331 440 c 2
 337 402 l 1
 280 402 l 1
 271 446 l 1
EndSplineSet
EndChar

StartChar: guillemotleft
Encoding: 171 171 109
Width: 442
Flags: W
LayerCount: 2
Fore
SplineSet
112 251 m 1
 217 72 l 1
 172 72 l 1
 38 251 l 1
 172 438 l 1
 218 438 l 1
 112 251 l 1
286 251 m 1
 390 72 l 1
 344 72 l 1
 210 251 l 1
 345 438 l 1
 392 438 l 1
 286 251 l 1
EndSplineSet
EndChar

StartChar: logicalnot
Encoding: 172 172 110
Width: 545
Flags: W
HStem: 332 62<62 416.242>
VStem: 417 66<191 332>
LayerCount: 2
Fore
SplineSet
416.241935484 332 m 1
 62 332 l 1
 62 394 l 1
 483 395 l 1
 483 377 l 1
 483 332 l 1
 483 191 l 1
 417 191 l 1
 416.241935484 332 l 1
EndSplineSet
EndChar

StartChar: uni00AD
Encoding: 173 173 111
Width: 373
Flags: W
HStem: 226 64<62 311>
VStem: 62 249<227 290>
LayerCount: 2
Fore
SplineSet
311 290 m 1
 311 227 l 1
 62 226 l 1
 62 290 l 1
 311 290 l 1
EndSplineSet
EndChar

StartChar: registered
Encoding: 174 174 112
Width: 535
Flags: W
HStem: 268 43<171.517 359.656> 490 33<218 273> 582 32<218 314.349> 690 43<172.789 359.467>
VStem: 34 45<403.01 596.647> 178 40<383 490 523 582> 318 42<525.68 578.562> 454 45<404.28 595.192>
LayerCount: 2
Fore
SplineSet
318 552 m 0
 318 574.55267313 300.842160902 582 273 582 c 2
 218 582 l 1
 218 523 l 1
 276 523 l 2
 299.219913255 523 318 528.959640925 318 552 c 0
360 556 m 0
 360 521.792726348 334.891007141 502.29700238 310 494 c 1
 355 383 l 1
 312 383 l 1
 273 490 l 1
 218 490 l 1
 218 383 l 1
 178 383 l 1
 178 614 l 1
 282 614 l 2
 325.657564492 614 360 597.008673301 360 556 c 0
266 311 m 0
 345.831901788 311 400.004651139 347.508139493 430 400 c 0
 446 428 454 462 454 500 c 0
 454 580.325334271 416.653145319 636.912488389 364 667 c 0
 336 683 303 690 266 690 c 0
 185.34722985 690 132.293916177 653.014353309 102 600 c 0
 86 572 79 538 79 500 c 0
 79 418.013320114 114.635699235 364.493886152 168 334 c 0
 196 318 229 311 266 311 c 0
267 268 m 0
 171.524046311 268 102.677176357 320.204706071 65 383 c 0
 44 418 34 457 34 500 c 0
 34 595.475953689 86.2047060713 664.322823643 149 702 c 0
 184 723 224 733 267 733 c 0
 361.890102476 733 430.52765982 680.4539003 468 618 c 0
 489 583 499 543 499 500 c 0
 499 405.109897524 446.4539003 336.47234018 384 299 c 0
 349 278 310 268 267 268 c 0
EndSplineSet
EndChar

StartChar: macron
Encoding: 175 175 113
Width: 310
Flags: W
HStem: 622 57<12 296>
VStem: 12 284<622 679>
LayerCount: 2
Fore
SplineSet
296 679 m 1
 296 622 l 1
 12 622 l 1
 12 679 l 1
 296 679 l 1
EndSplineSet
EndChar

StartChar: degree
Encoding: 176 176 114
Width: 460
Flags: W
HStem: 528 52<165.346 290.582> 782 55<165.015 290.861>
VStem: 75 56<614.91 748.58> 324 58<613.39 748.65>
LayerCount: 2
Fore
SplineSet
228 580 m 0
 287.401348055 580 324 621.932617921 324 681 c 0
 324 740.609215012 286.921567935 782 227 782 c 0
 168.405814616 782 131 740.067382079 131 681 c 0
 132.951087972 622.46736084 167.66146604 580 228 580 c 0
382 682 m 0
 382 618.088177831 350.428647539 571.981409479 308 548 c 0
 285 535 258 528 229 528 c 0
 165.088177831 528 118.981409479 559.571352461 95 602 c 0
 82 625 75 652 75 682 c 0
 75 745.617122236 106.745201838 793.116853213 149 817 c 0
 172 830 199 837 229 837 c 0
 292.646964299 837 337.975991092 804.504015759 362 762 c 0
 375 739 382 712 382 682 c 0
EndSplineSet
EndChar

StartChar: plusminus
Encoding: 177 177 115
Width: 545
Flags: W
HStem: 66 62<62 483> 406 62<62 242 304 483>
VStem: 242 62<228 406.428 468.575 648>
LayerCount: 2
Fore
SplineSet
304 228 m 1
 242 228 l 1
 242 406.427553444 l 1
 62 406 l 1
 62 468 l 1
 242 468.427553444 l 1
 242 648 l 1
 304 648 l 1
 304 468.574821853 l 1
 483 469 l 1
 483 407 l 1
 304 406.574821853 l 1
 304 228 l 1
483 128 m 1
 483 66 l 1
 62 64 l 1
 62 126 l 1
 483 128 l 1
EndSplineSet
EndChar

StartChar: uni00B2
Encoding: 178 178 116
Width: 360
Flags: W
HStem: 373.79 44.7295<106.296 326.796> 792.11 44.0996<111.95 242.285>
VStem: 26.2041 47.9082<704.773 753.285> 268.836 50.3994<618.748 765.208>
LayerCount: 2
Fore
SplineSet
26.2041015625 706.4296875 m 1
 38.0067998506 783.679537668 91.8878250997 836.209960938 176.225585938 836.209960938 c 0
 216.966796875 836.209960938 256.235351562 821.615234375 281.435546875 798.724609375 c 0
 306.635742188 775.834960938 319.235351562 740.240234375 319.235351562 698.240234375 c 0
 319.235351562 647.419921875 298.130859375 598.174804688 255.920898438 550.504882812 c 0
 213.7109375 502.834960938 168.03515625 463.879882812 106.295898438 418.51953125 c 1
 326.795898438 418.51953125 l 1
 326.795898438 373.790039062 l 1
 26.28515625 373.790039062 l 1
 26.28515625 405.290039062 l 1
 103.56640625 463.25 163.310546875 515.224609375 205.520507812 561.21484375 c 0
 247.73046875 607.205078125 268.8359375 652.25 268.8359375 696.349609375 c 0
 268.8359375 757.101147995 239.085088159 792.110351562 176.225585938 792.110351562 c 0
 114.317741354 792.110351562 81.4351833506 751.385226648 74.1123046875 695.08984375 c 1
 26.2041015625 706.4296875 l 1
EndSplineSet
EndChar

StartChar: uni00B3
Encoding: 179 179 117
Width: 395
Flags: W
HStem: 368 47<122.789 271.511> 588 48<146 257.486> 788 47<125.065 267.757>
VStem: 33 53<454.126 504> 40 52<696 755.122> 293 56<668.996 763.704> 306 56<446.513 554.084>
LayerCount: 2
Fore
SplineSet
193 788 m 0xe4
 137.151805932 788 92 753.247823315 92 696 c 1
 40 696 l 1
 40 756.466152228 72.3128141515 795.250163905 114 817 c 0
 137 829 164 835 193 835 c 0
 254.390498308 835 302.548464179 815.590469919 329 781 c 0
 342 764 349 742 349 718 c 0xec
 349 663.117018232 310.582837905 631.512162187 266 615 c 1
 317.748797074 598.940028494 362 564.388571818 362 500 c 0
 362 408.280826458 283.384971936 368 190 368 c 0
 103.906832771 369.871590592 35.0851560317 420.593758734 33 504 c 1
 86 504 l 1
 93.4312085798 450.123737796 132.674914844 415 192 415 c 0
 252.665978148 415 306 442.439834781 306 499 c 0xf2
 306 560.124631062 251.548976818 588 186 588 c 2
 146 588 l 1
 146 634 l 1
 185 636 l 2
 226.897957492 636 258.792655703 652.951186844 278 676 c 0
 288 688 293 701 293 716 c 0
 293 763.48564203 246.405955787 788 193 788 c 0xe4
EndSplineSet
EndChar

StartChar: acute
Encoding: 180 180 118
Width: 206
Flags: W
HStem: 578 145
VStem: 5 196
LayerCount: 2
Fore
SplineSet
108 723 m 1
 201 723 l 1
 67 578 l 1
 5 578 l 1
 108 723 l 1
EndSplineSet
EndChar

StartChar: uni00B5
Encoding: 181 181 119
Width: 572
Flags: W
HStem: -165 21G<71.9712 151> 0 21G<423 499.038>
VStem: 72 79<-165 36 103.865 530> 420 79<0 82 135.584 530>
LayerCount: 2
Fore
SplineSet
72 -165 m 1
 71 530 l 1
 151 530 l 1
 151 160 l 2
 151 121.011186051 177.971947725 93.2032794046 205 78 c 0
 221 69 240 65 260 65 c 0
 289 65 317 73 343 90 c 0
 369 107 395 130 420 158 c 1
 420 530 l 1
 500 530 l 1
 499 0 l 1
 423 0 l 1
 423 82 l 1
 390 55 362 34 338 22 c 0
 278.30368976 -7.84815511987 196.714130185 -3.99986391217 151 36 c 1
 151 -165 l 1
 72 -165 l 1
EndSplineSet
EndChar

StartChar: paragraph
Encoding: 182 182 120
Width: 547
Flags: W
HStem: 674 49<314 362 416 476>
VStem: 48 266<407.848 601.636> 259 55<-83 297> 362 54<-83 674>
LayerCount: 2
Fore
SplineSet
476 674 m 1xd0
 416 674 l 1
 416 -83 l 1
 362 -83 l 1
 362 674 l 1
 314 674 l 1
 314 -83 l 1
 259 -83 l 1
 259 297 l 1xb0
 170.048647519 299.068636104 105.741910793 342.294162672 73 402 c 0
 56 433 48 467 48 504 c 0
 48 590.397521601 90.9941670992 656.172867914 149 692 c 0
 183 713 225 723 276 723 c 2
 476 723 l 1
 476 674 l 1xd0
EndSplineSet
EndChar

StartChar: periodcentered
Encoding: 183 183 121
Width: 222
Flags: W
HStem: 305 120<65.1178 155.343>
VStem: 49 121<319.49 408.898>
LayerCount: 2
Fore
SplineSet
109 305 m 0
 76.2413142501 305 49 331.980006894 49 365 c 0
 49 396.666308423 79.9999383895 425 110 425 c 0
 142.75868575 425 170 397.745291291 170 365 c 0
 170 331.443568321 143.335744078 305 109 305 c 0
EndSplineSet
EndChar

StartChar: cedilla
Encoding: 184 184 122
Width: 219
Flags: W
HStem: -204 38<31.0949 139.956> -84 28<119 131.475>
VStem: 146 60<-160.523 -93.4933>
LayerCount: 2
Fore
SplineSet
146 -128 m 0
 146 -91.3132818708 110.594723003 -85.5212401073 68 -84 c 0
 63.6774862652 -84 59.783258382 -82.4334832359 62 -78 c 2
 98 5 l 1
 143 5 l 1
 119 -56 l 1
 158.691966396 -57.8041802907 186.049137299 -69.7081020589 198 -96 c 0
 203 -107 206 -117 206 -128 c 0
 206 -180.825291306 153.327905807 -204 100 -204 c 0
 61.9876497067 -204 34.4426490049 -194.041630157 10 -179 c 1
 25 -143 l 1
 42.1402571151 -155.855192836 60.0000028614 -166 91 -166 c 0
 122.993794286 -166 146 -156.660389423 146 -128 c 0
EndSplineSet
EndChar

StartChar: uni00B9
Encoding: 185 185 123
Width: 235
Flags: W
HStem: 736 39<24 103.335>
VStem: 112 55<372 736> 127 40<787.984 827>
LayerCount: 2
Fore
SplineSet
112 372 m 1xc0
 112 736 l 1xc0
 24 736 l 1
 24 775 l 1
 64 775 90 778 104 786 c 0
 118 794 126 808 127 827 c 1
 167 827 l 1xa0
 167 372 l 1
 112 372 l 1xc0
EndSplineSet
EndChar

StartChar: ordmasculine
Encoding: 186 186 124
Width: 404
Flags: W
HStem: 398 43<143.31 260.873> 688 44<142.911 262.17>
VStem: 48 60<478.794 650.949> 296 61<477.71 652.536>
LayerCount: 2
Fore
SplineSet
296 566 m 0
 296 635.546301573 268.960128159 688 202 688 c 0
 136.058482943 688 108 634.354956734 108 566 c 0
 108 495.986563692 135.639991082 441 202 441 c 0
 269.333236679 441 296 494.915408088 296 566 c 0
202 398 m 0
 103.151435276 398 48 465.202501209 48 564 c 0
 48 634.060012204 76.7538719783 684.067574248 121 711 c 0
 144 725 171 732 202 732 c 0
 270.208751712 732 313.804096591 698.530583478 338 652 c 0
 351 627 357 597 357 564 c 0
 357 466.03073584 300.385205832 398 202 398 c 0
EndSplineSet
EndChar

StartChar: guillemotright
Encoding: 187 187 125
Width: 470
Flags: W
LayerCount: 2
Fore
SplineSet
342 251 m 1
 236 438 l 1
 281 438 l 1
 416 251 l 1
 282 72 l 1
 237 72 l 1
 342 251 l 1
168 251 m 1
 62 438 l 1
 108 438 l 1
 242 251 l 1
 109 72 l 1
 64 72 l 1
 168 251 l 1
EndSplineSet
EndChar

StartChar: onequarter
Encoding: 188 188 126
Width: 781
Flags: W
HStem: -4 26G<102 172.224 630 682> 120 48<470 629 682 758> 632 39<24 103.335> 711 20G<126.5 167 577.694 645>
VStem: 112 55<268 632> 127 40<683.984 723> 629 53<1 120 168 382>
LayerCount: 2
Fore
SplineSet
470 168 m 1xf2
 629 168 l 1
 629 382 l 1
 470 168 l 1xf2
628 456 m 1
 682 456 l 1
 682 168 l 1
 758 168 l 1
 758 120 l 1
 682 120 l 1
 682 1 l 1
 630 1 l 1
 630 120 l 1
 417 120 l 1
 417 169 l 1
 628 456 l 1
645 731 m 1
 159 -4 l 1
 102 -4 l 1
 591 731 l 1
 645 731 l 1
112 268 m 1xfa
 112 632 l 1xfa
 24 632 l 1
 24 671 l 1
 64 671 90 674 104 682 c 0
 118 690 126 704 127 723 c 1
 167 723 l 1xf6
 167 268 l 1
 112 268 l 1xfa
EndSplineSet
EndChar

StartChar: onehalf
Encoding: 189 189 127
Width: 857
Flags: W
HStem: -4 21G<102 172.224> 3.79004 44.7295<607.296 827.796> 422.11 44.0996<612.95 743.285> 632 39<24 103.335> 711 20G<126.5 167 577.694 645>
VStem: 112 55<268 632> 127 40<683.984 723> 527.204 47.9082<334.773 383.285> 769.836 50.3994<248.748 395.208>
LayerCount: 2
Fore
SplineSet
645 731 m 1xb980
 159 -4 l 1
 102 -4 l 1
 591 731 l 1
 645 731 l 1xb980
112 268 m 1x3d80
 112 632 l 1x3d80
 24 632 l 1
 24 671 l 1
 64 671 90 674 104 682 c 0
 118 690 126 704 127 723 c 1
 167 723 l 1x3b80
 167 268 l 1
 112 268 l 1x3d80
527.204101562 336.4296875 m 1
 539.006799852 413.679537667 592.887825097 466.209960938 677.225585938 466.209960938 c 0
 717.966796875 466.209960938 757.235351562 451.615234375 782.435546875 428.724609375 c 0
 807.635742188 405.834960938 820.235351562 370.240234375 820.235351562 328.240234375 c 0
 820.235351562 277.419921875 799.130859375 228.174804688 756.920898438 180.504882812 c 0
 714.7109375 132.834960938 669.03515625 93.8798828125 607.295898438 48.51953125 c 1
 827.795898438 48.51953125 l 1
 827.795898438 3.7900390625 l 1
 527.28515625 3.7900390625 l 1x7980
 527.28515625 35.2900390625 l 1
 604.56640625 93.25 664.310546875 145.224609375 706.520507812 191.21484375 c 0
 748.73046875 237.205078125 769.8359375 282.25 769.8359375 326.349609375 c 0
 769.8359375 387.101147995 740.085088159 422.110351562 677.225585938 422.110351562 c 0
 615.317741355 422.110351562 582.435183349 381.385226648 575.112304688 325.08984375 c 1
 527.204101562 336.4296875 l 1
EndSplineSet
EndChar

StartChar: threequarters
Encoding: 190 190 128
Width: 907
Flags: W
HStem: 1 21G<228 298.224 756 808> 120 48<596 755 808 884> 263 47<124.27 271.511> 484 46<146 256.31> 684 46<126.39 265.622>
VStem: 33 53<347.617 400> 40 52<590 649.643> 293 56<564.026 658.321> 306 56<341.513 448.854> 755 53<1 120 168 382>
LayerCount: 2
Fore
SplineSet
596 168 m 1xf840
 755 168 l 1
 755 382 l 1
 596 168 l 1xf840
754 456 m 1
 808 456 l 1
 808 168 l 1
 884 168 l 1
 884 120 l 1
 808 120 l 1
 808 1 l 1
 756 1 l 1
 756 120 l 1
 543 120 l 1
 543 169 l 1
 754 456 l 1
771 731 m 1
 285 -4 l 1
 228 -3 l 1
 717 731 l 1
 771 731 l 1
193 684 m 0
 136.417053373 684 92 647.889017327 92 590 c 1
 40 590 l 1
 40 651.04253999 71.9559650587 690.06398177 114 712 c 0
 137 724 164 730 193 730 c 0
 254.390498308 730 302.548464179 710.590469919 329 676 c 0
 342 659 349 637 349 613 c 0xfb40
 349 558.117018232 310.582837905 526.512162187 266 510 c 1
 317.748797074 493.940028494 362 459.388571818 362 395 c 0
 362 303.280826458 283.384971936 263 190 263 c 0
 103.327259751 264.884190005 35.0994375758 316.022496967 33 400 c 1
 86 400 l 1
 93.5034463124 345.600014235 132.083389774 310 192 310 c 0
 252.665978148 310 306 337.439834781 306 394 c 0xfcc0
 306 454.0791997 250.385406939 483 186 483 c 2
 146 484 l 1
 146 530 l 1
 185 530 l 2
 225.99846066 530 259.093049271 548.311659125 278 571 c 0
 288 583 293 597 293 612 c 0xf940
 293 658.452088459 245.247011727 684 193 684 c 0
EndSplineSet
EndChar

StartChar: questiondown
Encoding: 191 191 129
Width: 511
Flags: W
HStem: -171 64<164.549 333.163> -28 20G<407.5 470.167> 412 105<218 316>
VStem: 32 80<-58.66 77.8832> 218 98<412 517> 232 70<258.095 344>
LayerCount: 2
Fore
SplineSet
112 8 m 0xf4
 112 -66.4514042831 172.895442537 -107 250 -107 c 0
 301.422113813 -107 345.737368491 -83.8199689785 375 -58 c 0
 392 -43 404 -26 411 -8 c 1
 482 -32 l 1
 443.476808998 -110.880819671 361.709240317 -171 249 -171 c 0
 158.900107255 -171 92.0461784963 -140.6000377 57 -87 c 0
 40 -61 32 -30 32 4 c 0
 32 91.834584837 83.3928218488 131.97055917 132 172 c 0
 165.3921177 199.499391047 197.848176969 230.696353939 218 271 c 0xf8
 228 291 232 315 232 344 c 1
 302 344 l 1
 302 279.849374546 280.795465869 235.965922841 252 201 c 0
 238 184 223 168 207 154 c 0
 176.660665986 127.453082738 145.060755988 102.003650199 126 66 c 0
 117 49 112 30 112 8 c 0xf4
218 412 m 1
 218 517 l 1
 316 517 l 1
 316 412 l 1
 218 412 l 1
EndSplineSet
EndChar

StartChar: Agrave
Encoding: 192 192 130
Width: 706
Flags: W
HStem: 0 21G<45 132.379 572.816 661> 206 74<222 484> 703 20G<300.725 406.248>
LayerCount: 2
Fore
SplineSet
281 929 m 1
 188 929 l 1
 322 784 l 1
 384 784 l 1
 281 929 l 1
222 280 m 1
 484 280 l 1
 354 645 l 1
 222 280 l 1
45 0 m 1
 308 723 l 1
 399 723 l 1
 661 0 l 1
 580 0 l 1
 506 206 l 1
 201 206 l 1
 125 0 l 1
 45 0 l 1
EndSplineSet
EndChar

StartChar: Aacute
Encoding: 193 193 131
Width: 706
Flags: W
HStem: 0 21G<45 132.379 572.816 661> 206 74<222 484> 703 20G<300.725 406.248>
LayerCount: 2
Fore
SplineSet
423 929 m 1
 516 929 l 1
 382 784 l 1
 320 784 l 1
 423 929 l 1
222 280 m 1
 484 280 l 1
 354 645 l 1
 222 280 l 1
45 0 m 1
 308 723 l 1
 399 723 l 1
 661 0 l 1
 580 0 l 1
 506 206 l 1
 201 206 l 1
 125 0 l 1
 45 0 l 1
EndSplineSet
EndChar

StartChar: Acircumflex
Encoding: 194 194 132
Width: 706
Flags: W
HStem: 0 21G<45 132.379 572.816 661> 206 74<222 484> 703 20G<300.725 406.248>
LayerCount: 2
Fore
SplineSet
424 784 m 1
 352 847 l 1
 276 784 l 1
 202 784 l 1
 325 891 l 1
 382 891 l 1
 504 784 l 1
 424 784 l 1
222 280 m 1
 484 280 l 1
 354 645 l 1
 222 280 l 1
45 0 m 1
 308 723 l 1
 399 723 l 1
 661 0 l 1
 580 0 l 1
 506 206 l 1
 201 206 l 1
 125 0 l 1
 45 0 l 1
EndSplineSet
EndChar

StartChar: Atilde
Encoding: 195 195 133
Width: 706
Flags: W
HStem: 0 21G<45 132.379 572.816 661> 206 74<222 484> 703 20G<300.725 406.248> 822 54<330.768 477.644> 846 58<232.243 376.376>
LayerCount: 2
Fore
SplineSet
417 876 m 0xf0
 447.184462922 876 465.298940907 888.909258635 484 902 c 1
 499 848 l 1
 479.807213663 833.605410247 452.374285867 822 416 822 c 0xf0
 365.338828878 822 342.351740812 846 294 846 c 0
 260.631327643 846 245.557261226 833.690082859 226 820 c 1
 210 868 l 1
 230.614618428 886.740562207 252.10434662 904 290 904 c 0xe8
 339.481546657 904 368.327366164 876 417 876 c 0xf0
222 280 m 1
 484 280 l 1
 354 645 l 1
 222 280 l 1
45 0 m 1
 308 723 l 1
 399 723 l 1
 661 0 l 1
 580 0 l 1
 506 206 l 1
 201 206 l 1
 125 0 l 1
 45 0 l 1
EndSplineSet
EndChar

StartChar: Adieresis
Encoding: 196 196 134
Width: 706
Flags: W
HStem: 0 21G<45 132.379 572.816 661> 206 74<222 484> 703 20G<300.725 406.248> 814 92<223.968 299.697 407.922 483.486>
VStem: 216 91<821.38 897.597> 399 92<821.514 897.45>
LayerCount: 2
Fore
SplineSet
261 814 m 0
 236.815295459 814 216 835.132147605 216 860 c 0
 216 884.378582406 239.501467943 906 262 906 c 0
 287.24338358 906 307 885.705104362 307 860 c 0
 307 834.594734377 286.179687704 814 261 814 c 0
445 814 m 0
 421.156313995 814 399 835.670913389 399 860 c 0
 399 883.298581501 423.32617288 906 445 906 c 0
 469.915199665 906 491 885.179687704 491 860 c 0
 491 835.656353742 469.329086611 814 445 814 c 0
222 280 m 1
 484 280 l 1
 354 645 l 1
 222 280 l 1
45 0 m 1
 308 723 l 1
 399 723 l 1
 661 0 l 1
 580 0 l 1
 506 206 l 1
 201 206 l 1
 125 0 l 1
 45 0 l 1
EndSplineSet
EndChar

StartChar: Aring
Encoding: 197 197 135
Width: 706
Flags: W
HStem: 0 21G<45 132.379 572.816 661> 206 74<222 484> 703 20G<300.725 406.248> 786 45<310.79 394.132> 941 46<308.43 395.81>
VStem: 252 46<843.677 929.848> 406 50<842.514 931.112>
LayerCount: 2
Fore
SplineSet
352 831 m 0
 381.777025419 831 406 856.123037087 406 886 c 0
 406 918.340726294 383.88354286 941 352 941 c 0
 321.274358536 941 298 917.287762557 298 886 c 0
 298 857.196163204 323.401477786 831 352 831 c 0
252 889 m 0
 252 943.177135722 299.560095085 987 354 987 c 0
 395.368917429 987 425.759419584 965.067634027 442 938 c 0
 451 923 456 906 456 887 c 0
 456 830.626282078 410.550555843 786 354 786 c 0
 296.878296161 786 252 831.638509615 252 889 c 0
222 280 m 1
 484 280 l 1
 354 645 l 1
 222 280 l 1
45 0 m 1
 308 723 l 1
 399 723 l 1
 661 0 l 1
 580 0 l 1
 506 206 l 1
 201 206 l 1
 125 0 l 1
 45 0 l 1
EndSplineSet
EndChar

StartChar: AE
Encoding: 198 198 136
Width: 956
Flags: W
HStem: 0 70<536 894> 209 71<229 448> 331 69<536 848> 654 69<536 882>
VStem: 448 88<70 209 280 331 400 654>
LayerCount: 2
Fore
SplineSet
448 280 m 1
 448 664 l 1
 229 280 l 1
 448 280 l 1
894 70 m 1
 894 0 l 1
 448 0 l 1
 448 209 l 1
 197 209 l 1
 80 0 l 1
 0 0 l 1
 404 723 l 1
 882 723 l 1
 882 654 l 1
 536 654 l 1
 536 400 l 1
 848 400 l 1
 848 331 l 1
 536 331 l 1
 536 70 l 1
 894 70 l 1
EndSplineSet
EndChar

StartChar: Ccedilla
Encoding: 199 199 137
Width: 680
Flags: W
HStem: -204 38<273.095 381.889> -84 29<361 372.312> 524 21G<526.234 618> 664 69<257.184 448.222>
VStem: 56 86<199.928 522.602> 388 59<-159.606 -94.6627> 537 81<542.272 576.006>
LayerCount: 2
Fore
SplineSet
361 -55 m 1
 410.298255016 -57.2408297734 447 -80.267813938 447 -128 c 0
 447 -181.535901264 395.649663278 -204 342 -204 c 0
 303.987649707 -204 276.442649005 -194.041630157 252 -179 c 1
 267 -143 l 1
 284.140257115 -155.855192836 302.000002861 -166 333 -166 c 0
 364.322497901 -166 388 -155.782940287 388 -128 c 0
 388 -91.7590542063 351.347961162 -85.5124271843 309 -84 c 0
 304.933771527 -84 302.002128278 -81.995743443 304 -78 c 2
 333.807125919 -9.27801524174 l 1
 209.237469036 -1.7019784693 132.196257747 64.8753985894 91 161 c 0
 67 217 56 284 56 363 c 0
 56 517.31399606 101.648908899 630.484852402 194 690 c 0
 239 719 294 733 358 733 c 0
 463.39943186 733 541.015583582 683.411068461 584 618 c 0
 600 595 611 570 618 544 c 1
 537 524 l 1
 515.468123768 602.950212849 455.439744513 664 356 664 c 0
 190.785917158 664 142 534.079492268 142 362 c 0
 142 259 160 183 196 134 c 0
 232 85 286 60 356 60 c 0
 430.977625185 60 478.346632127 95.0199481909 509 141 c 0
 521 160 530 180 536 202 c 1
 618 182 l 1
 596.1419707 100.032390123 542.395015023 39.6292248531 467 9 c 0
 440.642107015 -1.70789402503 411.570391677 -7.66659893078 379.226020866 -9.43494783586 c 1
 361 -55 l 1
EndSplineSet
EndChar

StartChar: Egrave
Encoding: 200 200 138
Width: 617
Flags: W
HStem: 0 72<178 555> 330 70<178 510> 653 70<178 544>
VStem: 100 78<72 330 400 653>
LayerCount: 2
Fore
SplineSet
252 929 m 1
 158 929 l 1
 292 784 l 1
 354 784 l 1
 252 929 l 1
100 0 m 1
 100 723 l 1
 544 723 l 1
 544 653 l 1
 178 653 l 1
 178 400 l 1
 510 400 l 1
 510 330 l 1
 178 330 l 1
 178 72 l 1
 555 72 l 1
 555 0 l 1
 100 0 l 1
EndSplineSet
EndChar

StartChar: Eacute
Encoding: 201 201 139
Width: 617
Flags: W
HStem: 0 72<178 555> 330 70<178 510> 653 70<178 544>
VStem: 100 78<72 330 400 653>
LayerCount: 2
Fore
SplineSet
394 929 m 1
 486 929 l 1
 352 784 l 1
 290 784 l 1
 394 929 l 1
100 0 m 1
 100 723 l 1
 544 723 l 1
 544 653 l 1
 178 653 l 1
 178 400 l 1
 510 400 l 1
 510 330 l 1
 178 330 l 1
 178 72 l 1
 555 72 l 1
 555 0 l 1
 100 0 l 1
EndSplineSet
EndChar

StartChar: Ecircumflex
Encoding: 202 202 140
Width: 617
Flags: W
HStem: 0 72<178 555> 330 70<178 510> 653 70<178 544>
VStem: 100 78<72 330 400 653>
LayerCount: 2
Fore
SplineSet
394 784 m 1
 324 847 l 1
 248 784 l 1
 172 784 l 1
 296 891 l 1
 353 891 l 1
 474 784 l 1
 394 784 l 1
100 0 m 1
 100 723 l 1
 544 723 l 1
 544 653 l 1
 178 653 l 1
 178 400 l 1
 510 400 l 1
 510 330 l 1
 178 330 l 1
 178 72 l 1
 555 72 l 1
 555 0 l 1
 100 0 l 1
EndSplineSet
EndChar

StartChar: Edieresis
Encoding: 203 203 141
Width: 617
Flags: W
HStem: 0 72<178 555> 330 70<178 510> 653 70<178 544> 814 92<194.922 270.486 377.968 453.697>
VStem: 100 78<72 330 400 653> 186 92<821.514 897.45> 370 91<821.38 897.597>
LayerCount: 2
Fore
SplineSet
232 814 m 0
 208.156313995 814 186 835.670913389 186 860 c 0
 186 883.298581501 210.32617288 906 232 906 c 0
 256.915199665 906 278 885.179687704 278 860 c 0
 278 835.656353742 256.329086611 814 232 814 c 0
415 814 m 0
 390.815295459 814 370 835.132147605 370 860 c 0
 370 884.378582406 393.501467943 906 416 906 c 0
 441.24338358 906 461 885.705104362 461 860 c 0
 461 834.594734377 440.179687704 814 415 814 c 0
100 0 m 1
 100 723 l 1
 544 723 l 1
 544 653 l 1
 178 653 l 1
 178 400 l 1
 510 400 l 1
 510 330 l 1
 178 330 l 1
 178 72 l 1
 555 72 l 1
 555 0 l 1
 100 0 l 1
EndSplineSet
EndChar

StartChar: Igrave
Encoding: 204 204 142
Width: 276
Flags: W
HStem: 0 21G<100 178> 703 20G<100 178>
VStem: 100 78<0 723>
LayerCount: 2
Fore
SplineSet
66 929 m 1
 -26 929 l 1
 108 784 l 1
 170 784 l 1
 66 929 l 1
100 723 m 1
 178 723 l 1
 178 0 l 1
 100 0 l 1
 100 723 l 1
EndSplineSet
EndChar

StartChar: Iacute
Encoding: 205 205 143
Width: 276
Flags: W
HStem: 0 21G<100 178> 703 20G<100 178>
VStem: 100 78<0 723>
LayerCount: 2
Fore
SplineSet
209 929 m 1
 302 929 l 1
 168 784 l 1
 106 784 l 1
 209 929 l 1
100 723 m 1
 178 723 l 1
 178 0 l 1
 100 0 l 1
 100 723 l 1
EndSplineSet
EndChar

StartChar: Icircumflex
Encoding: 206 206 144
Width: 276
Flags: W
HStem: 0 21G<100 178> 703 20G<100 178>
VStem: 100 78<0 723>
LayerCount: 2
Fore
SplineSet
210 784 m 1
 138 847 l 1
 62 784 l 1
 -12 784 l 1
 111 891 l 1
 168 891 l 1
 290 784 l 1
 210 784 l 1
100 723 m 1
 178 723 l 1
 178 0 l 1
 100 0 l 1
 100 723 l 1
EndSplineSet
EndChar

StartChar: Idieresis
Encoding: 207 207 145
Width: 276
Flags: W
HStem: 0 21G<100 178> 703 20G<100 178> 814 92<9.96834 85.6972 193.922 269.486>
VStem: 2 91<821.38 897.597> 100 78<0 723> 185 92<821.514 897.45>
LayerCount: 2
Fore
SplineSet
47 814 m 0
 22.8152954592 814 2 835.132147605 2 860 c 0
 2 884.378582406 25.5014679434 906 48 906 c 0
 73.2433835797 906 93 885.705104362 93 860 c 0
 93 834.594734377 72.1796877037 814 47 814 c 0
231 814 m 0
 207.156313995 814 185 835.670913389 185 860 c 0
 185 883.298581501 209.32617288 906 231 906 c 0
 255.915199665 906 277 885.179687704 277 860 c 0
 277 835.656353742 255.329086611 814 231 814 c 0
100 723 m 1
 178 723 l 1
 178 0 l 1
 100 0 l 1
 100 723 l 1
EndSplineSet
EndChar

StartChar: Eth
Encoding: 208 208 146
Width: 695
Flags: W
HStem: 0 69<190 392.45> 330 65<35 108 190 359> 654 69<190 400.315>
VStem: 108 82<69 330 395 654> 558 82<226.827 501.136>
LayerCount: 2
Fore
SplineSet
558 364 m 0
 558 569.769744626 458.46276295 654 256 654 c 2
 190 654 l 1
 190 395 l 1
 359 395 l 1
 359 330 l 1
 190 330 l 1
 190 69 l 1
 252 69 l 2
 455.077467675 69 558 158.010898387 558 364 c 0
640 366 m 0
 640 114.638631457 506.346318587 0 253 0 c 2
 108 0 l 1
 108 330 l 1
 35 330 l 1
 35 395 l 1
 108 395 l 1
 108 723 l 1
 215 723 l 2
 232 723 249 722 264 722 c 0
 512.285851882 719.210271327 640 612.805813096 640 366 c 0
EndSplineSet
EndChar

StartChar: Ntilde
Encoding: 209 209 147
Width: 746
Flags: W
HStem: 0 21G<100 178 564.441 647> 703 20G<100 185.573 569 647> 822 54<350.768 497.644> 846 58<252.243 396.376>
VStem: 100 78<0 590> 569 78<138 723>
LayerCount: 2
Fore
SplineSet
437 876 m 0xec
 467.184462922 876 485.298940907 888.909258635 504 902 c 1
 519 848 l 1
 499.807213663 833.605410247 472.374285867 822 436 822 c 0xec
 385.338828878 822 362.351740812 846 314 846 c 0
 280.631327643 846 265.557261226 833.690082859 246 820 c 1
 230 868 l 1
 250.614618428 886.740562207 272.10434662 904 310 904 c 0xdc
 359.481546657 904 388.327366164 876 437 876 c 0xec
569 723 m 1
 647 723 l 1
 647 0 l 1
 578 0 l 1
 178 590 l 1
 178 0 l 1
 100 0 l 1
 100 723 l 1
 172 723 l 1
 569 138 l 1
 569 723 l 1
EndSplineSet
EndChar

StartChar: Ograve
Encoding: 210 210 148
Width: 726
Flags: W
HStem: -10 70<264.325 465.633> 664 69<265.224 463.683>
VStem: 56 86<203.459 518.352> 585 86<202.036 519.443>
LayerCount: 2
Fore
SplineSet
293 929 m 1
 200 929 l 1
 334 783 l 1
 396 783 l 1
 293 929 l 1
585 359 m 0
 585 532.860184271 530.991970557 664 364 664 c 0
 260.833938161 664 199.633908193 609.084770483 168 530 c 0
 150 485 142 429 142 360 c 0
 142 232.592420164 171.234942432 138.941400271 245 92 c 0
 278 71 317 60 364 60 c 0
 531.385002058 60 585 184.828513916 585 359 c 0
364 -10 m 0
 225.728550129 -10 138.48289193 58.937637755 93 159 c 0
 68 214 56 281 56 360 c 0
 56 516.426720715 105.531115377 630.443529259 200 690 c 0
 246 719 301 733 364 733 c 0
 503.384841002 733 588.178425484 663.807463936 634 563 c 0
 659 508 671 440 671 360 c 0
 671 205.314480826 621.670411441 92.0530854739 528 33 c 0
 482 4 427 -10 364 -10 c 0
EndSplineSet
EndChar

StartChar: Oacute
Encoding: 211 211 149
Width: 726
Flags: W
HStem: -10 70<264.325 465.633> 664 69<265.224 463.683>
VStem: 56 86<203.459 518.352> 585 86<202.036 519.443>
LayerCount: 2
Fore
SplineSet
435 929 m 1
 528 929 l 1
 394 783 l 1
 332 783 l 1
 435 929 l 1
585 359 m 0
 585 532.860184271 530.991970557 664 364 664 c 0
 260.833938161 664 199.633908193 609.084770483 168 530 c 0
 150 485 142 429 142 360 c 0
 142 232.592420164 171.234942432 138.941400271 245 92 c 0
 278 71 317 60 364 60 c 0
 531.385002058 60 585 184.828513916 585 359 c 0
364 -10 m 0
 225.728550129 -10 138.48289193 58.937637755 93 159 c 0
 68 214 56 281 56 360 c 0
 56 516.426720715 105.531115377 630.443529259 200 690 c 0
 246 719 301 733 364 733 c 0
 503.384841002 733 588.178425484 663.807463936 634 563 c 0
 659 508 671 440 671 360 c 0
 671 205.314480826 621.670411441 92.0530854739 528 33 c 0
 482 4 427 -10 364 -10 c 0
EndSplineSet
EndChar

StartChar: Ocircumflex
Encoding: 212 212 150
Width: 726
Flags: W
HStem: -10 70<264.325 465.633> 664 69<265.224 463.683>
VStem: 56 86<203.459 518.352> 585 86<202.036 519.443>
LayerCount: 2
Fore
SplineSet
436 783 m 1
 365 847 l 1
 289 783 l 1
 214 783 l 1
 338 891 l 1
 394 891 l 1
 516 783 l 1
 436 783 l 1
585 359 m 0
 585 532.860184271 530.991970557 664 364 664 c 0
 260.833938161 664 199.633908193 609.084770483 168 530 c 0
 150 485 142 429 142 360 c 0
 142 232.592420164 171.234942432 138.941400271 245 92 c 0
 278 71 317 60 364 60 c 0
 531.385002058 60 585 184.828513916 585 359 c 0
364 -10 m 0
 225.728550129 -10 138.48289193 58.937637755 93 159 c 0
 68 214 56 281 56 360 c 0
 56 516.426720715 105.531115377 630.443529259 200 690 c 0
 246 719 301 733 364 733 c 0
 503.384841002 733 588.178425484 663.807463936 634 563 c 0
 659 508 671 440 671 360 c 0
 671 205.314480826 621.670411441 92.0530854739 528 33 c 0
 482 4 427 -10 364 -10 c 0
EndSplineSet
EndChar

StartChar: Otilde
Encoding: 213 213 151
Width: 726
Flags: W
HStem: -10 70<264.325 465.633> 664 69<265.224 463.683> 821 55<340.273 489.616> 846 57<245.23 391.508>
VStem: 56 86<203.459 518.352> 585 86<202.036 519.443>
LayerCount: 2
Fore
SplineSet
429 876 m 0xec
 459.184462922 876 477.298940907 888.909258635 496 902 c 1
 511 848 l 1
 492.079407673 833.809555755 463.553664483 821 428 821 c 0xec
 378.174433864 821 354.554780922 846 306 846 c 0
 271.644122936 846 257.99624174 832.997369218 238 819 c 1
 222 868 l 1
 242.939894307 887.036267551 263.207182907 903 302 903 c 0xdc
 352.367419102 903 380.525898353 876 429 876 c 0xec
585 359 m 0
 585 532.860184271 530.991970557 664 364 664 c 0
 260.833938161 664 199.633908193 609.084770483 168 530 c 0
 150 485 142 429 142 360 c 0
 142 232.592420164 171.234942432 138.941400271 245 92 c 0
 278 71 317 60 364 60 c 0
 531.385002058 60 585 184.828513916 585 359 c 0
364 -10 m 0
 225.728550129 -10 138.48289193 58.937637755 93 159 c 0
 68 214 56 281 56 360 c 0
 56 516.426720715 105.531115377 630.443529259 200 690 c 0
 246 719 301 733 364 733 c 0
 503.384841002 733 588.178425484 663.807463936 634 563 c 0
 659 508 671 440 671 360 c 0
 671 205.314480826 621.670411441 92.0530854739 528 33 c 0
 482 4 427 -10 364 -10 c 0
EndSplineSet
EndChar

StartChar: Odieresis
Encoding: 214 214 152
Width: 726
Flags: W
HStem: -10 70<264.325 465.633> 664 69<265.224 463.683> 814 92<235.968 311.697 419.922 495.486>
VStem: 56 86<203.459 518.352> 228 91<821.38 897.597> 411 92<821.514 897.45> 585 86<202.036 519.443>
LayerCount: 2
Fore
SplineSet
273 814 m 0
 248.815295459 814 228 835.132147605 228 860 c 0
 228 884.378582406 251.501467943 906 274 906 c 0
 299.24338358 906 319 885.705104362 319 860 c 0
 319 834.594734377 298.179687704 814 273 814 c 0
457 814 m 0
 433.156313995 814 411 835.670913389 411 860 c 0
 411 883.298581501 435.32617288 906 457 906 c 0
 481.915199665 906 503 885.179687704 503 860 c 0
 503 835.656353742 481.329086611 814 457 814 c 0
585 359 m 0
 585 532.860184271 530.991970557 664 364 664 c 0
 260.833938161 664 199.633908193 609.084770483 168 530 c 0
 150 485 142 429 142 360 c 0
 142 232.592420164 171.234942432 138.941400271 245 92 c 0
 278 71 317 60 364 60 c 0
 531.385002058 60 585 184.828513916 585 359 c 0
364 -10 m 0
 225.728550129 -10 138.48289193 58.937637755 93 159 c 0
 68 214 56 281 56 360 c 0
 56 516.426720715 105.531115377 630.443529259 200 690 c 0
 246 719 301 733 364 733 c 0
 503.384841002 733 588.178425484 663.807463936 634 563 c 0
 659 508 671 440 671 360 c 0
 671 205.314480826 621.670411441 92.0530854739 528 33 c 0
 482 4 427 -10 364 -10 c 0
EndSplineSet
EndChar

StartChar: multiply
Encoding: 215 215 153
Width: 530
Flags: W
LayerCount: 2
Fore
SplineSet
108 162 m 1
 64 206 l 1
 220.00313465 362.874660542 l 1
 62 520 l 1
 107 564 l 1
 264.377446036 407.496873109 l 1
 422 566 l 1
 466 522 l 1
 308.499666361 363.619776229 l 1
 467 206 l 1
 422 162 l 1
 264.125354976 318.997563663 l 1
 108 162 l 1
EndSplineSet
EndChar

StartChar: Oslash
Encoding: 216 216 154
Width: 743
Flags: W
HStem: -10 70<271.983 470.297> 664 69<273.126 469.218>
VStem: 63 97<205.451 515.934> 580 98<204.129 515.276>
LayerCount: 2
Fore
SplineSet
530 588 m 1
 496.257625041 636.738986051 449.390989961 664 371 664 c 0
 303 664 251 640 215 594 c 0
 179 548 162 477 160 382 c 0
 158.024846193 310.894462963 165.784854782 250.621530629 184 198 c 1
 530 588 l 1
372 60 m 0
 525.885045989 60 576.49675373 170.099048425 580 333 c 0
 581.946596873 405.024084301 574.009990622 469.970028133 556 524 c 1
 211 133 l 1
 247 84 300 60 372 60 c 0
370 -10 m 0
 275.710304706 -10 203.478779148 22.8690070714 156 74 c 1
 76 -13 l 1
 30 31 l 1
 116 126 l 1
 81.7760171333 186.395263882 63 262.531979912 63 358 c 0
 63 514.901785583 112.265601583 629.276140128 207 689 c 0
 253 718 308 733 371 733 c 0
 467.837018765 733 537.505064695 698.225314943 586 646 c 1
 666 736 l 1
 712 692 l 1
 624 594 l 1
 659.743896654 534.42683891 678 454.719564318 678 360 c 0
 678 205.314480826 628.670411441 92.0530854739 535 33 c 0
 489 4 433 -10 370 -10 c 0
EndSplineSet
EndChar

StartChar: Ugrave
Encoding: 217 217 155
Width: 694
Flags: W
HStem: -10 70<258.135 457.54> 703 20G<100 181 536 614>
VStem: 100 81<138.286 723> 536 78<137.756 723>
LayerCount: 2
Fore
SplineSet
286 929 m 1
 193 929 l 1
 327 784 l 1
 389 784 l 1
 286 929 l 1
356 60 m 0
 475.324993903 60 536 120.533388372 536 240 c 2
 536 723 l 1
 614 723 l 1
 614 243 l 2
 614 71.597772466 528.924342781 -10 356 -10 c 0
 178.771869433 -10 100 77.2253450007 100 254 c 2
 100 723 l 1
 181 723 l 1
 181 240 l 2
 181 121.726312936 239.065196392 60 356 60 c 0
EndSplineSet
EndChar

StartChar: Uacute
Encoding: 218 218 156
Width: 694
Flags: W
HStem: -10 70<258.135 457.54> 703 20G<100 181 536 614>
VStem: 100 81<138.286 723> 536 78<137.756 723>
LayerCount: 2
Fore
SplineSet
428 929 m 1
 521 929 l 1
 387 784 l 1
 325 784 l 1
 428 929 l 1
356 60 m 0
 475.324993903 60 536 120.533388372 536 240 c 2
 536 723 l 1
 614 723 l 1
 614 243 l 2
 614 71.597772466 528.924342781 -10 356 -10 c 0
 178.771869433 -10 100 77.2253450007 100 254 c 2
 100 723 l 1
 181 723 l 1
 181 240 l 2
 181 121.726312936 239.065196392 60 356 60 c 0
EndSplineSet
EndChar

StartChar: Ucircumflex
Encoding: 219 219 157
Width: 694
Flags: W
HStem: -10 70<258.135 457.54> 703 20G<100 181 536 614>
VStem: 100 81<138.286 723> 536 78<137.756 723>
LayerCount: 2
Fore
SplineSet
429 784 m 1
 358 847 l 1
 282 784 l 1
 207 784 l 1
 330 891 l 1
 388 891 l 1
 509 784 l 1
 429 784 l 1
356 60 m 0
 475.324993903 60 536 120.533388372 536 240 c 2
 536 723 l 1
 614 723 l 1
 614 243 l 2
 614 71.597772466 528.924342781 -10 356 -10 c 0
 178.771869433 -10 100 77.2253450007 100 254 c 2
 100 723 l 1
 181 723 l 1
 181 240 l 2
 181 121.726312936 239.065196392 60 356 60 c 0
EndSplineSet
EndChar

StartChar: Udieresis
Encoding: 220 220 158
Width: 694
Flags: W
HStem: -10 70<258.135 457.54> 703 20G<100 181 536 614> 814 92<228.968 304.697 412.922 488.486>
VStem: 100 81<138.286 723> 221 91<821.38 897.597> 404 92<821.514 897.45> 536 78<137.756 723>
LayerCount: 2
Fore
SplineSet
266 814 m 0
 241.815295459 814 221 835.132147605 221 860 c 0
 221 884.378582406 244.501467943 906 267 906 c 0
 292.24338358 906 312 885.705104362 312 860 c 0
 312 834.594734377 291.179687704 814 266 814 c 0
450 814 m 0
 426.156313995 814 404 835.670913389 404 860 c 0
 404 883.298581501 428.32617288 906 450 906 c 0
 474.915199665 906 496 885.179687704 496 860 c 0
 496 835.656353742 474.329086611 814 450 814 c 0
356 60 m 0
 475.324993903 60 536 120.533388372 536 240 c 2
 536 723 l 1
 614 723 l 1
 614 243 l 2
 614 71.597772466 528.924342781 -10 356 -10 c 0
 178.771869433 -10 100 77.2253450007 100 254 c 2
 100 723 l 1
 181 723 l 1
 181 240 l 2
 181 121.726312936 239.065196392 60 356 60 c 0
EndSplineSet
EndChar

StartChar: Yacute
Encoding: 221 221 159
Width: 591
Flags: W
HStem: 0 21G<258 336> 703 20G<12 109.603 481.571 578>
VStem: 258 78<0 308>
LayerCount: 2
Fore
SplineSet
372 930 m 1
 465 930 l 1
 331 785 l 1
 269 785 l 1
 372 930 l 1
578 723 m 1
 336 308 l 1
 336 0 l 1
 258 0 l 1
 258 310 l 1
 12 723 l 1
 98 723 l 1
 297 380 l 1
 493 723 l 1
 578 723 l 1
EndSplineSet
EndChar

StartChar: Thorn
Encoding: 222 222 160
Width: 642
Flags: W
HStem: 0 21G<100 180> 168 69<180 463.257> 502 70<180 466.627> 703 20G<100 180>
VStem: 100 80<0 168 237 502 572 723> 533 81<299.763 446.897>
LayerCount: 2
Fore
SplineSet
353 237 m 2
 454.21007659 237 533 274.284016377 533 376 c 0
 533 474.515911024 447.838852279 502 348 502 c 2
 180 502 l 1
 180 237 l 1
 353 237 l 2
614 376 m 0
 614 225.280349825 503.768932877 168 353 168 c 2
 180 168 l 1
 180 0 l 1
 100 0 l 1
 100 723 l 1
 180 723 l 1
 180 572 l 1
 348 572 l 2
 451.28328194 572 534.333012768 544.580114336 580 487 c 0
 603 458 614 421 614 376 c 0
EndSplineSet
EndChar

StartChar: germandbls
Encoding: 223 223 161
Width: 589
Flags: W
HStem: -10 58<248.178 416.936> 0 21G<80.9607 158> 665 58<212.177 366.262>
VStem: 81 77<0 608.977> 224 64<363.962 428.376> 393 74<532.282 639.113> 459 74<87.6407 215.178>
LayerCount: 2
Fore
SplineSet
291 665 m 0xbc
 206.8815882 665 158 610.618700086 158 522 c 2
 158 0 l 1
 81 0 l 1
 80 509 l 2
 80 610.228172749 130.904940004 680.187014816 206 708 c 0
 233 718 264 723 299 723 c 0
 374.782010824 723 425.393688615 699.975685371 450 653 c 0
 461 632 467 610 467 587 c 0x7c
 467 505.655805239 407.125966602 478.966348455 350 453 c 0
 328 441 311 430 302 423 c 0
 293 416 288 406 288 393 c 0
 288 380 292 372 301 366 c 0
 310 360 326 354 348 347 c 0
 434.843702195 313.227449146 533 281.762521861 533 160 c 0
 533 81.6552513201 492.500000737 33.8793106751 437 9 c 0
 408 -4 375 -10 339 -10 c 0
 290.17303358 -10 232.743069332 5.10742572661 202 25 c 1
 232 79 l 1
 261.253524948 62.2837000297 286.701136873 48 333 48 c 0
 405.072386794 48 459 81.8336088646 459 152 c 0xba
 459 204.453758842 430.320016197 229.205992711 393 246 c 0
 373 255 352 264 330 272 c 0
 278.596554175 290.142392644 224 310.203660606 224 380 c 0
 224 405 231 426 245 442 c 0
 265.710797905 465.669483321 316.800225368 492.533483579 349 514 c 0
 371.762149653 529.174766435 393 549.088771257 393 586 c 0
 393 639.980260392 348.996941983 665 291 665 c 0xbc
EndSplineSet
EndChar

StartChar: agrave
Encoding: 224 224 162
Width: 568
Flags: W
HStem: -10 58<165.735 320.158 440.5 532.18> 467 60<195.233 360.533>
VStem: 52 76<84.6099 210.076> 402 74<46.123 100 115.541 271 324 425.888>
LayerCount: 2
Fore
SplineSet
208 723 m 1
 115 723 l 1
 249 578 l 1
 311 578 l 1
 208 723 l 1
128 145 m 0
 128 81.7571501818 179.19798011 48 244 48 c 0
 263 48 281 52 299 59 c 0
 334.792906075 72.9194634735 367.96069836 95.3833085607 387 125 c 0
 397 140 402 155 402 169 c 2
 402 271 l 1
 318 264 l 2
 223.663769945 257.09734902 128 242.56123908 128 145 c 0
404 100 m 1
 368.76658591 31.2109534432 314.095284119 -10 222 -10 c 0
 123.670432575 -10 52 40.8810147194 52 138 c 0
 52 195 72 238 111 266 c 0
 148 292 213 309 302 316 c 2
 402 324 l 1
 402 356 l 2
 402 430.243946675 354.876554719 467 276 467 c 0
 214.648576877 467 169.771920112 440.219270321 153 392 c 1
 83 409 l 1
 106.562721904 489.113254472 175.413781364 527 280 527 c 0
 360.600204296 527 430.368258499 501.411823138 454 452 c 0
 469 421 476 391 476 360 c 2
 476 92 l 2
 476 59 487 43 507 43 c 0
 513 43 522 45 533 50 c 1
 533 0 l 1
 509 -7 484 -10 458 -10 c 0
 423 -9 405 15 404 63 c 2
 404 100 l 1
EndSplineSet
EndChar

StartChar: aacute
Encoding: 225 225 163
Width: 568
Flags: W
HStem: -10 58<165.735 320.158 440.5 532.18> 467 60<195.233 360.533> 703 20G<335.793 443>
VStem: 52 76<84.6099 210.076> 402 74<46.123 100 115.541 271 324 425.888>
LayerCount: 2
Fore
SplineSet
350 723 m 1
 443 723 l 1
 309 578 l 1
 247 578 l 1
 350 723 l 1
128 145 m 0
 128 81.7571501818 179.19798011 48 244 48 c 0
 263 48 281 52 299 59 c 0
 334.792906075 72.9194634735 367.96069836 95.3833085607 387 125 c 0
 397 140 402 155 402 169 c 2
 402 271 l 1
 318 264 l 2
 223.663769945 257.09734902 128 242.56123908 128 145 c 0
404 100 m 1
 368.76658591 31.2109534432 314.095284119 -10 222 -10 c 0
 123.670432575 -10 52 40.8810147194 52 138 c 0
 52 195 72 238 111 266 c 0
 148 292 213 309 302 316 c 2
 402 324 l 1
 402 356 l 2
 402 430.243946675 354.876554719 467 276 467 c 0
 214.648576877 467 169.771920112 440.219270321 153 392 c 1
 83 409 l 1
 106.562721904 489.113254472 175.413781364 527 280 527 c 0
 360.600204296 527 430.368258499 501.411823138 454 452 c 0
 469 421 476 391 476 360 c 2
 476 92 l 2
 476 59 487 43 507 43 c 0
 513 43 522 45 533 50 c 1
 533 0 l 1
 509 -7 484 -10 458 -10 c 0
 423 -9 405 15 404 63 c 2
 404 100 l 1
EndSplineSet
EndChar

StartChar: acircumflex
Encoding: 226 226 164
Width: 568
Flags: W
HStem: -10 58<165.735 320.158 440.5 532.18> 467 60<195.233 360.533>
VStem: 52 76<84.6099 210.076> 402 74<46.123 100 115.541 271 324 425.888>
LayerCount: 2
Fore
SplineSet
351 578 m 1
 280 641 l 1
 204 578 l 1
 129 578 l 1
 252 685 l 1
 310 685 l 1
 431 578 l 1
 351 578 l 1
128 145 m 0
 128 81.7571501818 179.19798011 48 244 48 c 0
 263 48 281 52 299 59 c 0
 334.792906075 72.9194634735 367.96069836 95.3833085607 387 125 c 0
 397 140 402 155 402 169 c 2
 402 271 l 1
 318 264 l 2
 223.663769945 257.09734902 128 242.56123908 128 145 c 0
404 100 m 1
 368.76658591 31.2109534432 314.095284119 -10 222 -10 c 0
 123.670432575 -10 52 40.8810147194 52 138 c 0
 52 195 72 238 111 266 c 0
 148 292 213 309 302 316 c 2
 402 324 l 1
 402 356 l 2
 402 430.243946675 354.876554719 467 276 467 c 0
 214.648576877 467 169.771920112 440.219270321 153 392 c 1
 83 409 l 1
 106.562721904 489.113254472 175.413781364 527 280 527 c 0
 360.600204296 527 430.368258499 501.411823138 454 452 c 0
 469 421 476 391 476 360 c 2
 476 92 l 2
 476 59 487 43 507 43 c 0
 513 43 522 45 533 50 c 1
 533 0 l 1
 509 -7 484 -10 458 -10 c 0
 423 -9 405 15 404 63 c 2
 404 100 l 1
EndSplineSet
EndChar

StartChar: atilde
Encoding: 227 227 165
Width: 568
Flags: W
HStem: -10 58<165.735 320.158 440.5 532.18> 467 60<195.233 360.533> 616 55<253.827 403.69> 641 57<160.022 306.141>
VStem: 52 76<84.6099 210.076> 402 74<46.123 100 115.541 271 324 425.888>
LayerCount: 2
Fore
SplineSet
344 671 m 0xec
 375.485751713 671 390.78904128 683.552328896 410 697 c 1
 426 643 l 1
 406.563239094 628.422429321 381.002723226 616 344 616 c 0xec
 309.02391842 616 285.673652864 625.442115712 260 634 c 0
 248 638 235 641 220 641 c 0
 204 641 192 638 182 632 c 0
 172 626 162 621 152 614 c 1
 137 663 l 1
 156.947636122 681.134214656 179.63669067 698 216 698 c 0xdc
 265.937587329 698 294.10161836 671 344 671 c 0xec
128 145 m 0
 128 81.7571501818 179.19798011 48 244 48 c 0
 263 48 281 52 299 59 c 0
 334.792906075 72.9194634735 367.96069836 95.3833085607 387 125 c 0
 397 140 402 155 402 169 c 2
 402 271 l 1
 318 264 l 2
 223.663769945 257.09734902 128 242.56123908 128 145 c 0
404 100 m 1
 368.76658591 31.2109534432 314.095284119 -10 222 -10 c 0
 123.670432575 -10 52 40.8810147194 52 138 c 0
 52 195 72 238 111 266 c 0
 148 292 213 309 302 316 c 2
 402 324 l 1
 402 356 l 2
 402 430.243946675 354.876554719 467 276 467 c 0
 214.648576877 467 169.771920112 440.219270321 153 392 c 1
 83 409 l 1
 106.562721904 489.113254472 175.413781364 527 280 527 c 0
 360.600204296 527 430.368258499 501.411823138 454 452 c 0
 469 421 476 391 476 360 c 2
 476 92 l 2
 476 59 487 43 507 43 c 0
 513 43 522 45 533 50 c 1
 533 0 l 1
 509 -7 484 -10 458 -10 c 0
 423 -9 405 15 404 63 c 2
 404 100 l 1
EndSplineSet
EndChar

StartChar: adieresis
Encoding: 228 228 166
Width: 568
Flags: W
HStem: -10 58<165.735 320.158 440.5 532.18> 467 60<195.233 360.533> 608 92<150.968 226.697 334.922 410.486>
VStem: 52 76<84.6099 210.076> 143 91<615.38 691.597> 326 92<615.514 691.45> 402 74<46.123 100 115.541 271 324 425.888>
LayerCount: 2
Fore
SplineSet
188 608 m 0xf8
 163.815295459 608 143 629.132147605 143 654 c 0
 143 678.378582406 166.501467943 700 189 700 c 0
 214.24338358 700 234 679.705104362 234 654 c 0
 234 628.594734377 213.179687704 608 188 608 c 0xf8
372 608 m 0
 348.156313995 608 326 629.670913389 326 654 c 0
 326 677.298581501 350.32617288 700 372 700 c 0
 396.915199665 700 418 679.179687704 418 654 c 0xfc
 418 629.656353742 396.329086611 608 372 608 c 0
128 145 m 0
 128 81.7571501818 179.19798011 48 244 48 c 0
 263 48 281 52 299 59 c 0
 334.792906075 72.9194634735 367.96069836 95.3833085607 387 125 c 0
 397 140 402 155 402 169 c 2
 402 271 l 1xfa
 318 264 l 2
 223.663769945 257.09734902 128 242.56123908 128 145 c 0
404 100 m 1
 368.76658591 31.2109534432 314.095284119 -10 222 -10 c 0
 123.670432575 -10 52 40.8810147194 52 138 c 0
 52 195 72 238 111 266 c 0
 148 292 213 309 302 316 c 2
 402 324 l 1
 402 356 l 2
 402 430.243946675 354.876554719 467 276 467 c 0
 214.648576877 467 169.771920112 440.219270321 153 392 c 1
 83 409 l 1
 106.562721904 489.113254472 175.413781364 527 280 527 c 0
 360.600204296 527 430.368258499 501.411823138 454 452 c 0
 469 421 476 391 476 360 c 2
 476 92 l 2
 476 59 487 43 507 43 c 0
 513 43 522 45 533 50 c 1
 533 0 l 1
 509 -7 484 -10 458 -10 c 0
 423 -9 405 15 404 63 c 2
 404 100 l 1
EndSplineSet
EndChar

StartChar: aring
Encoding: 229 229 167
Width: 568
Flags: W
HStem: -10 58<165.735 320.158 440.5 532.18> 467 60<195.233 360.533> 580 45<237.166 321.178> 735 46<236.07 323.392>
VStem: 52 76<84.6099 210.076> 179 45<637.989 723.345> 334 48<636.857 724.06> 402 74<46.123 100 115.541 271 324 425.888>
LayerCount: 2
Fore
SplineSet
280 625 m 0
 308.925429176 625 334 651.208146503 334 680 c 0
 334 711.285875951 311.02373467 735 280 735 c 0
 249.089760737 735 224 711.316354632 224 680 c 0
 224 651.205872383 251.254198659 625 280 625 c 0
179 683 m 0
 179 736.658532364 226.048386342 781 280 781 c 0
 339.082897347 781 382 740.010420399 382 681 c 0
 382 623.571582625 337.394599053 580 280 580 c 0
 222.544012869 580 179 625.109706577 179 683 c 0
128 145 m 0
 128 81.7571501818 179.19798011 48 244 48 c 0
 263 48 281 52 299 59 c 0
 334.792906075 72.9194634735 367.96069836 95.3833085607 387 125 c 0
 397 140 402 155 402 169 c 2
 402 271 l 1
 318 264 l 2
 223.663769945 257.09734902 128 242.56123908 128 145 c 0
404 100 m 1
 368.76658591 31.2109534432 314.095284119 -10 222 -10 c 0
 123.670432575 -10 52 40.8810147194 52 138 c 0
 52 195 72 238 111 266 c 0
 148 292 213 309 302 316 c 2
 402 324 l 1
 402 356 l 2
 402 430.243946675 354.876554719 467 276 467 c 0
 214.648576877 467 169.771920112 440.219270321 153 392 c 1
 83 409 l 1
 106.562721904 489.113254472 175.413781364 527 280 527 c 0
 360.600204296 527 430.368258499 501.411823138 454 452 c 0
 469 421 476 391 476 360 c 2
 476 92 l 2
 476 59 487 43 507 43 c 0
 513 43 522 45 533 50 c 1
 533 0 l 1
 509 -7 484 -10 458 -10 c 0
 423 -9 405 15 404 63 c 2
 404 100 l 1
EndSplineSet
EndChar

StartChar: ae
Encoding: 230 230 168
Width: 910
Flags: W
HStem: -10 58<165.735 326.156 566.277 717.847> 240 56<481 782> 260 50<189.972 401.05> 467 60<195.565 357.314 554.998 711.756>
VStem: 52 76<84.6099 210.428> 77 71<374 421.393> 402 79<133.667 240 314 387.286> 782 76<296 392.984>
LayerCount: 2
Fore
SplineSet
782 296 m 1xd3
 782 394.799553109 733.018398613 466 634 466 c 0
 562.550406902 466 518.385743658 426.548121374 497 376 c 0
 486 350 481 324 481 296 c 1
 782 296 l 1xd3
635 527 m 0
 785.07561063 527 858 423.949444651 858 272 c 2
 858 240 l 1
 480 240 l 1
 480 133.3925455 532.969224642 52 640 52 c 0
 675 52 706 61 731 77 c 0
 756 93 771 117 778 147 c 1
 854 147 l 1
 841.966470594 76.8044117962 794.015295708 31.6061182833 735 8 c 0
 705 -4 675 -10 642 -10 c 0
 537.939287878 -10 468.814194296 39.2123211225 432 111 c 0
 431.819773557 111.351441564 431.640277949 111.703695167 431.461513986 112.056758081 c 1
 415.892032809 60.7506953835 371.387668866 28.2512400127 324 9 c 0
 292 -4 259 -10 222 -10 c 0
 123.670432575 -10 52 40.8810147194 52 138 c 0xdb
 52 195 72 238 111 266 c 0
 150 294 214 308 302 310 c 2
 402 314 l 1
 402 356 l 2
 402 427.927409696 349.058014194 467 276 467 c 0
 208.615508474 467 159.279208581 432.275911002 148 374 c 1
 77 374 l 1xb7
 81.726557755 440.17180857 121.49330284 481.496874659 174 506 c 0
 204 520 239 527 280 527 c 0
 361.208681726 527 425.319768924 500.688694739 456.432392861 445.943968633 c 1
 470.958611956 464.767597967 488.202444347 480.555822161 508 493 c 0
 543 515 586 527 635 527 c 0
128 145 m 0
 128 81.7571501818 179.19798011 48 244 48 c 0
 309.361895111 48 357.406809422 83.3807544072 382 125 c 0
 395 147 402 168 402 188 c 2
 402 225.696381589 l 2
 401.336906755 234.932860051 401 244.374546365 401 254 c 0
 401 256.341743218 401.016725924 258.671347444 401.050113599 260.988691829 c 1
 318 260 l 2xbb
 243.161368191 258.299122004 181.782388688 247.465587072 149 210 c 0
 135 194 128 172 128 145 c 0
EndSplineSet
EndChar

StartChar: ccedilla
Encoding: 231 231 169
Width: 539
Flags: W
HStem: -204 38<196.095 304.889> -84 29<284 295.312> 462 65<200.669 363.919>
VStem: 48 76<140.638 374.25> 311 59<-159.606 -94.6627>
LayerCount: 2
Fore
SplineSet
284 -55 m 1
 333.298255016 -57.2408297734 370 -80.267813938 370 -128 c 0
 370 -181.535901264 318.649663278 -204 265 -204 c 0
 226.987649707 -204 199.442649005 -194.041630157 175 -179 c 1
 190 -143 l 1
 207.140257115 -155.855192836 225.000002861 -166 256 -166 c 0
 287.322497901 -166 311 -155.782940287 311 -128 c 0
 311 -91.7590542063 274.347961162 -85.5124271843 232 -84 c 0
 227.933771527 -84 225.002128278 -81.995743443 227 -78 c 2
 256.93146698 -8.99134001766 l 1
 168.941824822 -1.74583123432 110.012712087 43.9745758253 77 110 c 0
 57 150 48 198 48 257 c 0
 48 369.063454049 85.4585373249 447.958467385 154 493 c 0
 189 516 231 527 282 527 c 0
 384.701606004 527 451.736181387 473.896624607 479 396 c 1
 411 378 l 1
 393.933391342 429.199825973 350.558584011 462 283 462 c 0
 173.537476029 462 124 378.269698299 124 258 c 0
 124 141.888354009 171.276063177 52 284 52 c 0
 350.834033787 52 394.042757891 84.6175842003 412 134 c 1
 479 118 l 1
 463.158993929 67.8368141089 423.864864398 30.5601116269 378 10 c 0
 354.709225147 -0.44069217554 329.483396097 -7.01127595684 302.322512849 -9.19371787685 c 1
 284 -55 l 1
EndSplineSet
EndChar

StartChar: egrave
Encoding: 232 232 170
Width: 561
Flags: W
HStem: -10 62<207.587 377.15> 240 56<132 432> 466 61<204.181 364.377>
VStem: 52 80<134.874 240 296 383.06> 432 76<296 392.877>
LayerCount: 2
Fore
SplineSet
214 723 m 1
 121 723 l 1
 255 578 l 1
 317 578 l 1
 214 723 l 1
132 296 m 1
 432 296 l 1
 432 395.148814757 384.862165491 466 285 466 c 0
 213.182603798 466 169.478293971 426.766876658 148 376 c 0
 137 350 132 324 132 296 c 1
286 527 m 0
 436.259392242 527 508 423.706883435 508 272 c 2
 508 240 l 1
 132 240 l 1
 132 132.717362005 183.194141941 52 291 52 c 0
 354.892913613 52 407.636520175 79.0799955023 425 129 c 1
 494 112 l 1
 466.82262826 38.2328481352 389.726077921 -10 292 -10 c 0
 188.193459799 -10 119.85453791 40.1336510747 83 112 c 0
 63 151 52 199 52 254 c 0
 52 364.712211375 91.4117123451 449.887362045 160 493 c 0
 195 515 237 527 286 527 c 0
EndSplineSet
EndChar

StartChar: eacute
Encoding: 233 233 171
Width: 561
Flags: W
HStem: -10 62<207.587 377.15> 240 56<132 432> 466 61<204.181 364.377> 703 20G<341.793 449>
VStem: 52 80<134.874 240 296 383.06> 432 76<296 392.877>
LayerCount: 2
Fore
SplineSet
356 723 m 1
 449 723 l 1
 315 578 l 1
 253 578 l 1
 356 723 l 1
132 296 m 1
 432 296 l 1
 432 395.148814757 384.862165491 466 285 466 c 0
 213.182603798 466 169.478293971 426.766876658 148 376 c 0
 137 350 132 324 132 296 c 1
286 527 m 0
 436.259392242 527 508 423.706883435 508 272 c 2
 508 240 l 1
 132 240 l 1
 132 132.717362005 183.194141941 52 291 52 c 0
 354.892913613 52 407.636520175 79.0799955023 425 129 c 1
 494 112 l 1
 466.82262826 38.2328481352 389.726077921 -10 292 -10 c 0
 188.193459799 -10 119.85453791 40.1336510747 83 112 c 0
 63 151 52 199 52 254 c 0
 52 364.712211375 91.4117123451 449.887362045 160 493 c 0
 195 515 237 527 286 527 c 0
EndSplineSet
EndChar

StartChar: ecircumflex
Encoding: 234 234 172
Width: 561
Flags: W
HStem: -10 62<207.587 377.15> 240 56<132 432> 466 61<204.181 364.377>
VStem: 52 80<134.874 240 296 383.06> 432 76<296 392.877>
LayerCount: 2
Fore
SplineSet
357 578 m 1
 286 641 l 1
 210 578 l 1
 135 578 l 1
 258 685 l 1
 315 685 l 1
 437 578 l 1
 357 578 l 1
132 296 m 1
 432 296 l 1
 432 395.148814757 384.862165491 466 285 466 c 0
 213.182603798 466 169.478293971 426.766876658 148 376 c 0
 137 350 132 324 132 296 c 1
286 527 m 0
 436.259392242 527 508 423.706883435 508 272 c 2
 508 240 l 1
 132 240 l 1
 132 132.717362005 183.194141941 52 291 52 c 0
 354.892913613 52 407.636520175 79.0799955023 425 129 c 1
 494 112 l 1
 466.82262826 38.2328481352 389.726077921 -10 292 -10 c 0
 188.193459799 -10 119.85453791 40.1336510747 83 112 c 0
 63 151 52 199 52 254 c 0
 52 364.712211375 91.4117123451 449.887362045 160 493 c 0
 195 515 237 527 286 527 c 0
EndSplineSet
EndChar

StartChar: edieresis
Encoding: 235 235 173
Width: 561
Flags: W
HStem: -10 62<207.587 377.15> 240 56<132 432> 466 61<204.181 364.377> 608 92<156.968 232.697 340.922 416.486>
VStem: 52 80<134.874 240 296 383.06> 149 91<615.38 691.597> 332 92<615.514 691.45> 432 76<296 392.877>
LayerCount: 2
Fore
SplineSet
194 608 m 0
 169.815295459 608 149 629.132147605 149 654 c 0
 149 678.378582406 172.501467943 700 195 700 c 0
 220.24338358 700 240 679.705104362 240 654 c 0
 240 628.594734377 219.179687704 608 194 608 c 0
378 608 m 0
 354.156313995 608 332 629.670913389 332 654 c 0
 332 677.298581501 356.32617288 700 378 700 c 0
 402.915199665 700 424 679.179687704 424 654 c 0
 424 629.656353742 402.329086611 608 378 608 c 0
132 296 m 1
 432 296 l 1
 432 395.148814757 384.862165491 466 285 466 c 0
 213.182603798 466 169.478293971 426.766876658 148 376 c 0
 137 350 132 324 132 296 c 1
286 527 m 0
 436.259392242 527 508 423.706883435 508 272 c 2
 508 240 l 1
 132 240 l 1
 132 132.717362005 183.194141941 52 291 52 c 0
 354.892913613 52 407.636520175 79.0799955023 425 129 c 1
 494 112 l 1
 466.82262826 38.2328481352 389.726077921 -10 292 -10 c 0
 188.193459799 -10 119.85453791 40.1336510747 83 112 c 0
 63 151 52 199 52 254 c 0
 52 364.712211375 91.4117123451 449.887362045 160 493 c 0
 195 515 237 527 286 527 c 0
EndSplineSet
EndChar

StartChar: igrave
Encoding: 236 236 174
Width: 251
Flags: W
HStem: 0 21G<88 164> 497 20G<88 164>
VStem: 88 76<0 517>
LayerCount: 2
Fore
SplineSet
54 723 m 1
 -39 723 l 1
 95 578 l 1
 157 578 l 1
 54 723 l 1
164 517 m 1
 164 0 l 1
 88 0 l 1
 88 517 l 1
 164 517 l 1
EndSplineSet
EndChar

StartChar: iacute
Encoding: 237 237 175
Width: 251
Flags: W
HStem: 0 21G<88 164> 497 20G<88 164> 703 20G<156.207 256>
VStem: 88 76<0 517>
LayerCount: 2
Fore
SplineSet
166 723 m 1
 256 723 l 1
 155 578 l 1
 95 578 l 1
 166 723 l 1
164 517 m 1
 164 0 l 1
 88 0 l 1
 88 517 l 1
 164 517 l 1
EndSplineSet
EndChar

StartChar: icircumflex
Encoding: 238 238 176
Width: 251
Flags: W
HStem: 0 21G<88 164> 497 20G<88 164>
VStem: 88 76<0 517>
LayerCount: 2
Fore
SplineSet
197 578 m 1
 126 641 l 1
 50 578 l 1
 -25 578 l 1
 98 685 l 1
 156 685 l 1
 277 578 l 1
 197 578 l 1
164 517 m 1
 164 0 l 1
 88 0 l 1
 88 517 l 1
 164 517 l 1
EndSplineSet
EndChar

StartChar: idieresis
Encoding: 239 239 177
Width: 251
Flags: W
HStem: 0 21G<108 184> 497 20G<108 184> 608 91<17.1358 93.4528 200.623 276.751>
VStem: 9 91<614.59 690.797> 108 76<0 517> 192 92<615.303 690.123>
LayerCount: 2
Fore
SplineSet
54 608 m 0
 28.7566164203 608 9 628.294895638 9 654 c 0
 9 677.914135318 33.1761444444 699 55 699 c 0
 79.7134508393 699 100 679.207732675 100 654 c 0
 100 627.760510077 80.243242869 608 54 608 c 0
238 608 m 0
 213.084800335 608 192 628.820312296 192 654 c 0
 192 676.793431664 216.888299232 699 238 699 c 0
 262.38472713 699 284 678.681497598 284 654 c 0
 284 628.819011933 263.395997359 608 238 608 c 0
184 517 m 1
 184 0 l 1
 108 0 l 1
 108 517 l 1
 184 517 l 1
EndSplineSet
EndChar

StartChar: eth
Encoding: 240 240 178
Width: 580
Flags: W
HStem: -10 63<210.673 367.048> 464 58<208.747 374.302> 706 20G<457.429 511>
VStem: 47 78<153.707 369.462> 449 83<151.131 379.95>
LayerCount: 2
Fore
SplineSet
211 551 m 1
 211 614 l 1
 333.712205634 659.81255677 l 1
 323.215669461 668.418749646 312.291030389 676.472646407 301 684 c 0
 277 700 255 715 234 726 c 1
 325 740 l 1
 353.98575101 723.821906413 379.706467045 705.801073732 402.296883729 685.417503259 c 1
 511 726 l 1
 511 664 l 1
 445.034394537 639.152955276 l 1
 487.481686823 583.61361598 513.575519082 513.395847345 525 422 c 0
 531 374 533 321 532 263 c 0
 529.891706795 151.260460114 487.538652244 72.3591014958 418 26 c 0
 382 2 341 -10 292 -10 c 0
 186.128869142 -10 114.803255635 46.39348873 78 120 c 0
 58 160 47 204 47 254 c 0
 47 339.330370251 74.5078189816 403.723221693 115 450 c 0
 152.691696834 493.076224953 210.138295813 522 286 522 c 0
 380.555853067 522 436.195318578 485.920994113 466 423 c 1
 453.68601807 502.161312407 422.837080134 565.134915161 380.093451561 614.691866755 c 1
 211 551 l 1
449 259 m 0
 449 377.452912841 406.765054342 464 290 464 c 0
 213.737184081 464 167.614612634 420.311768588 144 364 c 0
 131 333 125 297 125 258 c 0
 125 179.977864306 155.47761804 119.101984966 200 82 c 0
 224 62 254 53 289 53 c 0
 365.069135119 53 408.957030507 101.055662143 431 158 c 0
 443 189 449 223 449 259 c 0
EndSplineSet
EndChar

StartChar: ntilde
Encoding: 241 241 179
Width: 572
Flags: W
HStem: 0 21G<80 158 424 502> 460 65<221.262 375.995> 497 20G<80 155> 616 54<275.871 422.768> 640 58<177.076 321.669>
VStem: 80 78<0 412.423 442 517> 424 78<0 412.117>
LayerCount: 2
Fore
SplineSet
362 670 m 0x96
 392.184462922 670 410.298940907 682.909258635 429 696 c 1
 444 642 l 1
 425.016745357 627.762559018 397.917934161 616 362 616 c 0x96
 310.773739168 616 287.604704334 640 239 640 c 0
 206.361584456 640 190.378481009 627.564936707 171 614 c 1
 156 662 l 1
 176.362429165 680.51129924 197.701882571 698 235 698 c 0x8e
 284.481546657 698 313.327366164 670 362 670 c 0x96
424 330 m 2
 424 411.896522866 380.443537939 460 302 460 c 0xc6
 248.144922093 460 202.81141332 441.537124087 178 411 c 0
 165 395 158 375 158 350 c 2
 158 0 l 1
 80 0 l 1
 80 517 l 1
 155 517 l 1xa6
 155 442 l 1
 184.564698562 491.274497603 239.974954538 525 320 525 c 0xc6
 433.881118268 525 502 454.738879371 502 338 c 2
 502 0 l 1
 424 0 l 1
 424 330 l 2
EndSplineSet
EndChar

StartChar: ograve
Encoding: 242 242 180
Width: 560
Flags: W
HStem: -10 63<201.606 360.552> 464 63<200.203 359.776>
VStem: 48 78<139.938 378.548> 435 77<139.133 378.388>
LayerCount: 2
Fore
SplineSet
208 723 m 1
 115 723 l 1
 249 578 l 1
 311 578 l 1
 208 723 l 1
126 259 m 0
 126 143.924583213 167.597829667 53 282 53 c 0
 392.959111498 53 435 144.65361669 435 259 c 0
 435 371.547203095 393.679651225 464 282 464 c 0
 168.640556242 464 126 375.390991886 126 259 c 0
48 256 m 0
 48 416.116343096 123.108430106 527 282 527 c 0
 383.677768231 527 449.438492611 477.761068187 484 405 c 0
 503 365 512 315 512 256 c 0
 512 148.914834654 474.900123098 66.6412561222 409 24 c 0
 375 2 332 -10 281 -10 c 0
 123.891083952 -10 48 95.5126729635 48 256 c 0
EndSplineSet
EndChar

StartChar: oacute
Encoding: 243 243 181
Width: 560
Flags: W
HStem: -10 63<201.606 360.552> 464 63<200.203 359.776> 703 20G<335.793 443>
VStem: 48 78<139.938 378.548> 435 77<139.133 378.388>
LayerCount: 2
Fore
SplineSet
350 723 m 1
 443 723 l 1
 309 578 l 1
 247 578 l 1
 350 723 l 1
126 259 m 0
 126 143.924583213 167.597829667 53 282 53 c 0
 392.959111498 53 435 144.65361669 435 259 c 0
 435 371.547203095 393.679651225 464 282 464 c 0
 168.640556242 464 126 375.390991886 126 259 c 0
48 256 m 0
 48 416.116343096 123.108430106 527 282 527 c 0
 383.677768231 527 449.438492611 477.761068187 484 405 c 0
 503 365 512 315 512 256 c 0
 512 148.914834654 474.900123098 66.6412561222 409 24 c 0
 375 2 332 -10 281 -10 c 0
 123.891083952 -10 48 95.5126729635 48 256 c 0
EndSplineSet
EndChar

StartChar: ocircumflex
Encoding: 244 244 182
Width: 560
Flags: W
HStem: -10 63<201.606 360.552> 464 63<200.203 359.776>
VStem: 48 78<139.938 378.548> 435 77<139.133 378.388>
LayerCount: 2
Fore
SplineSet
351 578 m 1
 280 641 l 1
 204 578 l 1
 129 578 l 1
 253 685 l 1
 310 685 l 1
 431 578 l 1
 351 578 l 1
126 259 m 0
 126 143.924583213 167.597829667 53 282 53 c 0
 392.959111498 53 435 144.65361669 435 259 c 0
 435 371.547203095 393.679651225 464 282 464 c 0
 168.640556242 464 126 375.390991886 126 259 c 0
48 256 m 0
 48 416.116343096 123.108430106 527 282 527 c 0
 383.677768231 527 449.438492611 477.761068187 484 405 c 0
 503 365 512 315 512 256 c 0
 512 148.914834654 474.900123098 66.6412561222 409 24 c 0
 375 2 332 -10 281 -10 c 0
 123.891083952 -10 48 95.5126729635 48 256 c 0
EndSplineSet
EndChar

StartChar: otilde
Encoding: 245 245 183
Width: 560
Flags: W
HStem: -10 63<201.606 360.552> 464 63<200.203 359.776> 616 55<254.334 404.715> 641 57<160.601 306.403>
VStem: 48 78<139.938 378.548> 435 77<139.133 378.388>
LayerCount: 2
Fore
SplineSet
344 671 m 0xec
 376.079214758 671 391.527774023 683.369441816 411 697 c 1
 426 643 l 1
 406.563239094 628.422429321 381.002723226 616 344 616 c 0xec
 309.109258889 616 286.384191168 625.538602944 261 634 c 0
 249 638 236 641 221 641 c 0
 189.235720308 641 172.072058073 627.350440651 153 614 c 1
 137 663 l 1
 148 673 160 680 172 687 c 0
 184 694 199 698 217 698 c 0xdc
 266.341257266 698 294.379356495 671 344 671 c 0xec
126 259 m 0
 126 143.924583213 167.597829667 53 282 53 c 0
 392.959111498 53 435 144.65361669 435 259 c 0
 435 371.547203095 393.679651225 464 282 464 c 0
 168.640556242 464 126 375.390991886 126 259 c 0
48 256 m 0
 48 416.116343096 123.108430106 527 282 527 c 0
 383.677768231 527 449.438492611 477.761068187 484 405 c 0
 503 365 512 315 512 256 c 0
 512 148.914834654 474.900123098 66.6412561222 409 24 c 0
 375 2 332 -10 281 -10 c 0
 123.891083952 -10 48 95.5126729635 48 256 c 0
EndSplineSet
EndChar

StartChar: odieresis
Encoding: 246 246 184
Width: 560
Flags: W
HStem: -10 63<201.606 360.552> 464 63<200.203 359.776> 608 92<151.922 227.486 334.968 410.697>
VStem: 48 78<139.938 378.548> 143 92<615.514 691.45> 327 91<615.38 691.597> 435 77<139.133 378.388>
LayerCount: 2
Fore
SplineSet
189 608 m 0
 165.156313995 608 143 629.670913389 143 654 c 0
 143 677.298581501 167.32617288 700 189 700 c 0
 213.915199665 700 235 679.179687704 235 654 c 0
 235 629.656353742 213.329086611 608 189 608 c 0
372 608 m 0
 347.815295459 608 327 629.132147605 327 654 c 0
 327 678.378582406 350.501467943 700 373 700 c 0
 398.24338358 700 418 679.705104362 418 654 c 0
 418 628.594734377 397.179687704 608 372 608 c 0
126 259 m 0
 126 143.924583213 167.597829667 53 282 53 c 0
 392.959111498 53 435 144.65361669 435 259 c 0
 435 371.547203095 393.679651225 464 282 464 c 0
 168.640556242 464 126 375.390991886 126 259 c 0
48 256 m 0
 48 416.116343096 123.108430106 527 282 527 c 0
 383.677768231 527 449.438492611 477.761068187 484 405 c 0
 503 365 512 315 512 256 c 0
 512 148.914834654 474.900123098 66.6412561222 409 24 c 0
 375 2 332 -10 281 -10 c 0
 123.891083952 -10 48 95.5126729635 48 256 c 0
EndSplineSet
EndChar

StartChar: divide
Encoding: 247 247 185
Width: 545
Flags: W
HStem: 133 120<230.215 319.241> 332 62<62 483> 475 120<230.705 318.655>
VStem: 214 120<147.956 236.29 488.739 577.981>
LayerCount: 2
Fore
SplineSet
483 395 m 1
 483 332 l 1
 62 332 l 1
 62 394 l 1
 483 395 l 1
274 475 m 0
 241.24131425 475 214 501.980006894 214 535 c 0
 214 565.411902824 245.564030301 595 274 595 c 0
 305.687372009 595 334 566.893443795 334 535 c 0
 334 501.978149541 307.827464339 475 274 475 c 0
274 133 m 0
 242.312627991 133 214 160.827777519 214 193 c 0
 214 223.411902824 245.564030301 253 274 253 c 0
 306.75868575 253 334 225.745291291 334 193 c 0
 334 160.812667737 306.764729427 133 274 133 c 0
EndSplineSet
EndChar

StartChar: oslash
Encoding: 248 248 186
Width: 579
Flags: W
HStem: -10 63<205.339 366.307> 464 63<205.642 367.544> 500 20G<502.344 542.444>
VStem: 54 78<156.42 378.264> 441 77<138.986 356.022>
LayerCount: 2
Fore
SplineSet
54 256 m 0xb8
 54 415.492748891 128.801657906 527 287 527 c 0xd8
 362.762147006 527 418.900142936 499.879875496 456.949428718 456.046272251 c 1
 523 520 l 1
 558 484 l 1
 485.618218295 413.772437988 l 2
 487.131586234 410.888722915 488.592096196 407.964008009 490 405 c 0
 509 365 518 315 518 256 c 0
 518 149.047468099 480.623412029 66.4622077835 415 24 c 0
 381 2 338 -10 287 -10 c 0
 212.511670354 -10 156.12652529 14.1043033574 117.495935852 56.6061758566 c 1
 54 -5 l 1
 19 32 l 1
 87.9803292277 98.7904775062 l 1
 65.2660805588 141.345222709 54 194.74193192 54 256 c 0xb8
146.644529041 155.59232177 m 1
 405.034538907 405.779474179 l 1
 380.563418676 441.805063582 342.40849428 464 287 464 c 0
 174.360198077 464 132 374.711240609 132 259 c 0
 132 221.217374023 136.509757271 185.922126968 146.644529041 155.59232177 c 1
170.42654199 107.961466336 m 1
 195.096967649 73.8022528753 232.837864043 53 287 53 c 0
 398.688039476 53 441 143.964174933 441 259 c 0
 441 294.734590122 436.883273565 328.332944369 427.706139849 357.583933306 c 1
 170.42654199 107.961466336 l 1
EndSplineSet
EndChar

StartChar: ugrave
Encoding: 249 249 187
Width: 568
Flags: W
HStem: -10 63<199.811 363.054> 0 21G<432.367 496> 497 20G<72 150 419 496>
VStem: 72 78<99.4355 517> 419 77<103.539 517> 434 62<0 85.75>
LayerCount: 2
Fore
SplineSet
214 723 m 1x30
 120 723 l 1
 254 578 l 1
 316 578 l 1
 214 723 l 1x30
426 98 m 1
 409.46927185 29.12196604 354.164626253 -10 270 -10 c 0
 179.877724236 -10 115.553295028 28.1827509383 87 91 c 0
 77 113 72 139 72 168 c 2
 72 517 l 1
 150 517 l 1
 150 175 l 2
 150 95.0302064358 199.502412148 53 284 53 c 0
 366.669388278 53 419 96.8922353345 419 181 c 2
 419 517 l 1
 496 517 l 1xb8
 496 0 l 1
 434 0 l 1x74
 426 98 l 1
EndSplineSet
EndChar

StartChar: uacute
Encoding: 250 250 188
Width: 568
Flags: W
HStem: -10 63<199.811 363.054> 0 21G<432.367 496> 497 20G<72 150 419 496> 703 20G<341.793 449>
VStem: 72 78<99.4355 517> 419 77<103.539 517> 434 62<0 85.75>
LayerCount: 2
Fore
SplineSet
356 723 m 1x38
 449 723 l 1
 315 578 l 1
 253 578 l 1
 356 723 l 1x38
426 98 m 1
 409.46927185 29.12196604 354.164626253 -10 270 -10 c 0
 179.877724236 -10 115.553295028 28.1827509383 87 91 c 0
 77 113 72 139 72 168 c 2
 72 517 l 1
 150 517 l 1
 150 175 l 2
 150 95.0302064358 199.502412148 53 284 53 c 0
 366.669388278 53 419 96.8922353345 419 181 c 2
 419 517 l 1
 496 517 l 1xbc
 496 0 l 1
 434 0 l 1x7a
 426 98 l 1
EndSplineSet
EndChar

StartChar: ucircumflex
Encoding: 251 251 189
Width: 568
Flags: W
HStem: -10 63<199.811 363.054> 0 21G<432.367 496> 497 20G<72 150 419 496>
VStem: 72 78<99.4355 517> 419 77<103.539 517> 434 62<0 85.75>
LayerCount: 2
Fore
SplineSet
356 578 m 1x30
 286 641 l 1
 210 578 l 1
 134 578 l 1
 258 685 l 1
 315 685 l 1
 436 578 l 1
 356 578 l 1x30
426 98 m 1
 409.46927185 29.12196604 354.164626253 -10 270 -10 c 0
 179.877724236 -10 115.553295028 28.1827509383 87 91 c 0
 77 113 72 139 72 168 c 2
 72 517 l 1
 150 517 l 1
 150 175 l 2
 150 95.0302064358 199.502412148 53 284 53 c 0
 366.669388278 53 419 96.8922353345 419 181 c 2
 419 517 l 1
 496 517 l 1xb8
 496 0 l 1
 434 0 l 1x74
 426 98 l 1
EndSplineSet
EndChar

StartChar: udieresis
Encoding: 252 252 190
Width: 568
Flags: W
HStem: -10 63<199.811 363.054> 0 21G<432.367 496> 497 20G<72 150 419 496> 608 92<156.922 232.486 339.968 415.697>
VStem: 72 78<99.4355 517> 148 92<615.514 691.45> 332 91<615.38 691.597> 419 77<103.539 517> 434 62<0 85.75>
LayerCount: 2
Fore
SplineSet
194 608 m 0x34
 170.156313995 608 148 629.670913389 148 654 c 0
 148 677.298581501 172.32617288 700 194 700 c 0
 218.915199665 700 240 679.179687704 240 654 c 0
 240 629.656353742 218.329086611 608 194 608 c 0x34
377 608 m 0
 352.815295459 608 332 629.132147605 332 654 c 0
 332 678.378582406 355.501467943 700 378 700 c 0
 403.24338358 700 423 679.705104362 423 654 c 0x32
 423 628.594734377 402.179687704 608 377 608 c 0
426 98 m 1
 409.46927185 29.12196604 354.164626253 -10 270 -10 c 0
 179.877724236 -10 115.553295028 28.1827509383 87 91 c 0
 77 113 72 139 72 168 c 2
 72 517 l 1
 150 517 l 1
 150 175 l 2
 150 95.0302064358 199.502412148 53 284 53 c 0
 366.669388278 53 419 96.8922353345 419 181 c 2
 419 517 l 1
 496 517 l 1xb9
 496 0 l 1
 434 0 l 1x7080
 426 98 l 1
EndSplineSet
EndChar

StartChar: yacute
Encoding: 253 253 191
Width: 526
Flags: W
HStem: -165 62<48.25 181.65> -154 51<48 64> 497 20G<26 112.74 416.404 500> 703 20G<321.753 428>
LayerCount: 2
Fore
SplineSet
336 723 m 1x30
 428 723 l 1
 294 577 l 1
 232 577 l 1
 336 723 l 1x30
123 -165 m 0xb0
 94 -165 74 -163 64 -159 c 2
 48 -154 l 1
 48 -103 l 1x70
 102 -103 l 2
 146.117367492 -105.450964861 180.72114127 -92.7380027783 196 -66 c 0
 200 -59 205 -51 208 -44 c 2
 228 10 l 1
 26 517 l 1
 105 517 l 1
 266 101 l 1
 424 517 l 1
 500 517 l 1
 280 -48 l 2
 252.538408475 -116.653978812 213.028853953 -165 123 -165 c 0xb0
EndSplineSet
EndChar

StartChar: thorn
Encoding: 254 254 192
Width: 584
Flags: W
HStem: -161 21G<80 158> -10 58<216.868 373.31> 469 58<226.592 377.47> 703 20G<80 156.072>
VStem: 80 78<-161 33.8479 92.1607 411.694 444 723> 457 80<145.775 380.993>
LayerCount: 2
Fore
SplineSet
158 112 m 1
 191.569872995 78.430127005 231.067246569 48 292 48 c 0
 365.764110224 48 411.65053055 89.3440698281 436 145 c 0
 450 177 457 217 457 264 c 0
 457 352.726235736 430.156857736 416.991832988 377 448 c 0
 353 462 326 469 297 469 c 0
 241.931390986 469 198.427832765 440.641749148 176 407 c 0
 164 389 158 372 158 355 c 2
 158 112 l 1
156 723 m 1
 157 444 l 1
 165 452 175 464 188 477 c 0
 217.118686157 506.118686157 260.525336555 527 322 527 c 0
 414.034116381 527 474.800307464 478.399385072 508 412 c 0
 527 374 537 325 537 266 c 0
 537 152.119723479 498.507750579 67.3285444926 430 23 c 0
 396 1 357 -10 312 -10 c 0
 252.303177707 -10 204.651686095 13.4705050477 172 40 c 0
 161.486790033 48.7610083062 158 49.6029300486 158 33 c 2
 158 -161 l 1
 80 -161 l 1
 80 723 l 1
 156 723 l 1
EndSplineSet
EndChar

StartChar: ydieresis
Encoding: 255 255 193
Width: 526
Flags: W
HStem: -165 62<48.25 181.65> -154 51<48 64> 497 20G<26 112.74 416.404 500> 608 92<136.922 212.486 319.968 395.697>
VStem: 128 92<615.514 691.45> 312 91<615.38 691.597>
LayerCount: 2
Fore
SplineSet
174 608 m 0x3c
 150.156313995 608 128 629.670913389 128 654 c 0
 128 677.298581501 152.32617288 700 174 700 c 0
 198.915199665 700 220 679.179687704 220 654 c 0
 220 629.656353742 198.329086611 608 174 608 c 0x3c
357 608 m 0
 332.815295459 608 312 629.132147605 312 654 c 0
 312 678.378582406 335.501467943 700 358 700 c 0
 383.24338358 700 403 679.705104362 403 654 c 0
 403 628.594734377 382.179687704 608 357 608 c 0
123 -165 m 0xbc
 94 -165 74 -163 64 -159 c 2
 48 -154 l 1
 48 -103 l 1x7c
 102 -103 l 2
 146.117367492 -105.450964861 180.72114127 -92.7380027783 196 -66 c 0
 200 -59 205 -51 208 -44 c 2
 228 10 l 1
 26 517 l 1
 105 517 l 1
 266 101 l 1
 424 517 l 1
 500 517 l 1
 280 -48 l 2
 252.538408475 -116.653978812 213.028853953 -165 123 -165 c 0xbc
EndSplineSet
EndChar

StartChar: Amacron
Encoding: 256 256 194
Width: 706
Flags: W
HStem: 0 21G<45 132.379 572.816 661> 206 74<222 484> 703 20G<300.725 406.248> 828 57<211 495>
LayerCount: 2
Fore
SplineSet
495 885 m 1
 495 828 l 1
 211 828 l 1
 211 885 l 1
 495 885 l 1
222 280 m 1
 484 280 l 1
 354 645 l 1
 222 280 l 1
45 0 m 1
 308 723 l 1
 399 723 l 1
 661 0 l 1
 580 0 l 1
 506 206 l 1
 201 206 l 1
 125 0 l 1
 45 0 l 1
EndSplineSet
EndChar

StartChar: amacron
Encoding: 257 257 195
Width: 568
Flags: W
HStem: -10 58<165.735 320.158 440.5 532.18> 467 60<195.233 360.533> 622 57<138 422>
VStem: 52 76<84.6099 210.076> 402 74<46.123 100 115.541 271 324 425.888>
LayerCount: 2
Fore
SplineSet
422 679 m 1
 422 622 l 1
 138 622 l 1
 138 679 l 1
 422 679 l 1
128 145 m 0
 128 81.7571501818 179.19798011 48 244 48 c 0
 263 48 281 52 299 59 c 0
 334.792906075 72.9194634735 367.96069836 95.3833085607 387 125 c 0
 397 140 402 155 402 169 c 2
 402 271 l 1
 318 264 l 2
 223.663769945 257.09734902 128 242.56123908 128 145 c 0
404 100 m 1
 368.76658591 31.2109534432 314.095284119 -10 222 -10 c 0
 123.670432575 -10 52 40.8810147194 52 138 c 0
 52 195 72 238 111 266 c 0
 148 292 213 309 302 316 c 2
 402 324 l 1
 402 356 l 2
 402 430.243946675 354.876554719 467 276 467 c 0
 214.648576877 467 169.771920112 440.219270321 153 392 c 1
 83 409 l 1
 106.562721904 489.113254472 175.413781364 527 280 527 c 0
 360.600204296 527 430.368258499 501.411823138 454 452 c 0
 469 421 476 391 476 360 c 2
 476 92 l 2
 476 59 487 43 507 43 c 0
 513 43 522 45 533 50 c 1
 533 0 l 1
 509 -7 484 -10 458 -10 c 0
 423 -9 405 15 404 63 c 2
 404 100 l 1
EndSplineSet
EndChar

StartChar: Abreve
Encoding: 258 258 196
Width: 706
Flags: W
HStem: 0 21G<45 132.379 572.816 661> 206 74<222 484> 703 20G<300.725 406.248> 782 50<289.918 415.203>
LayerCount: 2
Fore
SplineSet
352 832 m 0
 395.135942373 832 426.203590188 853.542907168 438 885 c 1
 498 885 l 1
 482.855078857 821.391331199 430.296501203 782 352 782 c 0
 275.385846252 782 222.354911954 821.838387401 208 885 c 1
 268 885 l 1
 279.999036451 853.002569464 308.191242402 832 352 832 c 0
222 280 m 1
 484 280 l 1
 354 645 l 1
 222 280 l 1
45 0 m 1
 308 723 l 1
 399 723 l 1
 661 0 l 1
 580 0 l 1
 506 206 l 1
 201 206 l 1
 125 0 l 1
 45 0 l 1
EndSplineSet
EndChar

StartChar: abreve
Encoding: 259 259 197
Width: 568
Flags: W
HStem: -10 58<165.735 320.158 440.5 532.18> 467 60<195.233 360.533> 576 50<217.184 341.822>
VStem: 52 76<84.6099 210.076> 402 74<46.123 100 115.541 271 324 425.888>
LayerCount: 2
Fore
SplineSet
279 626 m 0
 320.629662072 626 353.576628286 648.537675429 365 679 c 1
 425 679 l 1
 410.048100709 616.202022978 356.068304113 576 279 576 c 0
 202.707837171 576 149.319403902 615.994622831 135 679 c 1
 195 679 l 1
 206.389326051 648.628463865 237.565667973 626 279 626 c 0
128 145 m 0
 128 81.7571501818 179.19798011 48 244 48 c 0
 263 48 281 52 299 59 c 0
 334.792906075 72.9194634735 367.96069836 95.3833085607 387 125 c 0
 397 140 402 155 402 169 c 2
 402 271 l 1
 318 264 l 2
 223.663769945 257.09734902 128 242.56123908 128 145 c 0
404 100 m 1
 368.76658591 31.2109534432 314.095284119 -10 222 -10 c 0
 123.670432575 -10 52 40.8810147194 52 138 c 0
 52 195 72 238 111 266 c 0
 148 292 213 309 302 316 c 2
 402 324 l 1
 402 356 l 2
 402 430.243946675 354.876554719 467 276 467 c 0
 214.648576877 467 169.771920112 440.219270321 153 392 c 1
 83 409 l 1
 106.562721904 489.113254472 175.413781364 527 280 527 c 0
 360.600204296 527 430.368258499 501.411823138 454 452 c 0
 469 421 476 391 476 360 c 2
 476 92 l 2
 476 59 487 43 507 43 c 0
 513 43 522 45 533 50 c 1
 533 0 l 1
 509 -7 484 -10 458 -10 c 0
 423 -9 405 15 404 63 c 2
 404 100 l 1
EndSplineSet
EndChar

StartChar: Aogonek
Encoding: 260 260 198
Width: 706
Flags: W
HStem: -166 46<569.583 686.207> 0 21G<45 132.379 658.325 660.64> 206 74<222 484> 703 20G<300.725 406.248>
VStem: 501 66<-115.902 -39.2732>
LayerCount: 2
Fore
SplineSet
598 -166 m 0
 540.239436325 -166 501 -142.021047374 501 -88 c 0
 501 -68 509 -50 523 -34 c 0
 533.848443365 -21.601779012 553.103224117 -9.80401069452 579.833774145 0.462736839519 c 1
 506 206 l 1
 201 206 l 1
 125 0 l 1
 45 0 l 1
 308 723 l 1
 399 723 l 1
 660.150623441 2.34389027431 l 1
 663 2 l 1
 662.208597792 1.66425360863 661.42179663 1.32908234807 660.6396241 0.994472425608 c 2
 661 0 l 1
 658.324835471 4.55364912444e-17 l 1
 627.63385314 -13.2422673533 604.283307296 -25.6211336767 590 -38 c 0
 575 -51 567 -66 567 -83 c 0
 567 -111.612366043 585.172519502 -120 616 -120 c 0
 642.538666709 -120 672.190894055 -112.872737297 687 -103 c 1
 687 -147 l 1
 668.527811379 -158.545117888 629.907402812 -166 598 -166 c 0
222 280 m 1
 484 280 l 1
 354 645 l 1
 222 280 l 1
EndSplineSet
EndChar

StartChar: aogonek
Encoding: 261 261 199
Width: 568
Flags: W
HStem: -164 46<382.122 497.186> -10 58<165.735 320.158 455.699 532.18> 467 60<195.233 360.533>
VStem: 52 76<84.6099 210.076> 312 66<-113.079 -37.8518> 402 74<44.7167 100 115.541 271 324 425.888>
LayerCount: 2
Fore
SplineSet
409 -164 m 0
 350.649346162 -164 312 -139.634034831 312 -85 c 0
 312 -65 320 -47 334 -31 c 0
 348 -15 376 0 416 12 c 1
 416.115564782 11.9860525263 l 1
 408.497397803 24.0015009101 404.458876209 40.9739419483 404 63 c 2
 404 100 l 1
 368.76658591 31.2109534432 314.095284119 -10 222 -10 c 0
 123.670432575 -10 52 40.8810147194 52 138 c 0
 52 195 72 238 111 266 c 0
 148 292 213 309 302 316 c 2
 402 324 l 1
 402 356 l 2
 402 430.243946675 354.876554719 467 276 467 c 0
 214.648576877 467 169.771920112 440.219270321 153 392 c 1
 83 409 l 1
 106.562721904 489.113254472 175.413781364 527 280 527 c 0
 360.600204296 527 430.368258499 501.411823138 454 452 c 0
 469 421 476 391 476 360 c 2
 476 92 l 2
 476 59 487 43 507 43 c 0
 513 43 522 45 533 50 c 1
 533 0 l 1
 509 -7 484 -10 458 -10 c 0
 453.398775235 -9.8685364353 449.091355841 -9.33957148719 445.077741818 -8.41083311508 c 0
 426.557951681 -17.859963151 412.198704408 -27.1611228454 402 -36 c 0
 387 -49 378 -63 378 -80 c 0
 378 -107.294294726 397.412447307 -118 427 -118 c 0
 454.698134083 -118 482.743586096 -110.170942603 498 -100 c 1
 498 -144 l 1
 478.989500416 -155.88156224 442.44495522 -164 409 -164 c 0
128 145 m 0
 128 81.7571501818 179.19798011 48 244 48 c 0
 263 48 281 52 299 59 c 0
 334.792906075 72.9194634735 367.96069836 95.3833085607 387 125 c 0
 397 140 402 155 402 169 c 2
 402 271 l 1
 318 264 l 2
 223.663769945 257.09734902 128 242.56123908 128 145 c 0
EndSplineSet
EndChar

StartChar: Cacute
Encoding: 262 262 200
Width: 680
Flags: W
HStem: -10 70<258.45 446.086> 524 21G<526.234 618> 664 69<257.184 448.222>
VStem: 56 86<199.928 522.602> 537 81<542.272 576.006>
LayerCount: 2
Fore
SplineSet
425 929 m 1
 518 929 l 1
 384 784 l 1
 322 784 l 1
 425 929 l 1
358 733 m 0
 463.39943186 733 541.015583582 683.411068461 584 618 c 0
 600 595 611 570 618 544 c 1
 537 524 l 1
 515.468123768 602.950212849 455.439744513 664 356 664 c 0
 190.785917158 664 142 534.079492268 142 362 c 0
 142 259 160 183 196 134 c 0
 232 85 286 60 356 60 c 0
 430.977625185 60 478.346632127 95.0199481909 509 141 c 0
 521 160 530 180 536 202 c 1
 618 182 l 1
 596.1419707 100.032390123 542.395015023 39.6292248531 467 9 c 0
 435 -4 399 -10 358 -10 c 0
 219.119460093 -10 134.800071253 58.7998337419 91 161 c 0
 67 217 56 284 56 363 c 0
 56 517.31399606 101.648908899 630.484852402 194 690 c 0
 239 719 294 733 358 733 c 0
EndSplineSet
EndChar

StartChar: cacute
Encoding: 263 263 201
Width: 539
Flags: W
HStem: -10 62<204.095 364.946> 462 65<200.669 363.919> 703 20G<338.793 446>
VStem: 48 76<140.638 374.25>
LayerCount: 2
Fore
SplineSet
353 723 m 1
 446 723 l 1
 312 578 l 1
 250 578 l 1
 353 723 l 1
284 52 m 0
 350.834033787 52 394.042757891 84.6175842003 412 134 c 1
 479 118 l 1
 463.158993929 67.8368141089 423.864864398 30.5601116269 378 10 c 0
 349 -3 317 -10 282 -10 c 0
 180.022980465 -10 113.054954072 37.8900918554 77 110 c 0
 57 150 48 198 48 257 c 0
 48 369.063454049 85.4585373249 447.958467385 154 493 c 0
 189 516 231 527 282 527 c 0
 384.701606004 527 451.736181387 473.896624607 479 396 c 1
 411 378 l 1
 393.933391342 429.199825973 350.558584011 462 283 462 c 0
 173.537476029 462 124 378.269698299 124 258 c 0
 124 141.888354009 171.276063177 52 284 52 c 0
EndSplineSet
EndChar

StartChar: Ccircumflex
Encoding: 264 264 202
Width: 680
Flags: W
HStem: -10 70<258.45 446.086> 524 21G<526.234 618> 664 69<257.184 448.222>
VStem: 56 86<199.928 522.602> 537 81<542.272 576.006>
LayerCount: 2
Fore
SplineSet
425 784 m 1
 354 847 l 1
 278 784 l 1
 203 784 l 1
 327 891 l 1
 384 891 l 1
 505 784 l 1
 425 784 l 1
358 733 m 0
 463.39943186 733 541.015583582 683.411068461 584 618 c 0
 600 595 611 570 618 544 c 1
 537 524 l 1
 515.468123768 602.950212849 455.439744513 664 356 664 c 0
 190.785917158 664 142 534.079492268 142 362 c 0
 142 259 160 183 196 134 c 0
 232 85 286 60 356 60 c 0
 430.977625185 60 478.346632127 95.0199481909 509 141 c 0
 521 160 530 180 536 202 c 1
 618 182 l 1
 596.1419707 100.032390123 542.395015023 39.6292248531 467 9 c 0
 435 -4 399 -10 358 -10 c 0
 219.119460093 -10 134.800071253 58.7998337419 91 161 c 0
 67 217 56 284 56 363 c 0
 56 517.31399606 101.648908899 630.484852402 194 690 c 0
 239 719 294 733 358 733 c 0
EndSplineSet
EndChar

StartChar: ccircumflex
Encoding: 265 265 203
Width: 539
Flags: W
HStem: -10 62<204.095 364.946> 462 65<200.669 363.919>
VStem: 48 76<140.638 374.25>
LayerCount: 2
Fore
SplineSet
354 578 m 1
 283 641 l 1
 207 578 l 1
 132 578 l 1
 255 685 l 1
 312 685 l 1
 434 578 l 1
 354 578 l 1
284 52 m 0
 350.834033787 52 394.042757891 84.6175842003 412 134 c 1
 479 118 l 1
 463.158993929 67.8368141089 423.864864398 30.5601116269 378 10 c 0
 349 -3 317 -10 282 -10 c 0
 180.022980465 -10 113.054954072 37.8900918554 77 110 c 0
 57 150 48 198 48 257 c 0
 48 369.063454049 85.4585373249 447.958467385 154 493 c 0
 189 516 231 527 282 527 c 0
 384.701606004 527 451.736181387 473.896624607 479 396 c 1
 411 378 l 1
 393.933391342 429.199825973 350.558584011 462 283 462 c 0
 173.537476029 462 124 378.269698299 124 258 c 0
 124 141.888354009 171.276063177 52 284 52 c 0
EndSplineSet
EndChar

StartChar: Cdotaccent
Encoding: 266 266 204
Width: 680
Flags: W
HStem: -10 70<258.45 446.086> 524 21G<526.234 618> 664 69<257.184 448.222> 814 92<316.922 392.486>
VStem: 56 86<199.928 522.602> 308 92<821.514 897.45> 537 81<542.272 576.006>
LayerCount: 2
Fore
SplineSet
354 814 m 0
 330.156313995 814 308 835.670913389 308 860 c 0
 308 883.298581501 332.32617288 906 354 906 c 0
 378.915199665 906 400 885.179687704 400 860 c 0
 400 835.656353742 378.329086611 814 354 814 c 0
358 733 m 0
 463.39943186 733 541.015583582 683.411068461 584 618 c 0
 600 595 611 570 618 544 c 1
 537 524 l 1
 515.468123768 602.950212849 455.439744513 664 356 664 c 0
 190.785917158 664 142 534.079492268 142 362 c 0
 142 259 160 183 196 134 c 0
 232 85 286 60 356 60 c 0
 430.977625185 60 478.346632127 95.0199481909 509 141 c 0
 521 160 530 180 536 202 c 1
 618 182 l 1
 596.1419707 100.032390123 542.395015023 39.6292248531 467 9 c 0
 435 -4 399 -10 358 -10 c 0
 219.119460093 -10 134.800071253 58.7998337419 91 161 c 0
 67 217 56 284 56 363 c 0
 56 517.31399606 101.648908899 630.484852402 194 690 c 0
 239 719 294 733 358 733 c 0
EndSplineSet
EndChar

StartChar: cdotaccent
Encoding: 267 267 205
Width: 539
Flags: W
HStem: -10 62<204.095 364.946> 462 65<200.669 363.919> 608 92<244.968 320.697>
VStem: 48 76<140.638 374.25> 237 91<615.38 691.597>
LayerCount: 2
Fore
SplineSet
282 608 m 0
 257.815295459 608 237 629.132147605 237 654 c 0
 237 678.378582406 260.501467943 700 283 700 c 0
 308.24338358 700 328 679.705104362 328 654 c 0
 328 628.594734377 307.179687704 608 282 608 c 0
284 52 m 0
 350.834033787 52 394.042757891 84.6175842003 412 134 c 1
 479 118 l 1
 463.158993929 67.8368141089 423.864864398 30.5601116269 378 10 c 0
 349 -3 317 -10 282 -10 c 0
 180.022980465 -10 113.054954072 37.8900918554 77 110 c 0
 57 150 48 198 48 257 c 0
 48 369.063454049 85.4585373249 447.958467385 154 493 c 0
 189 516 231 527 282 527 c 0
 384.701606004 527 451.736181387 473.896624607 479 396 c 1
 411 378 l 1
 393.933391342 429.199825973 350.558584011 462 283 462 c 0
 173.537476029 462 124 378.269698299 124 258 c 0
 124 141.888354009 171.276063177 52 284 52 c 0
EndSplineSet
EndChar

StartChar: Ccaron
Encoding: 268 268 206
Width: 680
Flags: W
HStem: -10 70<258.45 446.086> 524 21G<526.234 618> 664 69<257.184 448.222>
VStem: 56 86<199.928 522.602> 537 81<542.272 576.006>
LayerCount: 2
Fore
SplineSet
327 784 m 1
 202 892 l 1
 278 892 l 1
 354 826 l 1
 425 892 l 1
 505 892 l 1
 384 784 l 1
 327 784 l 1
358 733 m 0
 463.39943186 733 541.015583582 683.411068461 584 618 c 0
 600 595 611 570 618 544 c 1
 537 524 l 1
 515.468123768 602.950212849 455.439744513 664 356 664 c 0
 190.785917158 664 142 534.079492268 142 362 c 0
 142 259 160 183 196 134 c 0
 232 85 286 60 356 60 c 0
 430.977625185 60 478.346632127 95.0199481909 509 141 c 0
 521 160 530 180 536 202 c 1
 618 182 l 1
 596.1419707 100.032390123 542.395015023 39.6292248531 467 9 c 0
 435 -4 399 -10 358 -10 c 0
 219.119460093 -10 134.800071253 58.7998337419 91 161 c 0
 67 217 56 284 56 363 c 0
 56 517.31399606 101.648908899 630.484852402 194 690 c 0
 239 719 294 733 358 733 c 0
EndSplineSet
EndChar

StartChar: ccaron
Encoding: 269 269 207
Width: 539
Flags: W
HStem: -10 62<204.095 364.946> 462 65<200.669 363.919>
VStem: 48 76<140.638 374.25>
LayerCount: 2
Fore
SplineSet
255 578 m 1
 131 686 l 1
 207 686 l 1
 283 620 l 1
 354 686 l 1
 434 686 l 1
 312 578 l 1
 255 578 l 1
284 52 m 0
 350.834033787 52 394.042757891 84.6175842003 412 134 c 1
 479 118 l 1
 463.158993929 67.8368141089 423.864864398 30.5601116269 378 10 c 0
 349 -3 317 -10 282 -10 c 0
 180.022980465 -10 113.054954072 37.8900918554 77 110 c 0
 57 150 48 198 48 257 c 0
 48 369.063454049 85.4585373249 447.958467385 154 493 c 0
 189 516 231 527 282 527 c 0
 384.701606004 527 451.736181387 473.896624607 479 396 c 1
 411 378 l 1
 393.933391342 429.199825973 350.558584011 462 283 462 c 0
 173.537476029 462 124 378.269698299 124 258 c 0
 124 141.888354009 171.276063177 52 284 52 c 0
EndSplineSet
EndChar

StartChar: Dcaron
Encoding: 270 270 208
Width: 686
Flags: W
HStem: 0 69<180 383.515> 654 69<180 390.499>
VStem: 100 80<69 654> 548 82<226.728 503.567>
LayerCount: 2
Fore
SplineSet
309 784 m 1
 184 892 l 1
 260 892 l 1
 336 826 l 1
 408 892 l 1
 488 892 l 1
 366 784 l 1
 309 784 l 1
243 69 m 2
 445.981256336 69 548 158.248959152 548 364 c 0
 548 503.076236211 505.837711805 588.664915278 410 627 c 0
 365 645 311 654 248 654 c 2
 180 654 l 1
 180 69 l 1
 243 69 l 2
630 366 m 0
 630 113.86218671 497.7903213 0 244 0 c 2
 100 0 l 1
 100 723 l 1
 206 723 l 2
 223 723 239 722 254 722 c 0
 502.761019311 719.204932367 630 613.772659491 630 366 c 0
EndSplineSet
EndChar

StartChar: dcaron
Encoding: 271 271 209
Width: 594
Flags: W
HStem: -10 62<201.074 364.59> 0 21G<449.491 512> 464 63<200.489 357.091> 708 20G<579 649>
VStem: 48 79<138.049 384.536> 434 78<127.317 387.587 432 748> 451 61<0 92.75> 579 70<635 728>
LayerCount: 2
Fore
SplineSet
567 540 m 1x39
 604 630 l 1
 579 635 l 1
 579 728 l 1
 649 728 l 1
 649 630 l 1
 611 540 l 1
 567 540 l 1x39
127 266 m 0
 127 147.885644588 167.199559545 52 278 52 c 0
 335 52 374 68 398 102 c 0
 422 136 434 191 434 266 c 0xbd
 434 382.6155406 396.002161766 464 280 464 c 0
 234 464 197 448 169 416 c 0
 141 384 127 335 127 266 c 0
443 106 m 1
 419.68463375 36.0539012489 362.864757495 -10 266 -10 c 0
 115.757653589 -10 48 99.7832957887 48 260 c 0
 48 413.41415008 108.851680681 527 260 527 c 0
 332.477545913 527 383.168009729 498.905765887 415 460 c 0
 424 449 430 440 434 432 c 1
 434 748 l 1
 512 748 l 1xbd
 512 0 l 1
 451 0 l 1x7b
 443 106 l 1
EndSplineSet
EndChar

StartChar: Dcroat
Encoding: 272 272 210
Width: 695
Flags: W
HStem: 0 69<190 392.45> 330 65<35 108 190 359> 654 69<190 400.315>
VStem: 108 82<69 330 395 654> 558 82<226.827 501.136>
LayerCount: 2
Fore
SplineSet
558 364 m 0
 558 569.769744626 458.46276295 654 256 654 c 2
 190 654 l 1
 190 395 l 1
 359 395 l 1
 359 330 l 1
 190 330 l 1
 190 69 l 1
 252 69 l 2
 455.077467675 69 558 158.010898387 558 364 c 0
640 366 m 0
 640 114.638631457 506.346318587 0 253 0 c 2
 108 0 l 1
 108 330 l 1
 35 330 l 1
 35 395 l 1
 108 395 l 1
 108 723 l 1
 215 723 l 2
 232 723 249 722 264 722 c 0
 512.285851882 719.210271327 640 612.805813096 640 366 c 0
EndSplineSet
EndChar

StartChar: dcroat
Encoding: 273 273 211
Width: 611
Flags: W
HStem: -10 62<201.074 364.59> 0 21G<449.491 512> 464 63<200.489 357.091> 600 52<280 434 512 581>
VStem: 48 79<138.049 384.536> 434 78<127.317 387.587 432 600 652 743> 451 61<0 92.75>
LayerCount: 2
Fore
SplineSet
127 266 m 0xbc
 127 147.885644588 167.199559545 52 278 52 c 0
 335 52 374 68 398 102 c 0
 422 136 434 191 434 266 c 0
 434 382.6155406 396.002161766 464 280 464 c 0
 234 464 197 448 169 416 c 0
 141 384 127 335 127 266 c 0xbc
443 106 m 1
 419.68463375 36.0539012489 362.864757495 -10 266 -10 c 0
 115.757653589 -10 48 99.7832957887 48 260 c 0
 48 413.41415008 108.851680681 527 260 527 c 0
 332.477545913 527 383.168009729 498.905765887 415 460 c 0
 424 449 430 440 434 432 c 1
 434 600 l 1
 280 600 l 1
 280 652 l 1
 434 652 l 1
 434 743 l 1
 512 743 l 1
 512 652 l 1
 581 652 l 1
 581 600 l 1
 512 600 l 1xbc
 512 0 l 1
 451 0 l 1x7a
 443 106 l 1
EndSplineSet
EndChar

StartChar: Emacron
Encoding: 274 274 212
Width: 617
Flags: W
HStem: 0 72<178 555> 330 70<178 510> 653 70<178 544> 828 57<182 466>
VStem: 100 78<72 330 400 653>
LayerCount: 2
Fore
SplineSet
466 885 m 1
 466 828 l 1
 182 828 l 1
 182 885 l 1
 466 885 l 1
100 0 m 1
 100 723 l 1
 544 723 l 1
 544 653 l 1
 178 653 l 1
 178 400 l 1
 510 400 l 1
 510 330 l 1
 178 330 l 1
 178 72 l 1
 555 72 l 1
 555 0 l 1
 100 0 l 1
EndSplineSet
EndChar

StartChar: emacron
Encoding: 275 275 213
Width: 561
Flags: W
HStem: -10 62<207.587 377.15> 240 56<132 432> 466 61<204.181 364.377> 622 57<144 428>
VStem: 52 80<134.874 240 296 383.06> 432 76<296 392.877>
LayerCount: 2
Fore
SplineSet
428 679 m 1
 428 622 l 1
 144 622 l 1
 144 679 l 1
 428 679 l 1
132 296 m 1
 432 296 l 1
 432 395.148814757 384.862165491 466 285 466 c 0
 213.182603798 466 169.478293971 426.766876658 148 376 c 0
 137 350 132 324 132 296 c 1
286 527 m 0
 436.259392242 527 508 423.706883435 508 272 c 2
 508 240 l 1
 132 240 l 1
 132 132.717362005 183.194141941 52 291 52 c 0
 354.892913613 52 407.636520175 79.0799955023 425 129 c 1
 494 112 l 1
 466.82262826 38.2328481352 389.726077921 -10 292 -10 c 0
 188.193459799 -10 119.85453791 40.1336510747 83 112 c 0
 63 151 52 199 52 254 c 0
 52 364.712211375 91.4117123451 449.887362045 160 493 c 0
 195 515 237 527 286 527 c 0
EndSplineSet
EndChar

StartChar: Ebreve
Encoding: 276 276 214
Width: 617
Flags: W
HStem: 0 72<178 555> 330 70<178 510> 653 70<178 544> 782 50<260.055 385.37>
VStem: 100 78<72 330 400 653>
LayerCount: 2
Fore
SplineSet
322 832 m 0
 365.984559183 832 395.962523454 852.900062545 408 885 c 1
 468 885 l 1
 452.741068074 820.912485911 400.804148212 782 322 782 c 0
 245.707837171 782 192.319403902 821.994622831 178 885 c 1
 238 885 l 1
 249.753976588 853.656062431 279.069576297 832 322 832 c 0
100 0 m 1
 100 723 l 1
 544 723 l 1
 544 653 l 1
 178 653 l 1
 178 400 l 1
 510 400 l 1
 510 330 l 1
 178 330 l 1
 178 72 l 1
 555 72 l 1
 555 0 l 1
 100 0 l 1
EndSplineSet
EndChar

StartChar: ebreve
Encoding: 277 277 215
Width: 561
Flags: W
HStem: -10 62<207.587 377.15> 240 56<132 432> 466 61<204.181 364.377> 576 50<223.055 348.37>
VStem: 52 80<134.874 240 296 383.06> 432 76<296 392.877>
LayerCount: 2
Fore
SplineSet
285 626 m 0
 328.984559183 626 358.962523454 646.900062545 371 679 c 1
 431 679 l 1
 415.741068074 614.912485911 363.804148212 576 285 576 c 0
 208.707837171 576 155.319403902 615.994622831 141 679 c 1
 201 679 l 1
 212.753976588 647.656062431 242.069576297 626 285 626 c 0
132 296 m 1
 432 296 l 1
 432 395.148814757 384.862165491 466 285 466 c 0
 213.182603798 466 169.478293971 426.766876658 148 376 c 0
 137 350 132 324 132 296 c 1
286 527 m 0
 436.259392242 527 508 423.706883435 508 272 c 2
 508 240 l 1
 132 240 l 1
 132 132.717362005 183.194141941 52 291 52 c 0
 354.892913613 52 407.636520175 79.0799955023 425 129 c 1
 494 112 l 1
 466.82262826 38.2328481352 389.726077921 -10 292 -10 c 0
 188.193459799 -10 119.85453791 40.1336510747 83 112 c 0
 63 151 52 199 52 254 c 0
 52 364.712211375 91.4117123451 449.887362045 160 493 c 0
 195 515 237 527 286 527 c 0
EndSplineSet
EndChar

StartChar: Edotaccent
Encoding: 278 278 216
Width: 617
Flags: W
HStem: 0 72<178 555> 330 70<178 510> 653 70<178 544> 814 92<285.968 361.697>
VStem: 100 78<72 330 400 653> 278 91<821.38 897.597>
LayerCount: 2
Fore
SplineSet
323 814 m 0
 298.815295459 814 278 835.132147605 278 860 c 0
 278 884.378582406 301.501467943 906 324 906 c 0
 349.24338358 906 369 885.705104362 369 860 c 0
 369 834.594734377 348.179687704 814 323 814 c 0
100 0 m 1
 100 723 l 1
 544 723 l 1
 544 653 l 1
 178 653 l 1
 178 400 l 1
 510 400 l 1
 510 330 l 1
 178 330 l 1
 178 72 l 1
 555 72 l 1
 555 0 l 1
 100 0 l 1
EndSplineSet
EndChar

StartChar: edotaccent
Encoding: 279 279 217
Width: 561
Flags: W
HStem: -10 62<207.587 377.15> 240 56<132 432> 466 61<204.181 364.377> 608 92<248.922 324.486>
VStem: 52 80<134.874 240 296 383.06> 240 92<615.514 691.45> 432 76<296 392.877>
LayerCount: 2
Fore
SplineSet
286 608 m 0
 262.156313995 608 240 629.670913389 240 654 c 0
 240 677.298581501 264.32617288 700 286 700 c 0
 310.915199665 700 332 679.179687704 332 654 c 0
 332 629.656353742 310.329086611 608 286 608 c 0
132 296 m 1
 432 296 l 1
 432 395.148814757 384.862165491 466 285 466 c 0
 213.182603798 466 169.478293971 426.766876658 148 376 c 0
 137 350 132 324 132 296 c 1
286 527 m 0
 436.259392242 527 508 423.706883435 508 272 c 2
 508 240 l 1
 132 240 l 1
 132 132.717362005 183.194141941 52 291 52 c 0
 354.892913613 52 407.636520175 79.0799955023 425 129 c 1
 494 112 l 1
 466.82262826 38.2328481352 389.726077921 -10 292 -10 c 0
 188.193459799 -10 119.85453791 40.1336510747 83 112 c 0
 63 151 52 199 52 254 c 0
 52 364.712211375 91.4117123451 449.887362045 160 493 c 0
 195 515 237 527 286 527 c 0
EndSplineSet
EndChar

StartChar: Eogonek
Encoding: 280 280 218
Width: 617
Flags: W
HStem: -167 46<466.693 583.205> 0 72<178 477.931> 330 70<178 510> 653 70<178 544>
VStem: 100 78<72 330 400 653> 398 66<-116.278 -40.855>
LayerCount: 2
Fore
SplineSet
495 -167 m 0
 436.649346162 -167 398 -142.634034831 398 -88 c 0
 398 -68 406 -50 420 -34 c 0
 430.996296449 -21.4328040586 450.629631154 -10.0994707253 477.930867042 -2.8449465006e-16 c 1
 100 0 l 1
 100 723 l 1
 544 723 l 1
 544 653 l 1
 178 653 l 1
 178 400 l 1
 510 400 l 1
 510 330 l 1
 178 330 l 1
 178 72 l 1
 555 72 l 1
 555 2.51724137931 l 1
 560 2 l 1
 527 -12 503 -26 488 -39 c 0
 473 -52 464 -67 464 -84 c 0
 464 -111.710965817 482.893174686 -121 513 -121 c 0
 539.538666709 -121 569.190894055 -113.872737297 584 -104 c 1
 584 -148 l 1
 565.428470442 -159.607205974 527.270700402 -167 495 -167 c 0
EndSplineSet
EndChar

StartChar: eogonek
Encoding: 281 281 219
Width: 561
Flags: W
HStem: -157 46<303.693 420.205> 240 56<132 432> 466 61<204.181 364.377>
VStem: 52 80<134.874 240 296 383.06> 235 66<-106.278 -30.1592> 432 76<296 392.877>
LayerCount: 2
Fore
SplineSet
332 -157 m 0
 273.649346162 -157 235 -132.634034831 235 -78 c 0
 235 -58 243 -40 257 -24 c 0
 261.402276604 -18.968826738 267.18884173 -14.1354089791 274.29751149 -9.49974672321 c 1
 180.373253513 -4.11231119021 117.717305835 44.3012536216 83 112 c 0
 63 151 52 199 52 254 c 0
 52 364.712211375 91.4117123451 449.887362045 160 493 c 0
 195 515 237 527 286 527 c 0
 436.259392242 527 508 423.706883435 508 272 c 2
 508 240 l 1
 132 240 l 1
 132 132.717362005 183.194141941 52 291 52 c 0
 354.892913613 52 407.636520175 79.0799955023 425 129 c 1
 494 112 l 1
 475.835464024 62.6962594944 435.371119372 24.7991587579 381.352065537 5.08587082596 c 0
 356.034927532 -6.58526398272 336.529071801 -18.1414712414 324 -29 c 0
 309 -42 301 -57 301 -74 c 0
 301 -101.710965817 319.893174686 -111 350 -111 c 0
 376.538666709 -111 406.190894055 -103.872737297 421 -94 c 1
 421 -138 l 1
 402.428470442 -149.607205974 364.270700402 -157 332 -157 c 0
132 296 m 1
 432 296 l 1
 432 395.148814757 384.862165491 466 285 466 c 0
 213.182603798 466 169.478293971 426.766876658 148 376 c 0
 137 350 132 324 132 296 c 1
EndSplineSet
EndChar

StartChar: Ecaron
Encoding: 282 282 220
Width: 617
Flags: W
HStem: 0 72<178 555> 330 70<178 510> 653 70<178 544>
VStem: 100 78<72 330 400 653>
LayerCount: 2
Fore
SplineSet
296 784 m 1
 172 892 l 1
 248 892 l 1
 324 826 l 1
 394 892 l 1
 474 892 l 1
 353 784 l 1
 296 784 l 1
100 0 m 1
 100 723 l 1
 544 723 l 1
 544 653 l 1
 178 653 l 1
 178 400 l 1
 510 400 l 1
 510 330 l 1
 178 330 l 1
 178 72 l 1
 555 72 l 1
 555 0 l 1
 100 0 l 1
EndSplineSet
EndChar

StartChar: ecaron
Encoding: 283 283 221
Width: 561
Flags: W
HStem: -10 62<207.587 377.15> 240 56<132 432> 466 61<204.181 364.377>
VStem: 52 80<134.874 240 296 383.06> 432 76<296 392.877>
LayerCount: 2
Fore
SplineSet
258 578 m 1
 133 686 l 1
 209 686 l 1
 285 620 l 1
 356 686 l 1
 436 686 l 1
 315 578 l 1
 258 578 l 1
132 296 m 1
 432 296 l 1
 432 395.148814757 384.862165491 466 285 466 c 0
 213.182603798 466 169.478293971 426.766876658 148 376 c 0
 137 350 132 324 132 296 c 1
286 527 m 0
 436.259392242 527 508 423.706883435 508 272 c 2
 508 240 l 1
 132 240 l 1
 132 132.717362005 183.194141941 52 291 52 c 0
 354.892913613 52 407.636520175 79.0799955023 425 129 c 1
 494 112 l 1
 466.82262826 38.2328481352 389.726077921 -10 292 -10 c 0
 188.193459799 -10 119.85453791 40.1336510747 83 112 c 0
 63 151 52 199 52 254 c 0
 52 364.712211375 91.4117123451 449.887362045 160 493 c 0
 195 515 237 527 286 527 c 0
EndSplineSet
EndChar

StartChar: Gcircumflex
Encoding: 284 284 222
Width: 726
Flags: W
HStem: -10 72<263.993 453.691> 0 21G<578 638> 313 59<375 558> 526 21G<541.019 626.095> 662 71<262.736 445.801>
VStem: 56 84<207.68 516.415> 556 82<165.099 313> 578 60<0 114>
LayerCount: 2
Fore
SplineSet
430 784 m 1x3c
 359 847 l 1
 283 784 l 1
 208 784 l 1
 332 891 l 1
 388 891 l 1
 510 784 l 1
 430 784 l 1x3c
578 114 m 1x7d
 537.208336211 44.9679535881 468.433221778 -10 358 -10 c 0
 220.694810548 -10 135.804404236 58.61490696 92 159 c 0
 68 214 56 281 56 360 c 0
 56 515.304833924 104.062552738 629.778565856 198 689 c 0
 244 718 297 733 360 733 c 0
 430.41926016 733 475.543755405 714.079014382 527 681 c 0
 566.617535657 654.116672233 607.067655052 604.33086237 630 547 c 1
 548 526 l 1
 534.038137555 572.539541482 479.347414986 620.944334294 446 640 c 0
 420 655 392 662 360 662 c 0
 258.844833782 662 198.649201908 608.364715775 167 531 c 0
 149 487 140 430 140 362 c 0
 140 221.950357935 177.574443533 120.966913985 272 79 c 0
 299 67 330 62 362 62 c 0
 428.15701016 62 474.676116206 88.760630732 506 124 c 0
 533.468261866 154.699822085 553.433448898 197.802080168 556 244 c 2xbe
 558 313 l 1
 375 313 l 1
 375 372 l 1
 638 372 l 1
 638 0 l 1
 578 0 l 1
 578 114 l 1x7d
EndSplineSet
EndChar

StartChar: gcircumflex
Encoding: 285 285 223
Width: 619
Flags: W
HStem: -171 53<171.992 419.14> 200 53<204.371 383.051> 454 78<539.611 575> 473 52<206.619 381.126>
VStem: 42 78<-75.4261 29.9025> 81 78<295.26 428.146> 88 75<141.02 186.774> 428 75<295.508 429.589> 465 76<-78.3476 26.5596>
LayerCount: 2
Fore
SplineSet
369 577 m 1xc0
 298 641 l 1
 222 577 l 1
 147 577 l 1
 271 685 l 1
 328 685 l 1
 449 577 l 1
 369 577 l 1xc0
159 361 m 0xd5
 159 285.646278424 215.886643436 253 295 253 c 0
 370.944648682 253 428 286.694924151 428 361 c 0
 428 436.804997728 372.10266072 473 295 473 c 0
 216.348735534 473 159 438.197442755 159 361 c 0xd5
307 -118 m 0
 387.932526655 -118 465 -96.791712781 465 -24 c 0
 465 28.7836227488 421.664507495 51.6263934851 366 55 c 2
 214 65 l 2
 182.532603313 67.6222830572 149.556547353 43.3791662946 135 23 c 0
 125 9 120 -7 120 -24 c 0xc880
 120 -53 135 -76 165 -93 c 0
 195 -110 243 -118 307 -118 c 0
484 436 m 1
 494.43748178 416.864616737 503 389.233656372 503 362 c 0
 503 290.154066214 463.925509363 245.353455841 410 221 c 0
 379 207 339 200 292 200 c 0
 283.666666667 200 275.333333333 200 267 200 c 0
 227 199 200 195 185 187 c 0
 170 179 163 171 163 162 c 0xe3
 163 152 170 145 185 141 c 0
 229.108015762 129.237862463 317.560470667 128.953294111 377 124 c 0
 469.537202632 118.661315233 541 78.2671425181 541 -14 c 0
 541 -60 521 -98 480 -127 c 0
 439 -156 376 -171 292 -171 c 0
 214 -171 152 -160 108 -136 c 0
 64 -112 42 -78 42 -33 c 0xe880
 42 24.7479763431 82.3811997652 50.6287198591 118 72 c 0
 128 78 136 81 139 84 c 1
 117.525378823 98.3164141178 88 109.559938185 88 146 c 0xe2
 88 162 95 176 110 189 c 0
 125 202 147 212 176 219 c 1
 126.300945987 244.706407248 81 291.248554678 81 361 c 0
 81 435.448760246 124.440347018 482.324985189 182 505 c 0
 215 518 254 525 301 525 c 0xd4
 368.552444733 525 409.746491727 508.440131204 449 479 c 1
 454 481 462 485 473 490 c 0
 503.226117669 503.739144395 546.738409219 517.869204609 575 532 c 1
 575 454 l 1xe4
 484 436 l 1
EndSplineSet
EndChar

StartChar: Gbreve
Encoding: 286 286 224
Width: 726
Flags: W
HStem: -10 72<263.993 453.691> 0 21G<578 638> 313 59<375 558> 526 21G<541.019 626.095> 662 71<262.736 445.801> 782 50<296.055 421.37>
VStem: 56 84<207.68 516.415> 556 82<165.099 313> 578 60<0 114>
LayerCount: 2
Fore
SplineSet
358 832 m 0x3e
 401.984559183 832 431.962523454 852.900062545 444 885 c 1
 504 885 l 1
 488.741068074 820.912485911 436.804148212 782 358 782 c 0
 281.707837171 782 228.319403902 821.994622831 214 885 c 1
 274 885 l 1
 285.753976588 853.656062431 315.069576297 832 358 832 c 0x3e
578 114 m 1x7e80
 537.208336211 44.9679535881 468.433221778 -10 358 -10 c 0
 220.694810548 -10 135.804404236 58.61490696 92 159 c 0
 68 214 56 281 56 360 c 0
 56 515.304833924 104.062552738 629.778565856 198 689 c 0
 244 718 297 733 360 733 c 0
 430.41926016 733 475.543755405 714.079014382 527 681 c 0
 566.617535657 654.116672233 607.067655052 604.33086237 630 547 c 1
 548 526 l 1
 534.038137555 572.539541482 479.347414986 620.944334294 446 640 c 0
 420 655 392 662 360 662 c 0
 258.844833782 662 198.649201908 608.364715775 167 531 c 0
 149 487 140 430 140 362 c 0
 140 221.950357935 177.574443533 120.966913985 272 79 c 0
 299 67 330 62 362 62 c 0
 428.15701016 62 474.676116206 88.760630732 506 124 c 0
 533.468261866 154.699822085 553.433448898 197.802080168 556 244 c 2xbf
 558 313 l 1
 375 313 l 1
 375 372 l 1
 638 372 l 1
 638 0 l 1
 578 0 l 1
 578 114 l 1x7e80
EndSplineSet
EndChar

StartChar: gbreve
Encoding: 287 287 225
Width: 619
Flags: W
HStem: -171 53<171.992 419.14> 200 53<204.371 383.051> 454 78<539.611 575> 473 52<206.619 381.126> 576 49<235.849 360.407>
VStem: 42 78<-75.4261 29.9025> 81 78<295.26 428.146> 88 75<141.02 186.774> 428 75<295.508 429.589> 465 76<-78.3476 26.5596>
LayerCount: 2
Fore
SplineSet
298 625 m 0xc8
 340.392247814 625 372.365869364 647.975651638 384 679 c 1
 444 679 l 1
 428.976792926 615.902530291 375.736318132 576 298 576 c 0
 220.688900871 576 168.538415821 615.030970388 154 679 c 1
 214 679 l 1
 225.844423255 647.414871321 254.917538256 625 298 625 c 0xc8
159 361 m 0xda80
 159 285.646278424 215.886643436 253 295 253 c 0
 370.944648682 253 428 286.694924151 428 361 c 0
 428 436.804997728 372.10266072 473 295 473 c 0
 216.348735534 473 159 438.197442755 159 361 c 0xda80
307 -118 m 0
 387.932526655 -118 465 -96.791712781 465 -24 c 0
 465 28.7836227488 421.664507495 51.6263934851 366 55 c 2
 214 65 l 2
 182.532603313 67.6222830572 149.556547353 43.3791662946 135 23 c 0
 125 9 120 -7 120 -24 c 0xcc40
 120 -53 135 -76 165 -93 c 0
 195 -110 243 -118 307 -118 c 0
484 436 m 1
 494.43748178 416.864616737 503 389.233656372 503 362 c 0
 503 290.154066214 463.925509363 245.353455841 410 221 c 0
 379 207 339 200 292 200 c 0
 283.666666667 200 275.333333333 200 267 200 c 0
 227 199 200 195 185 187 c 0
 170 179 163 171 163 162 c 0xe980
 163 152 170 145 185 141 c 0
 229.108015762 129.237862463 317.560470667 128.953294111 377 124 c 0
 469.537202632 118.661315233 541 78.2671425181 541 -14 c 0
 541 -60 521 -98 480 -127 c 0
 439 -156 376 -171 292 -171 c 0
 214 -171 152 -160 108 -136 c 0
 64 -112 42 -78 42 -33 c 0xec40
 42 24.7479763431 82.3811997652 50.6287198591 118 72 c 0
 128 78 136 81 139 84 c 1
 117.525378823 98.3164141178 88 109.559938185 88 146 c 0xe9
 88 162 95 176 110 189 c 0
 125 202 147 212 176 219 c 1
 126.300945987 244.706407248 81 291.248554678 81 361 c 0
 81 435.448760246 124.440347018 482.324985189 182 505 c 0
 215 518 254 525 301 525 c 0xda
 368.552444733 525 409.746491727 508.440131204 449 479 c 1
 454 481 462 485 473 490 c 0
 503.226117669 503.739144395 546.738409219 517.869204609 575 532 c 1
 575 454 l 1xea
 484 436 l 1
EndSplineSet
EndChar

StartChar: Gdotaccent
Encoding: 288 288 226
Width: 726
Flags: W
HStem: -10 72<263.993 453.691> 0 21G<578 638> 313 59<375 558> 526 21G<541.019 626.095> 662 71<262.736 445.801> 814 92<321.922 397.486>
VStem: 56 84<207.68 516.415> 313 92<821.514 897.45> 556 82<165.099 313> 578 60<0 114>
LayerCount: 2
Fore
SplineSet
359 814 m 0x3f
 335.156313995 814 313 835.670913389 313 860 c 0
 313 883.298581501 337.32617288 906 359 906 c 0
 383.915199665 906 405 885.179687704 405 860 c 0
 405 835.656353742 383.329086611 814 359 814 c 0x3f
578 114 m 1x7f40
 537.208336211 44.9679535881 468.433221778 -10 358 -10 c 0
 220.694810548 -10 135.804404236 58.61490696 92 159 c 0
 68 214 56 281 56 360 c 0
 56 515.304833924 104.062552738 629.778565856 198 689 c 0
 244 718 297 733 360 733 c 0
 430.41926016 733 475.543755405 714.079014382 527 681 c 0
 566.617535657 654.116672233 607.067655052 604.33086237 630 547 c 1
 548 526 l 1
 534.038137555 572.539541482 479.347414986 620.944334294 446 640 c 0
 420 655 392 662 360 662 c 0
 258.844833782 662 198.649201908 608.364715775 167 531 c 0
 149 487 140 430 140 362 c 0
 140 221.950357935 177.574443533 120.966913985 272 79 c 0
 299 67 330 62 362 62 c 0
 428.15701016 62 474.676116206 88.760630732 506 124 c 0
 533.468261866 154.699822085 553.433448898 197.802080168 556 244 c 2xbf80
 558 313 l 1
 375 313 l 1
 375 372 l 1
 638 372 l 1
 638 0 l 1
 578 0 l 1
 578 114 l 1x7f40
EndSplineSet
EndChar

StartChar: gdotaccent
Encoding: 289 289 227
Width: 619
Flags: W
HStem: -171 53<171.992 419.14> 200 53<204.371 383.051> 454 78<539.611 575> 473 52<206.619 381.126> 608 92<260.922 336.486>
VStem: 42 78<-75.4261 29.9025> 81 78<295.26 428.146> 88 75<141.02 186.774> 252 92<615.514 691.45> 428 75<295.508 429.589> 465 76<-78.3476 26.5596>
LayerCount: 2
Fore
SplineSet
298 608 m 0xc880
 274.156313995 608 252 629.670913389 252 654 c 0
 252 677.298581501 276.32617288 700 298 700 c 0
 322.915199665 700 344 679.179687704 344 654 c 0
 344 629.656353742 322.329086611 608 298 608 c 0xc880
159 361 m 0xdac0
 159 285.646278424 215.886643436 253 295 253 c 0
 370.944648682 253 428 286.694924151 428 361 c 0
 428 436.804997728 372.10266072 473 295 473 c 0
 216.348735534 473 159 438.197442755 159 361 c 0xdac0
307 -118 m 0
 387.932526655 -118 465 -96.791712781 465 -24 c 0
 465 28.7836227488 421.664507495 51.6263934851 366 55 c 2
 214 65 l 2
 182.532603313 67.6222830572 149.556547353 43.3791662946 135 23 c 0
 125 9 120 -7 120 -24 c 0xcca0
 120 -53 135 -76 165 -93 c 0
 195 -110 243 -118 307 -118 c 0
484 436 m 1
 494.43748178 416.864616737 503 389.233656372 503 362 c 0
 503 290.154066214 463.925509363 245.353455841 410 221 c 0
 379 207 339 200 292 200 c 0
 283.666666667 200 275.333333333 200 267 200 c 0
 227 199 200 195 185 187 c 0
 170 179 163 171 163 162 c 0xe9c0
 163 152 170 145 185 141 c 0
 229.108015762 129.237862463 317.560470667 128.953294111 377 124 c 0
 469.537202632 118.661315233 541 78.2671425181 541 -14 c 0
 541 -60 521 -98 480 -127 c 0
 439 -156 376 -171 292 -171 c 0
 214 -171 152 -160 108 -136 c 0
 64 -112 42 -78 42 -33 c 0xeca0
 42 24.7479763431 82.3811997652 50.6287198591 118 72 c 0
 128 78 136 81 139 84 c 1
 117.525378823 98.3164141178 88 109.559938185 88 146 c 0xe980
 88 162 95 176 110 189 c 0
 125 202 147 212 176 219 c 1
 126.300945987 244.706407248 81 291.248554678 81 361 c 0
 81 435.448760246 124.440347018 482.324985189 182 505 c 0
 215 518 254 525 301 525 c 0xda80
 368.552444733 525 409.746491727 508.440131204 449 479 c 1
 454 481 462 485 473 490 c 0
 503.226117669 503.739144395 546.738409219 517.869204609 575 532 c 1
 575 454 l 1xea80
 484 436 l 1
EndSplineSet
EndChar

StartChar: uni0122
Encoding: 290 290 228
Width: 726
Flags: W
HStem: -122 73<316 346> -10 72<263.993 453.691> 0 21G<578 638> 313 59<375 558> 526 21G<541.019 626.095> 662 71<262.736 445.801>
VStem: 56 84<207.68 516.415> 316 86<-110 -49> 556 82<165.099 313> 578 60<0 114>
LayerCount: 2
Fore
SplineSet
306 -182 m 1x9f
 346 -123 l 1
 316 -122 l 1
 316 -49 l 1
 402 -49 l 1
 402 -110 l 1
 340 -182 l 1
 306 -182 l 1x9f
578 114 m 1xbf40
 537.208336211 44.9679535881 468.433221778 -10 358 -10 c 0
 220.694810548 -10 135.804404236 58.61490696 92 159 c 0
 68 214 56 281 56 360 c 0
 56 515.304833924 104.062552738 629.778565856 198 689 c 0
 244 718 297 733 360 733 c 0
 430.41926016 733 475.543755405 714.079014382 527 681 c 0
 566.617535657 654.116672233 607.067655052 604.33086237 630 547 c 1
 548 526 l 1
 534.038137555 572.539541482 479.347414986 620.944334294 446 640 c 0
 420 655 392 662 360 662 c 0
 258.844833782 662 198.649201908 608.364715775 167 531 c 0
 149 487 140 430 140 362 c 0
 140 221.950357935 177.574443533 120.966913985 272 79 c 0
 299 67 330 62 362 62 c 0
 428.15701016 62 474.676116206 88.760630732 506 124 c 0
 533.468261866 154.699822085 553.433448898 197.802080168 556 244 c 2xdf80
 558 313 l 1
 375 313 l 1
 375 372 l 1
 638 372 l 1
 638 0 l 1
 578 0 l 1
 578 114 l 1xbf40
EndSplineSet
EndChar

StartChar: uni0123
Encoding: 291 291 229
Width: 619
Flags: W
HStem: -171 53<171.992 419.14> 200 53<204.371 383.051> 454 78<539.611 575> 473 52<206.619 381.126> 608 86<280 313>
VStem: 42 78<-75.4261 29.9025> 81 78<295.26 428.146> 88 75<141.02 186.774> 240 73<608 694> 428 75<295.508 429.589> 465 76<-78.3476 26.5596>
LayerCount: 2
Fore
SplineSet
159 361 m 0xdac0
 159 285.646278424 215.886643436 253 295 253 c 0
 370.944648682 253 428 286.694924151 428 361 c 0
 428 436.804997728 372.10266072 473 295 473 c 0
 216.348735534 473 159 438.197442755 159 361 c 0xdac0
307 -118 m 0
 387.932526655 -118 465 -96.791712781 465 -24 c 0
 465 28.7836227488 421.664507495 51.6263934851 366 55 c 2
 214 65 l 2
 182.532603313 67.6222830572 149.556547353 43.3791662946 135 23 c 0
 125 9 120 -7 120 -24 c 0xcca0
 120 -53 135 -76 165 -93 c 0
 195 -110 243 -118 307 -118 c 0
484 436 m 1
 494.43748178 416.864616737 503 389.233656372 503 362 c 0
 503 290.154066214 463.925509363 245.353455841 410 221 c 0
 379 207 339 200 292 200 c 0
 283.666666667 200 275.333333333 200 267 200 c 0
 227 199 200 195 185 187 c 0
 170 179 163 171 163 162 c 0xe9c0
 163 152 170 145 185 141 c 0
 229.108015762 129.237862463 317.560470667 128.953294111 377 124 c 0
 469.537202632 118.661315233 541 78.2671425181 541 -14 c 0
 541 -60 521 -98 480 -127 c 0
 439 -156 376 -171 292 -171 c 0
 214 -171 152 -160 108 -136 c 0
 64 -112 42 -78 42 -33 c 0xeca0
 42 24.7479763431 82.3811997652 50.6287198591 118 72 c 0
 128 78 136 81 139 84 c 1
 117.525378823 98.3164141178 88 109.559938185 88 146 c 0xe980
 88 162 95 176 110 189 c 0
 125 202 147 212 176 219 c 1
 126.300945987 244.706407248 81 291.248554678 81 361 c 0
 81 435.448760246 124.440347018 482.324985189 182 505 c 0
 215 518 254 525 301 525 c 0xda80
 368.552444733 525 409.746491727 508.440131204 449 479 c 1
 454 481 462 485 473 490 c 0
 503.226117669 503.739144395 546.738409219 517.869204609 575 532 c 1
 575 454 l 1xea80
 484 436 l 1
240 608 m 1
 240 699 l 1
 282 768 l 1
 322 768 l 1
 280 694 l 1
 313 694 l 1
 313 608 l 1
 240 608 l 1
EndSplineSet
EndChar

StartChar: Hcircumflex
Encoding: 292 292 230
Width: 765
Flags: W
HStem: 0 21G<100 178 588 666> 340 70<178 588> 703 20G<100 178 588 666>
VStem: 100 78<0 340 410 723> 588 78<0 340 410 723>
LayerCount: 2
Fore
SplineSet
452 788 m 1
 381 852 l 1
 305 788 l 1
 230 788 l 1
 354 896 l 1
 410 896 l 1
 532 788 l 1
 452 788 l 1
588 340 m 1
 178 340 l 1
 178 0 l 1
 100 0 l 1
 100 723 l 1
 178 723 l 1
 178 410 l 1
 588 410 l 1
 588 723 l 1
 666 723 l 1
 666 0 l 1
 588 0 l 1
 588 340 l 1
EndSplineSet
EndChar

StartChar: hcircumflex
Encoding: 293 293 231
Width: 572
Flags: W
HStem: 0 21G<80 158 423 501> 460 64<221.525 381.847>
VStem: 80 78<0 412.37 441 748> 423 78<0 420.7>
LayerCount: 2
Fore
SplineSet
188 784 m 1
 117 847 l 1
 41 784 l 1
 -34 784 l 1
 90 891 l 1
 146 891 l 1
 268 784 l 1
 188 784 l 1
423 356 m 2
 423 424.317942533 370.736328248 460 301 460 c 0
 249.571846305 460 201.8788662 440.389373784 178 411 c 0
 165 395 158 374 158 349 c 2
 158 0 l 1
 80 0 l 1
 80 748 l 1
 156 748 l 1
 156 441 l 1
 185.39723466 489.995391101 240.288857611 524 320 524 c 0
 391.16612973 524 446.948631278 497.198842538 477 454 c 0
 493 431 501 405 501 374 c 2
 501 0 l 1
 423 0 l 1
 423 356 l 2
EndSplineSet
EndChar

StartChar: Hbar
Encoding: 294 294 232
Width: 783
Flags: W
HStem: 0 21G<112 190 600 678> 340 70<190 600> 558 55<12 112 190 600 678 770> 703 20G<112 190 600 678>
VStem: 112 78<0 340 410 558 613 723> 600 78<0 340 410 558 613 723>
LayerCount: 2
Fore
SplineSet
600 340 m 1
 190 340 l 1
 190 0 l 1
 112 0 l 1
 112 558 l 1
 12 558 l 1
 12 613 l 1
 112 613 l 1
 112 723 l 1
 190 723 l 1
 190 613 l 1
 600 613 l 1
 600 723 l 1
 678 723 l 1
 678 613 l 1
 770 613 l 1
 770 558 l 1
 678 558 l 1
 678 0 l 1
 600 0 l 1
 600 340 l 1
190 558 m 1
 190 410 l 1
 600 410 l 1
 600 558 l 1
 190 558 l 1
EndSplineSet
EndChar

StartChar: hbar
Encoding: 295 295 233
Width: 580
Flags: W
HStem: 0 21G<88 166 432 510> 460 64<229.871 388.149> 600 52<20 88.8075 164 322>
VStem: 88.8075 75.1925<0 410.995 441 600 652 743> 432 78<0 418.508>
LayerCount: 2
Fore
SplineSet
432 356 m 2
 432 423.360056026 378.947090506 460 310 460 c 0
 258.088255156 460 210.078486831 440.635060715 186 411 c 0
 173 395 166 374 166 349 c 2
 166 0 l 1
 88 0 l 1
 88.8075370121 600 l 1
 20 600 l 1
 20 652 l 1
 88.8775235532 652 l 1
 89 743 l 1
 164 743 l 1
 164 652 l 1
 322 652 l 1
 322 600 l 1
 164 600 l 1
 164 441 l 1
 193.611756076 490.352926794 248.662197752 524 329 524 c 0
 400.16612973 524 455.948631278 497.198842538 486 454 c 0
 502 431 510 405 510 374 c 2
 510 0 l 1
 432 0 l 1
 432 356 l 2
EndSplineSet
EndChar

StartChar: Itilde
Encoding: 296 296 234
Width: 276
Flags: W
HStem: 0 21G<100 178> 703 20G<100 178> 822 54<116.768 263.644> 846 58<18.243 162.376>
VStem: 100 78<0 723>
LayerCount: 2
Fore
SplineSet
203 876 m 0xe8
 233.184462922 876 251.298940907 888.909258635 270 902 c 1
 285 848 l 1
 265.807213663 833.605410247 238.374285867 822 202 822 c 0xe8
 151.338828878 822 128.351740812 846 80 846 c 0
 46.6313276427 846 31.5572612264 833.690082859 12 820 c 1
 -4 868 l 1
 16.6146184281 886.740562207 38.1043466204 904 76 904 c 0xd8
 125.481546657 904 154.327366164 876 203 876 c 0xe8
100 723 m 1
 178 723 l 1
 178 0 l 1
 100 0 l 1
 100 723 l 1
EndSplineSet
EndChar

StartChar: itilde
Encoding: 297 297 235
Width: 251
Flags: W
HStem: 0 21G<100 176> 497 20G<100 176> 616 54<114.768 261.644> 640 58<16.243 160.376>
VStem: 100 76<0 517>
LayerCount: 2
Fore
SplineSet
201 670 m 0xe8
 231.184462922 670 249.298940907 682.909258635 268 696 c 1
 283 642 l 1
 263.807213663 627.605410247 236.374285867 616 200 616 c 0xe8
 149.338828878 616 126.351740812 640 78 640 c 0
 44.6313276427 640 29.5572612264 627.690082859 10 614 c 1
 -6 662 l 1
 14.6146184281 680.740562207 36.1043466204 698 74 698 c 0xd8
 123.481546657 698 152.327366164 670 201 670 c 0xe8
176 517 m 1
 176 0 l 1
 100 0 l 1
 100 517 l 1
 176 517 l 1
EndSplineSet
EndChar

StartChar: Imacron
Encoding: 298 298 236
Width: 276
Flags: W
HStem: 0 21G<100 178> 703 20G<100 178> 828 57<-4 280>
VStem: 100 78<0 723>
LayerCount: 2
Fore
SplineSet
280 885 m 1
 280 828 l 1
 -4 828 l 1
 -4 885 l 1
 280 885 l 1
100 723 m 1
 178 723 l 1
 178 0 l 1
 100 0 l 1
 100 723 l 1
EndSplineSet
EndChar

StartChar: imacron
Encoding: 299 299 237
Width: 251
Flags: W
HStem: 0 21G<103 178> 497 20G<103 178> 622 57<-2 282>
VStem: 103 75<0 517>
LayerCount: 2
Fore
SplineSet
282 679 m 1
 282 622 l 1
 -2 622 l 1
 -2 679 l 1
 282 679 l 1
178 517 m 1
 178 0 l 1
 103 0 l 1
 103 517 l 1
 178 517 l 1
EndSplineSet
EndChar

StartChar: Ibreve
Encoding: 300 300 238
Width: 276
Flags: W
HStem: 0 21G<100 178> 703 20G<100 178> 782 50<75.9178 201.203>
VStem: 100 78<0 723>
LayerCount: 2
Fore
SplineSet
138 832 m 0
 181.135942373 832 212.203590188 853.542907168 224 885 c 1
 284 885 l 1
 268.855078857 821.391331199 216.296501203 782 138 782 c 0
 61.3858462522 782 8.35491195426 821.838387401 -6 885 c 1
 54 885 l 1
 65.9990364511 853.002569464 94.1912424016 832 138 832 c 0
100 723 m 1
 178 723 l 1
 178 0 l 1
 100 0 l 1
 100 723 l 1
EndSplineSet
EndChar

StartChar: ibreve
Encoding: 301 301 239
Width: 251
Flags: W
HStem: 0 21G<88 164> 497 20G<88 164> 576 50<63.7814 189.091>
VStem: 88 76<0 517>
LayerCount: 2
Fore
SplineSet
126 626 m 0
 169.135942373 626 200.203590188 647.542907168 212 679 c 1
 272 679 l 1
 256.976792926 615.902530291 203.736318132 576 126 576 c 0
 48.6889008712 576 -3.46158417899 615.030970388 -18 679 c 1
 42 679 l 1
 53.9990364511 647.002569464 82.1912424016 626 126 626 c 0
164 517 m 1
 164 0 l 1
 88 0 l 1
 88 517 l 1
 164 517 l 1
EndSplineSet
EndChar

StartChar: Iogonek
Encoding: 302 302 240
Width: 276
Flags: W
HStem: -168 46<83.5835 200.207> 703 20G<100 178>
VStem: 15 66<-117.902 -41.2732> 100 78<0 723>
LayerCount: 2
Fore
SplineSet
112 -168 m 0
 54.2394363253 -168 15 -144.021047374 15 -90 c 0
 15 -70 23 -52 37 -36 c 0
 48.6654645018 -22.6680405694 70.0511477208 -10.0303824758 100 0.755924623805 c 1
 100 723 l 1
 178 723 l 1
 178 0 l 1
 177 0 l 1
 144 -14 119 -27 104 -40 c 0
 89 -53 81 -68 81 -85 c 0
 81 -113.612366043 99.1725195021 -122 130 -122 c 0
 156.538666709 -122 186.190894055 -114.872737297 201 -105 c 1
 201 -149 l 1
 182.527811379 -160.545117888 143.907402812 -168 112 -168 c 0
EndSplineSet
EndChar

StartChar: iogonek
Encoding: 303 303 241
Width: 251
Flags: W
HStem: -165 46<69.4791 186.207> 497 20G<88 164> 608 92<88.9223 164.486>
VStem: 1 66<-114.562 -38.1592> 80 92<615.514 691.45> 88 76<0 517>
LayerCount: 2
Fore
SplineSet
98 -165 m 0xf4
 39.6493461615 -165 1 -140.634034831 1 -86 c 0
 1 -66 9 -48 23 -32 c 0
 34.9235093147 -18.3731322118 57.002023942 -6.19697946826 88 4.52845823061 c 1
 88 517 l 1
 164 517 l 1
 164 0 l 1
 153.788901027 -6.72205346941e-18 l 1
 125.327808347 -12.6581687165 103.571119858 -25.2383627898 90 -37 c 0
 75 -50 67 -65 67 -82 c 0
 67 -110.612366043 85.1725195021 -119 116 -119 c 0
 142.538666709 -119 172.190894055 -111.872737297 187 -102 c 1
 187 -146 l 1
 168.527811379 -157.545117888 129.907402812 -165 98 -165 c 0xf4
126 608 m 0
 102.156313995 608 80 629.670913389 80 654 c 0
 80 677.298581501 104.32617288 700 126 700 c 0
 150.915199665 700 172 679.179687704 172 654 c 0xf8
 172 629.656353742 150.329086611 608 126 608 c 0
EndSplineSet
EndChar

StartChar: Idotaccent
Encoding: 304 304 242
Width: 276
Flags: W
HStem: 0 21G<100 178> 703 20G<100 178> 814 92<100.968 176.697>
VStem: 93 91<821.38 897.597> 100 78<0 723>
LayerCount: 2
Fore
SplineSet
138 814 m 0xf0
 113.815295459 814 93 835.132147605 93 860 c 0
 93 884.378582406 116.501467943 906 139 906 c 0
 164.24338358 906 184 885.705104362 184 860 c 0
 184 834.594734377 163.179687704 814 138 814 c 0xf0
100 723 m 1xe8
 178 723 l 1
 178 0 l 1
 100 0 l 1
 100 723 l 1xe8
EndSplineSet
EndChar

StartChar: dotlessi
Encoding: 305 305 243
Width: 251
Flags: W
HStem: 0 21G<88 164> 497 20G<88 164>
VStem: 88 76<0 517>
LayerCount: 2
Fore
SplineSet
164 517 m 1
 164 0 l 1
 88 0 l 1
 88 517 l 1
 164 517 l 1
EndSplineSet
EndChar

StartChar: Jcircumflex
Encoding: 308 308 244
Width: 385
Flags: W
HStem: -10 76<54.3887 204.566> 703 20G<228 306>
VStem: 228 78<90.2066 723>
LayerCount: 2
Fore
SplineSet
336 784 m 1
 264 847 l 1
 188 784 l 1
 114 784 l 1
 237 891 l 1
 294 891 l 1
 416 784 l 1
 336 784 l 1
142 66 m 0
 213.887031427 66 228 108.506987173 228 186 c 2
 228 723 l 1
 306 723 l 1
 306 162 l 2
 306 91.093729346 291.441035956 38.2940239704 249 10 c 0
 228 -4 198 -10 160 -10 c 0
 134 -10 110 -7 88 0 c 0
 66 7 52 11 45 14 c 1
 52 90 l 1
 78.5051118594 80.3617775057 102.115284202 66 142 66 c 0
EndSplineSet
EndChar

StartChar: jcircumflex
Encoding: 309 309 245
Width: 253
Flags: W
HStem: -166 65<-24.2031 81.4632> 497 20G<96 173>
VStem: 96 77<-85.002 517>
LayerCount: 2
Fore
SplineSet
204 578 m 1
 134 641 l 1
 58 578 l 1
 -18 578 l 1
 106 685 l 1
 163 685 l 1
 284 578 l 1
 204 578 l 1
40 -166 m 0
 8.76608976797 -166 -24 -167.785664216 -24 -155 c 2
 -25 -103 l 1
 30 -101 l 2
 77.6897633881 -97.025853051 96 -77.612529756 96 -26 c 2
 96 517 l 1
 173 517 l 1
 173 -30 l 2
 173 -125.684423036 138.099421392 -166 40 -166 c 0
EndSplineSet
EndChar

StartChar: uni0136
Encoding: 310 310 246
Width: 673
Flags: W
HStem: -122 73<298 327> 0 21G<100 180 533.664 635> 703 20G<100 180 503.286 616>
VStem: 100 80<0 234 338 723> 298 86<-110 -49>
LayerCount: 2
Fore
SplineSet
288 -182 m 1
 327 -123 l 1
 298 -122 l 1
 298 -49 l 1
 384 -49 l 1
 384 -110 l 1
 322 -182 l 1
 288 -182 l 1
635 0 m 1
 546 0 l 1
 311 381 l 1
 180 234 l 1
 180 0 l 1
 100 0 l 1
 100 723 l 1
 180 723 l 1
 180 338 l 1
 521 723 l 1
 616 723 l 1
 368 438 l 1
 635 0 l 1
EndSplineSet
EndChar

StartChar: uni0137
Encoding: 311 311 247
Width: 559
Flags: W
HStem: -122 73<234 264> 0 21G<80 158 424.556 522> 497 20G<396.033 507>
VStem: 80 78<0 155 246 743> 234 86<-110 -49>
LayerCount: 2
Fore
SplineSet
224 -182 m 1
 264 -123 l 1
 234 -122 l 1
 234 -49 l 1
 320 -49 l 1
 320 -110 l 1
 258 -182 l 1
 224 -182 l 1
522 0 m 1
 437 0 l 1
 269 270 l 1
 158 155 l 1
 158 0 l 1
 80 0 l 1
 80 743 l 1
 158 743 l 1
 158 246 l 1
 415 517 l 1
 507 517 l 1
 321 322 l 1
 522 0 l 1
EndSplineSet
EndChar

StartChar: kgreenlandic
Encoding: 312 312 248
Width: 567
Flags: W
HStem: 0 21G<80 158 425.364 530> 497 20G<80 158 402.87 512>
VStem: 80 78<0 155 241 517>
LayerCount: 2
Fore
SplineSet
530 0 m 1
 437 0 l 1
 277 275 l 1
 158 155 l 1
 158 0 l 1
 80 0 l 1
 80 517 l 1
 158 517 l 1
 158 241 l 1
 422 517 l 1
 512 517 l 1
 332 334 l 1
 530 0 l 1
EndSplineSet
EndChar

StartChar: Lacute
Encoding: 313 313 249
Width: 577
Flags: W
HStem: 0 72<180 530> 703 20G<100 180>
VStem: 100 80<72 723>
LayerCount: 2
Fore
SplineSet
210 929 m 1
 303 929 l 1
 169 784 l 1
 107 784 l 1
 210 929 l 1
100 723 m 1
 180 723 l 1
 180 72 l 1
 530 72 l 1
 530 0 l 1
 100 0 l 1
 100 723 l 1
EndSplineSet
EndChar

StartChar: lacute
Encoding: 314 314 250
Width: 290
Flags: W
HStem: -6 59<174.053 243.442> 2 50<201.696 244>
VStem: 80 77<69.1546 748>
LayerCount: 2
Fore
SplineSet
186 969 m 1x20
 279 969 l 1
 145 824 l 1
 83 824 l 1
 186 969 l 1x20
244 2 m 1x60
 232.168600359 -1.38039989735 215.828822689 -6 201 -6 c 0
 112.932513579 -6 80 43.5424586693 80 130 c 2
 80 748 l 1
 157 748 l 1
 157 136 l 2
 157 89.1972229113 174.045038995 53 215 53 c 2xa0
 244 52 l 1
 244 2 l 1x60
EndSplineSet
EndChar

StartChar: uni013B
Encoding: 315 315 251
Width: 577
Flags: W
HStem: -122 73<268 297> 0 72<180 530> 703 20G<100 180>
VStem: 100 80<72 723> 268 86<-110 -49>
LayerCount: 2
Fore
SplineSet
258 -182 m 1
 297 -123 l 1
 268 -122 l 1
 268 -49 l 1
 354 -49 l 1
 354 -110 l 1
 292 -182 l 1
 258 -182 l 1
100 723 m 1
 180 723 l 1
 180 72 l 1
 530 72 l 1
 530 0 l 1
 100 0 l 1
 100 723 l 1
EndSplineSet
EndChar

StartChar: uni013C
Encoding: 316 316 252
Width: 290
Flags: W
HStem: -120 72<90 119> -6 59<174.053 243.442> 2 50<201.696 244>
VStem: 80 77<69.1546 748> 90 85<-109 -48>
LayerCount: 2
Fore
SplineSet
79 -181 m 1x88
 119 -122 l 1
 90 -120 l 1
 90 -48 l 1
 175 -48 l 1
 175 -109 l 1
 114 -181 l 1
 79 -181 l 1x88
244 2 m 1xb0
 232.168600359 -1.38039989735 215.828822689 -6 201 -6 c 0
 112.932513579 -6 80 43.5424586693 80 130 c 2
 80 748 l 1
 157 748 l 1
 157 136 l 2
 157 89.1972229113 174.045038995 53 215 53 c 2xd0
 244 52 l 1
 244 2 l 1xb0
EndSplineSet
EndChar

